<?xml version="1.0" encoding="UTF-8" standalone="no"?>
<svg
   xmlns:dc="http://purl.org/dc/elements/1.1/"
   xmlns:cc="http://creativecommons.org/ns#"
   xmlns:rdf="http://www.w3.org/1999/02/22-rdf-syntax-ns#"
   xmlns:svg="http://www.w3.org/2000/svg"
   xmlns="http://www.w3.org/2000/svg"
   viewBox="0 0 717.33331 322.66666"
   height="322.66666"
   width="717.33331"
   xml:space="preserve"
   id="svg1627"
   version="1.1"><metadata
     id="metadata1633"><rdf:RDF><cc:Work
         rdf:about=""><dc:format>image/svg+xml</dc:format><dc:type
           rdf:resource="http://purl.org/dc/dcmitype/StillImage" /><dc:title></dc:title></cc:Work></rdf:RDF></metadata><defs
     id="defs1631" /><g
     transform="matrix(1.3333333,0,0,-1.3333333,0,322.66667)"
     id="g1635"><g
       transform="scale(0.1)"
       id="g1637"><path
         id="path1639"
         style="fill:#ffffff;fill-opacity:1;fill-rule:nonzero;stroke:none"
         d="m 1809.36,1564.49 h -85.4 c -0.91,0 -1.7,0.62 -1.92,1.49 l -67.13,264.16 c -0.5,1.99 -3.34,1.99 -3.84,-0.01 l -66.04,-264.14 c -0.22,-0.88 -1.01,-1.5 -1.92,-1.5 h -85.41 c -0.9,0 -1.68,0.6 -1.92,1.47 l -105.34,395.88 c -0.33,1.25 0.61,2.49 1.92,2.49 h 86.57 c 0.92,0 1.71,-0.63 1.93,-1.52 l 62.66,-261.98 c 0.48,-2.03 3.38,-2.03 3.86,0.01 l 62.11,261.96 c 0.22,0.9 1.01,1.53 1.94,1.53 h 81.43 c 0.91,0 1.71,-0.62 1.93,-1.51 l 64.83,-262.58 c 0.5,-2.03 3.39,-2.01 3.86,0.03 l 60.5,262.52 c 0.21,0.9 1.01,1.54 1.94,1.54 h 86.57 c 1.3,0 2.24,-1.23 1.92,-2.49 l -103.13,-395.87 c -0.23,-0.87 -1.01,-1.48 -1.92,-1.48" /><path
         id="path1641"
         style="fill:#ffffff;fill-opacity:1;fill-rule:nonzero;stroke:none"
         d="m 2151.94,1564.49 h -76 c -0.64,0 -1.25,0.28 -1.65,0.78 -4.87,6.16 -7.6,14.34 -8.2,24.52 -0.09,1.7 -2.01,2.51 -3.25,1.35 -24.53,-23 -55.41,-34.49 -92.63,-34.49 -30.62,0 -54.7,8.96 -72.25,26.88 -16.05,17.17 -24.07,36.2 -24.07,57.12 0,26.5 7.36,47.04 22.12,61.6 14.74,14.56 37.61,24.26 68.6,29.12 l 31.92,5.6 c 19.78,2.98 31.72,4.94 35.84,5.88 4.1,0.93 8.96,2.88 14.56,5.88 8.95,4.48 13.44,12.5 13.44,24.08 0,20.53 -15.5,30.8 -46.48,30.8 -19.42,0 -33.14,-2.9 -41.16,-8.68 -7.74,-5.58 -12.78,-15.56 -15.14,-29.95 -0.16,-0.95 -0.96,-1.69 -1.92,-1.69 h -72.87 c -1.17,0 -2.12,1.05 -2.02,2.23 2.63,31.38 14.7,55.28 36.23,71.69 22.02,16.8 53.76,25.2 95.2,25.2 42.18,0 73.83,-7.2 94.92,-21.56 21.08,-14.38 31.64,-36.5 31.64,-66.36 v -164.64 c 0,-17.49 4.84,-31.5 14.54,-42.01 1.19,-1.3 0.39,-3.35 -1.37,-3.35 z m -91.57,119.28 v 17.71 c 0,1.43 -1.38,2.36 -2.69,1.82 -7.12,-2.92 -17.42,-5.7 -30.91,-8.33 l -27.44,-5.04 c -16.8,-2.99 -28.66,-7.56 -35.56,-13.72 -6.91,-6.16 -10.36,-15.03 -10.36,-26.6 0,-11.2 3.92,-19.98 11.76,-26.32 7.84,-6.35 18.47,-9.52 31.92,-9.52 20.16,0 35.75,6.06 46.76,18.2 11.01,12.12 16.52,29.4 16.52,51.8" /><path
         id="path1643"
         style="fill:#ffffff;fill-opacity:1;fill-rule:nonzero;stroke:none"
         d="m 2242.59,1962.35 v -395.87 c 0,-1.1 -0.89,-1.99 -1.98,-1.99 h -76.11 c -1.1,0 -1.99,0.89 -1.99,1.99 v 395.87 c 0,1.09 0.89,1.98 1.99,1.98 h 76.11 c 1.09,0 1.98,-0.89 1.98,-1.98" /><path
         id="path1645"
         style="fill:#ffffff;fill-opacity:1;fill-rule:nonzero;stroke:none"
         d="m 2348.99,1962.35 v -395.87 c 0,-1.1 -0.88,-1.99 -1.98,-1.99 h -76.12 c -1.09,0 -1.98,0.89 -1.98,1.99 v 395.87 c 0,1.09 0.89,1.98 1.98,1.98 h 76.12 c 1.1,0 1.98,-0.89 1.98,-1.98" /><path
         id="path1647"
         style="fill:#ffffff;fill-opacity:1;fill-rule:nonzero;stroke:none"
         d="m 2511.84,1861.85 c 47.41,0 84.75,-13.72 112,-41.16 27.25,-27.44 40.88,-65.43 40.88,-113.96 0,-46.3 -13.91,-82.98 -41.72,-110.04 -27.82,-27.07 -64.68,-40.6 -110.6,-40.6 -46.67,0 -83.72,13.62 -111.16,40.88 -27.44,27.24 -41.16,64.58 -41.16,112 0,47.04 13.72,84.28 41.16,111.72 27.44,27.44 64.31,41.16 110.6,41.16 z m 0.56,-58.24 c -21.65,0 -39.2,-8.68 -52.64,-26.04 -13.44,-17.36 -20.16,-40.23 -20.16,-68.6 0,-28.38 6.72,-51.34 20.16,-68.88 13.44,-17.55 30.99,-26.32 52.64,-26.32 21.28,0 38.73,8.77 52.36,26.32 13.62,17.54 20.44,40.12 20.44,67.76 0,29.12 -6.63,52.36 -19.88,69.72 -13.26,17.36 -30.9,26.04 -52.92,26.04" /><path
         id="path1649"
         style="fill:#ffffff;fill-opacity:1;fill-rule:nonzero;stroke:none"
         d="m 2675.1,1856.25 h 76.11 c 1.1,0 1.99,-0.89 1.99,-1.98 v -30.11 c 0,-1.91 2.39,-2.65 3.55,-1.13 10.35,13.49 22.04,23.16 35.09,29.02 14.55,6.52 32.48,9.8 53.76,9.8 32.84,0 58.32,-8.6 76.44,-25.76 18.1,-17.18 27.16,-41.45 27.16,-72.8 v -196.81 c 0,-1.1 -0.89,-1.99 -1.99,-1.99 h -76.11 c -1.1,0 -1.99,0.89 -1.99,1.99 v 180.57 c 0,35.46 -17.17,53.2 -51.51,53.2 -19.42,0 -35,-5.23 -46.77,-15.68 -11.76,-10.46 -17.63,-24.46 -17.63,-42 v -176.09 c 0,-1.1 -0.89,-1.99 -1.99,-1.99 h -76.11 c -1.1,0 -1.98,0.89 -1.98,1.99 v 287.79 c 0,1.09 0.88,1.98 1.98,1.98" /><path
         id="path1651"
         style="fill:#ffffff;fill-opacity:1;fill-rule:nonzero;stroke:none"
         d="m 3052,1962.35 v -64.36 c 0,-1.09 -0.88,-1.98 -1.98,-1.98 h -76.11 c -1.09,0 -1.98,0.89 -1.98,1.98 v 64.36 c 0,1.09 0.89,1.98 1.98,1.98 h 76.11 c 1.1,0 1.98,-0.89 1.98,-1.98 z m 0,-108.08 v -287.79 c 0,-1.1 -0.88,-1.99 -1.98,-1.99 h -76.11 c -1.09,0 -1.98,0.89 -1.98,1.99 v 287.79 c 0,1.09 0.89,1.98 1.98,1.98 h 76.11 c 1.1,0 1.98,-0.89 1.98,-1.98" /><path
         id="path1653"
         style="fill:#ffffff;fill-opacity:1;fill-rule:nonzero;stroke:none"
         d="m 3346.17,1688.25 h -204.53 c -1.14,0 -2.06,-1.03 -2,-2.17 1.25,-23.86 5.13,-40.49 11.65,-49.91 11.94,-17.18 29.31,-25.76 52.08,-25.76 14.56,0 27.26,3.26 38.08,9.8 10.47,6.31 18.14,15.15 23.03,26.54 0.31,0.7 0.98,1.18 1.76,1.18 h 74.36 c 1.36,0 2.36,-1.38 1.94,-2.67 -8.84,-27.47 -25.73,-48.99 -50.68,-64.53 -25.76,-16.06 -56.2,-24.08 -91.29,-24.08 -41.82,0 -75.78,13.62 -101.91,40.88 -26.14,27.24 -39.2,63.08 -39.2,107.52 0,48.16 13.06,86.33 39.2,114.52 26.13,28.18 60.66,42.28 103.59,42.28 30.98,0 58.71,-7.66 83.16,-22.97 24.45,-15.31 40.97,-35.09 49.56,-59.35 8.21,-22.78 12.32,-48.72 12.32,-77.84 0,-4.48 -0.37,-8.96 -1.12,-13.44 z m -203.23,51.52 h 118.66 c 1.19,0 2.14,1.11 2,2.3 -1.99,17.18 -6.19,30.61 -12.62,40.26 -12.32,16.42 -28.94,24.64 -49.85,24.64 -34.48,0 -54.55,-21.63 -60.19,-64.88 -0.15,-1.2 0.8,-2.32 2,-2.32" /><path
         id="path1655"
         style="fill:#ffffff;fill-opacity:1;fill-rule:nonzero;stroke:none"
         d="m 819.809,1169.2 c 4.601,-9.14 25.781,-20.81 29.277,-29.4 0.164,-0.39 0.43,-0.72 0.793,-0.96 7.887,-5.02 10.418,-14.55 6.316,-22.04 -1.054,-1.92 -3.984,-1.17 -3.965,1.02 0.036,4.94 -0.613,9.72 -4.906,10.17 -4.136,0.44 -9.261,-1.13 -14.265,0.3 -5.719,1.65 -10.235,7.24 -12.45,12.76 -0.343,0.86 -1.171,1.4 -2.101,1.33 -14.395,-1.02 -28.719,2.65 -43.098,0.43 -0.664,-0.11 -1.238,-0.52 -1.551,-1.11 -7.121,-13.51 -16.32,-30.88 -34.257,-29.62 -0.883,0.06 -1.766,-0.38 -2.102,-1.2 -1.852,-4.45 -1.082,-8.51 -0.258,-12.88 0.293,-1.54 -1.156,-2.85 -2.668,-2.42 -2.851,0.82 -5.371,2.58 -6.824,4.76 -2.055,3.1 -2.18,5.12 -2.008,8.14 0.821,14.14 11.34,22.69 21.184,31.87 1.039,0.96 0.844,2.71 -0.41,3.36 -5.637,2.96 -9.325,0.95 -16.707,1.89 -2.715,0.34 -6.711,-1.17 -9.739,-0.53 -0.945,0.2 -1.945,-0.11 -2.386,-0.96 -2.575,-4.99 -8.219,-7.54 -13.684,-6.07 -3.004,0.8 -4.398,-1.65 -5.055,-2.95 -1.507,-3.01 -0.242,-6.39 0.453,-9.79 0.368,-1.8 -1.566,-3.19 -3.136,-2.23 -1.903,1.15 -3.723,1.75 -5.071,4.32 -1.64,3.12 -3.824,8.94 -4.668,11.24 -0.226,0.62 -0.148,1.29 0.211,1.84 1.438,2.23 5.274,8.04 7.207,9.87 7.829,7.41 17.016,9.87 28.344,9.87 17.192,0 35.621,2 52.899,2.94 2.875,0 18.582,23.64 23.75,32.68 14.218,22.13 25.582,41.45 35.179,65.77 2.344,5.94 3.86,14.78 3.215,23.34 -0.082,1.13 0.715,2.17 1.844,2.28 8.359,0.76 9.668,-10.7 15.269,-13.48 5.254,-2.6 13.446,2.14 20.11,0.41 1.613,-0.42 2.078,-2.49 0.828,-3.6 -24.606,-21.76 -49.469,-50.18 -56.492,-80.28 -1.532,-6.55 -2.891,-13.5 0.922,-21.07 z m 33.203,39.96 c -4.883,0.09 -10.407,0.01 -14.582,0.59 -0.864,0.11 -1.727,-0.25 -2.145,-1.01 -0.953,-1.72 -1.847,-3.71 -2.695,-5.61 -0.641,-1.43 0.453,-3.05 2.019,-2.97 6.114,0.33 12.868,1.97 18.414,5.06 1.86,1.04 1.118,3.91 -1.011,3.94 z m -176.473,157.43 c -2.828,10.61 -13.453,13.77 -16.234,23.65 -0.242,0.86 -0.942,1.51 -1.828,1.6 -10.969,1.05 -21.454,2.83 -33.477,5.94 -21.199,5.47 -39.492,12.06 -57.953,22.11 -9.145,4.99 -19.301,6.82 -29.516,7.95 -8.121,0.9 -17.586,0.49 -23.332,1.12 -5.754,0.64 -9.187,-1.95 -13.265,-4.12 -4.079,-2.18 -42.61,-23.84 -63.024,-25.07 -9.101,-0.54 -18.105,-9.98 -18.414,-18.07 -0.308,-8.08 4.242,-20.29 12.254,-20.29 -1.902,3.95 -5.687,9.9 -5.117,11.07 1.472,2.82 46.305,22.12 59.347,32.37 0.575,0.45 1.329,0.57 2.012,0.33 0.391,-0.14 0.778,-0.28 1.16,-0.41 1.086,-0.38 1.707,-1.53 1.34,-2.62 -3.269,-9.72 -19.215,-27.72 -22.062,-38.8 -2.668,-10.4 0.023,-20.08 6.679,-23.72 1.551,-0.85 3.454,0.5 3.098,2.23 -0.519,2.54 -1.379,4.43 -0.644,6.49 2.066,4.03 7.582,5.98 9.121,11.08 4.254,14.11 3.234,31.64 15.777,41.04 0.453,0.34 1.059,0.46 1.621,0.37 4.758,-0.79 9.098,-1.03 13.559,-0.98 8.078,0.09 15.554,2.82 19.558,3.55 1.024,0.18 2.055,-0.37 2.399,-1.36 4.707,-13.34 1.922,-27.78 6.031,-41.73 2.039,-6.92 5.695,-12.55 11.344,-16.98 0.871,-0.68 1.074,-1.65 0.98,-2.79 -0.191,-2.28 2.965,-3.2 3.961,-1.13 8.453,17.57 -4.492,41.03 -7.508,62.18 -0.183,1.29 0.887,2.45 2.192,2.36 11.918,-0.78 26.246,-5.28 32.808,-14.37 3.012,-4.16 3.649,-10.93 5.203,-17.11 1,-3.97 0.18,-7.58 -0.148,-11.32 -0.191,-2.16 2.68,-3.23 3.832,-1.39 4.379,6.99 4.379,16.52 4.379,24.72 0,2.12 2.976,2.19 4.125,2.12 9.187,-0.57 18.168,-3.16 26.523,-6.18 15.578,-5.64 28.563,-10.46 39.77,-21.97 1.23,-1.27 3.387,-0.55 3.578,1.21 0.246,2.25 0.41,4.67 -0.129,6.92 z m 300.336,139.04 c -4.891,7.61 -18.582,14.08 -29.816,5.79 -0.778,-0.58 -1.024,-1.64 -0.629,-2.52 2.984,-6.63 6.863,-13.82 10.074,-19.45 0.742,-1.3 2.57,-1.41 3.469,-0.22 5.05,6.7 10.722,10.62 16.047,13.39 1.101,0.58 1.527,1.96 0.855,3.01 z M 1084.83,1415 c -0.84,-1.77 0.94,-3.68 2.73,-2.86 24.78,11.35 45.4,37.15 45.4,78.24 0,48.82 -38.47,102.27 -94.83,102.27 -50.657,0 -90.677,-34.01 -106.079,-49.79 -0.613,-0.63 -0.758,-1.54 -0.379,-2.33 2.926,-6.15 6.32,-13.73 9.238,-19.86 0.535,-1.12 1.906,-1.48 2.985,-0.87 16.32,9.33 30.796,0.83 34.964,-3.25 16.204,-15.88 10.973,-35.58 4.012,-47.22 -0.906,-1.51 0.258,-3.44 2.008,-3.22 14.953,1.89 33.401,11.95 42.501,31.94 0.79,1.74 3.26,1.66 3.89,-0.14 5.69,-16.22 9.81,-33.41 3.03,-53.29 -0.45,-1.33 0.46,-2.77 1.86,-2.83 20.15,-0.79 35.67,6.89 47.66,22.07 1.08,1.36 3.27,0.86 3.68,-0.83 3.71,-15.43 3.32,-35.23 -2.67,-48.03 z m 4.38,193.77 c 2.03,-0.29 3.24,2.22 1.72,3.61 -14.65,13.39 -32.95,22.86 -59.03,22.86 -36.439,0 -78.33,-29.19 -112.677,-67.91 -0.59,-0.67 -0.707,-1.63 -0.282,-2.41 1.45,-2.64 3.004,-5.39 4.5,-8.13 0.668,-1.22 2.301,-1.45 3.297,-0.49 45.422,44.07 100.572,54.45 132.952,54.45 10.17,0 19.85,-0.6 29.52,-1.98 z m 14.23,57.6 c 7.59,0.04 16.06,-0.28 25.06,-1.26 2.4,-0.25 3.25,3.12 1.02,4.05 -23.11,9.61 -48.18,14.43 -73.3,13.84 -34.6,-0.83 -69.947,-12.2 -99.529,-32.02 -22.289,-14.93 -41.886,-36.41 -54.402,-59.45 -0.402,-0.75 -0.312,-1.65 0.215,-2.32 1.801,-2.25 3.57,-4.55 5.293,-6.92 l 1.66,-2.36 c 0.766,-1.09 2.328,-1.19 3.234,-0.21 22.465,24.27 49.563,44.7 79.086,59.38 35.303,17.55 73.913,26.98 111.663,27.27 z m -33.58,38.18 c -4.63,0.25 -9.28,0.29 -13.92,0.11 -0.5,-0.01 -0.96,-0.19 -1.33,-0.52 -1.42,-1.27 -3.21,-2.84 -5.04,-4.4 -1.52,-1.3 -0.54,-3.79 1.46,-3.69 4.2,0.21 8.71,0.29 12.23,0.2 0.39,0 0.75,0.09 1.09,0.28 2.28,1.29 4.49,2.69 6.64,4.18 1.65,1.15 0.88,3.74 -1.13,3.84 z m 29.35,27.21 c 4.43,9.5 7.72,20.67 8.92,30.26 0.16,1.26 -0.86,2.36 -2.13,2.35 -4.22,-0.06 -8.46,-0.25 -12.73,-0.57 -0.91,-0.07 -1.66,-0.72 -1.87,-1.62 -2.04,-8.63 -5.24,-17.03 -9.47,-24.84 -0.66,-1.21 -0.01,-2.7 1.34,-3.02 4.51,-1.07 8.99,-2.28 13.42,-3.65 1,-0.3 2.08,0.15 2.52,1.09 z m -153.651,-34.78 c -17.782,-19.76 -29.297,-43.71 -36.004,-66.77 -0.641,-2.21 2.246,-3.65 3.687,-1.85 8.66,10.78 18.481,20.82 29.598,29.04 0.543,0.4 0.851,1.03 0.824,1.71 -0.379,11.02 1.277,23.34 5.453,35.83 0.727,2.17 -2.027,3.74 -3.558,2.04 z m 96.141,152.19 c 33.11,5.78 60.21,5.67 88.1,0.11 0.41,-0.08 0.82,-0.04 1.2,0.12 22.55,9.3 50.43,22.59 73.22,43.94 1.7,1.59 -0.02,4.37 -2.19,3.49 -18.12,-7.31 -37.8,-12.44 -63.6,-11.21 -1.96,0.09 -2.78,2.54 -1.23,3.75 13.17,10.26 42.59,35.83 54.95,82.7 0.57,2.15 -2.17,3.57 -3.63,1.91 -49.98,-57.22 -102.27,-95 -148.2,-120.92 -2.05,-1.15 -0.94,-4.29 1.38,-3.89 z m 66.87,-71.4 c 38.4,0 74.47,-9.87 100,-36.72 20.25,-21.29 29.32,-53.78 27.91,-79.35 -0.13,-2.38 3.15,-3.15 4.05,-0.95 18.54,45.54 6.58,87.25 -14.85,116.63 -30.34,41.59 -82.92,63.17 -139.89,63.17 -85.74,0 -148.7,-46.85 -179.767,-88.58 -27.484,-36.92 -39.527,-84.68 -34.632,-130.47 0.058,-0.54 0.324,-1.04 0.738,-1.39 4.816,-4.05 9.473,-8.29 13.949,-12.73 1.235,-1.22 3.289,-0.53 3.543,1.19 15.215,102.5 109.867,169.2 218.949,169.2 z M 742.648,1481.48 c 35.165,0 60.223,15.73 76.961,37.33 1.204,1.56 -0.195,3.77 -2.125,3.35 -6.996,-1.49 -17.382,-2.72 -26.222,-2.32 -1.946,0.09 -2.723,2.51 -1.211,3.75 14.129,11.56 24.074,30.95 24.074,52.34 0,45.73 -44.441,82.96 -88.328,82.96 -29.672,0 -46.442,-18.21 -55.539,-30.51 -0.403,-0.54 -1.035,-0.83 -1.719,-0.81 -24.797,0.72 -44.406,-13.64 -44.406,-36.28 0,-31.29 47.035,-109.81 118.515,-109.81 z m 77.415,18.54 c 6.519,-0.63 13.351,-0.9 18.937,-0.55 1.125,0.07 1.984,1.07 1.945,2.19 -0.277,7.45 -1.226,14.38 -2.672,21.82 -0.363,1.9 -2.882,2.36 -3.859,0.69 -4.348,-7.44 -9.625,-14.37 -15.621,-20.56 -1.234,-1.28 -0.5,-3.42 1.27,-3.59 z m 72.804,-72.38 c -23.703,-1.41 -63.328,-1.24 -104.031,7.76 -2.277,0.5 -3.57,-2.53 -1.617,-3.81 29.344,-19.21 72,-22.14 104.402,-20.78 0.957,0.05 1.75,0.72 1.957,1.66 0.762,3.44 1.344,8.6 1.496,12.98 0.043,1.25 -0.961,2.26 -2.207,2.19 z m -95.73,54.49 c 16.281,-2.92 28.519,-7.73 40.035,-13.33 1.293,-0.63 2.801,0.19 3.008,1.61 0.672,4.64 0.84,9.16 0.828,14.3 0,1.13 -0.879,2.06 -2.004,2.1 -7.559,0.29 -22.578,1.74 -33.109,4.5 -0.633,-0.12 -1.125,-0.22 -1.758,-0.35 -2.219,-1.69 -4.992,-3.41 -7.699,-4.96 -1.696,-0.96 -1.223,-3.52 0.699,-3.87 z m -61.071,-14.84 c 34.961,-16.48 65.961,-22.64 95.719,-25.56 0.973,-0.1 1.895,0.48 2.215,1.4 1.102,3.17 2.066,6.41 2.914,9.68 -0.391,0.89 -0.668,1.52 -1.059,2.41 -33.691,18.33 -62.597,19.67 -74.105,17.79 -6.082,-0.99 -14.957,-2.08 -24.715,-1.72 -2.269,0.09 -3.019,-3.03 -0.969,-4 z m 135.571,-27.35 c 6.804,-0.1 15.277,-0.1 21.871,0.47 1.078,0.09 1.887,0.99 1.89,2.07 0.032,5.17 -0.652,13 -2.062,19.93 -0.359,1.77 -2.66,2.27 -3.734,0.82 -4.883,-6.62 -10.797,-13.4 -19.125,-19.49 -1.637,-1.2 -0.868,-3.78 1.16,-3.8 z M 771.043,1428.4 c -6.809,5.49 -12.922,12.23 -16.648,16.9 -0.231,0.29 -0.528,0.5 -0.875,0.63 -29.309,10.88 -54.172,25.2 -80.93,46.69 -0.207,0.16 -0.442,0.29 -0.695,0.36 -23.282,6.88 -46.028,16.99 -74.684,38.9 -1.66,1.28 -3.949,-0.41 -3.262,-2.38 23.739,-67.95 90.313,-106.48 175.864,-104.85 1.964,0.04 2.765,2.52 1.23,3.75 z M 757.426,1358 c -13.531,11.66 -31.582,28.84 -41.113,57.26 -0.235,0.7 -0.817,1.23 -1.543,1.38 -14.028,2.85 -28.028,6.98 -41.133,12.83 -1.446,0.64 -3.098,-0.45 -2.953,-2.03 0.613,-6.86 4.035,-14.98 4.804,-22.93 0.629,-6.49 -2.097,-6.89 -4.937,-7.41 -3.418,-0.62 0.914,-11.23 18.629,-22.2 0.765,-0.48 1.179,-1.38 0.965,-2.25 -1.762,-7.19 -2.575,-20.8 9.761,-28.78 7.824,-5.07 18.75,-4.9 33.805,2.95 7.523,3.93 14.117,5.99 22.687,7.54 1.739,0.32 2.364,2.48 1.028,3.64 z m 141.637,-60.03 c 3.527,12.65 -0.172,24.08 0,35.55 0.109,6.86 2.382,14.7 4.941,22.3 0.637,1.89 -1.481,3.51 -3.141,2.39 -11.09,-7.46 -24.226,-14.27 -36.656,-19.54 -1.98,-0.83 -3.797,1.54 -2.465,3.23 11.574,14.68 22.535,33.85 27.821,53.15 0.363,1.33 -0.653,2.64 -2.036,2.64 -25.894,-0.04 -64.453,2.91 -94.832,15.52 -0.332,0.14 -0.672,0.19 -1.027,0.14 -13.621,-1.85 -35.035,-3.4 -57.113,-0.16 -1.633,0.24 -2.934,-1.39 -2.262,-2.89 11.281,-25.26 32.266,-45.38 65.785,-66.14 15.305,-9.47 33.254,-22.34 37.699,-41.56 0.286,-1.23 1.547,-1.98 2.743,-1.56 6.847,2.39 9.863,0.79 12.832,-4.8 2.652,-5 6.015,-10.08 9.687,-10.12 3.004,-0.03 4.012,0.8 8.559,1.74 2.797,0.49 5.511,0.31 7.406,-0.55 3.449,-1.55 5.805,-2.13 7.801,-1.81 7.715,1.23 12.16,4.94 14.258,12.47 z m 86.351,55.51 c -19.34,22.73 -24.758,45.09 -26.613,67.56 -0.145,1.76 1.804,2.93 3.262,1.92 11.66,-8.04 25.464,-14.13 40.267,-14.69 1.98,-0.07 2.92,2.4 1.42,3.71 -30.816,26.91 -55.91,61.61 -75.922,107.84 -16.359,37.78 -36.48,70.55 -72.465,97.57 -16.742,12.58 -38.867,25.06 -63.797,32.58 -2.191,0.66 -3.656,-2.2 -1.878,-3.65 43.039,-35.15 40.007,-81.83 26.488,-107.81 -0.883,-1.71 0.758,-3.63 2.558,-2.97 9.664,3.54 16.715,8.32 21.446,12.45 1.144,1 2.937,0.49 3.394,-0.95 12.852,-40.81 10.071,-79.56 2.824,-101.78 -0.585,-1.8 1.387,-3.39 3.04,-2.47 21.914,12.16 37.175,33.21 43.378,52.28 0.629,1.93 3.286,1.98 3.981,0.07 17.543,-47.79 11.449,-89.5 -5.492,-125.81 -0.891,-1.9 1.261,-3.79 3.023,-2.65 6.629,4.29 13.906,9.82 20.203,15.57 1.375,1.26 3.59,0.22 3.489,-1.64 -1.887,-34.69 8.015,-62.4 23.246,-86 1.148,-1.79 3.937,-0.91 3.863,1.21 -0.984,28.16 2.211,55.54 5.359,76.25 0.301,1.97 2.961,2.47 3.922,0.72 7.656,-13.91 18.086,-20.16 28.91,-22.71 1.985,-0.47 3.414,1.85 2.094,3.4 z m 156.126,30.88 c -30.87,-18.65 -61.78,-18.66 -84.85,-12.33 -0.73,0.2 -1.49,0 -2.02,-0.55 -12.26,-12.69 -27.99,-26.41 -52.84,-31 -2.131,-0.4 -2.303,-3.42 -0.24,-4.08 12.58,-3.97 24.04,-2.94 33.98,1.11 1.76,0.72 3.48,-1.2 2.64,-2.9 -8.26,-16.76 -21.31,-26.88 -33.68,-34.86 -1.87,-1.2 -0.86,-4.08 1.35,-3.87 18.91,1.79 36.26,10.8 48.38,20.08 1.51,1.17 3.63,-0.12 3.33,-2.01 -5.71,-35.27 -6.12,-65.61 -1.48,-91.79 0.44,-2.46 4.01,-2.25 4.16,0.24 2.65,42.23 19.28,69.47 36.49,89 1.14,1.31 3.26,0.69 3.62,-1.01 2.67,-12.54 7.33,-22.85 12.3,-31.41 1.03,-1.8 3.73,-1.2 3.92,0.86 4.19,45.98 17.03,78.73 27.94,101.87 0.88,1.89 -1.22,3.73 -3,2.65 z m 64.15,80.07 c 2.52,38.15 -10.06,75.86 -30.07,107.11 -17.63,27.52 -53.57,59.87 -96.57,67.57 -2.31,0.41 -3.42,-2.81 -1.35,-3.91 19.43,-10.41 35.51,-26.61 45.6,-44.15 0.99,-1.73 -0.75,-3.73 -2.6,-3 -9.99,3.96 -20.04,6.32 -30.47,7.7 -2.27,0.3 -3.33,-2.71 -1.36,-3.88 38.44,-22.68 57.52,-64.2 57.52,-102.49 0,-58.84 -41.79,-84.53 -63.9,-91.14 -12.73,-3.8 -26.4,-4.51 -39.58,-2.32 -2.14,0.36 -3.34,-2.51 -1.55,-3.76 20.01,-14.06 52.75,-15.16 78.25,-4.78 16.49,6.72 31.2,19.42 40.14,32.9 1.09,1.66 3.66,1.05 3.86,-0.92 1.48,-15.3 -0.79,-30.19 -4.16,-42.39 -0.56,-2.03 1.91,-3.49 3.46,-2.07 19.59,17.89 40.08,48.63 42.78,89.53 z m -61.25,-222.95 c -0.98,-2.19 -4.3,-1.35 -4.01,1.04 3.68,30.96 19.14,62.02 35.94,90.17 25.11,42.07 40.04,88.74 43.01,133.58 5.59,84.64 -60.7,168.93 -135.75,184.89 -2.39,0.5 -2.22,3.97 0.21,4.17 40.81,3.3 87.47,-8.2 118.39,-30.77 34.23,-24.99 67.87,-81.54 67.87,-152.15 0,-68.64 -20.18,-108.87 -35.76,-149.86 -16.96,-44.6 -28.21,-91.79 -27.77,-136.52 0.02,-2.23 -3.03,-2.95 -3.98,-0.92 -17.51,37.25 -15.08,77.07 -11.78,104.34 0.22,1.75 -1.7,2.94 -3.21,2 -17.43,-10.77 -31.97,-24.87 -43.16,-49.97 z m -458.67,428.37 c 0.664,-1.72 3.117,-1.75 3.855,-0.05 8.875,20.43 23.563,34.25 37.547,48.45 9.785,9.93 17.305,18.63 23.555,29.16 0.925,1.56 3.269,1.25 3.804,-0.49 3.621,-11.8 6.09,-24.1 5.895,-37.05 -0.168,-10.79 -0.328,-19.26 0.929,-26.29 0.415,-2.33 3.79,-2.24 4.133,0.09 3.516,23.92 14.633,42.94 20.762,58.92 9.414,24.53 12.324,41.54 12.324,56.6 0,45.44 -25.926,68.77 -50,68.77 -16.793,0 -24.937,-11.24 -27.324,-25.1 -2.078,-12.08 -2.305,-27.13 -12.305,-46.88 -7.136,-14.1 -20.632,-33.21 -48.351,-46.31 -1.832,-0.87 -1.508,-3.58 0.484,-3.97 15.676,-3.07 29.395,-1.99 41.18,-0.08 2.101,0.34 3.285,-2.3 1.656,-3.67 -14.969,-12.61 -20.437,-27.13 -22.449,-43.26 -1.152,-9.26 0.988,-20.21 4.305,-28.84 z m 58.207,44.46 c -10.707,-11.24 -29.942,-28.65 -37.43,-42.94 -0.817,-1.56 0.605,-3.35 2.32,-2.96 13.09,2.92 29.18,2 41.914,-1.68 1.727,-0.5 3.285,1.23 2.512,2.85 -5.883,12.24 -4.852,28.71 -5.703,43.39 -0.11,1.84 -2.344,2.67 -3.613,1.34 z m 393.103,-13.95 c -17.1,13 -38.25,22.34 -69.93,28.77 -1.51,0.3 -2.19,2.05 -1.28,3.3 5.87,8.06 10.49,16.89 13.39,26.86 0.42,1.46 -0.83,2.89 -2.33,2.66 -25.9,-3.92 -58.73,-14.33 -81.239,-27.06 -19.308,-10.92 -34.976,-33.57 -38.375,-63.94 -0.195,-1.73 1.629,-2.94 3.137,-2.06 18.863,10.93 39.485,18.82 60.587,23.25 0.27,0.06 0.53,0.17 0.76,0.32 9.81,6.9 19.11,13.91 27.35,21.49 0.37,0.34 0.85,0.53 1.36,0.55 32.68,1.13 60.29,-7.33 84.47,-17.75 2.29,-0.98 4.08,2.11 2.1,3.61 z m -469.471,157 c -1.718,-0.92 -1.418,-3.49 0.473,-3.95 6.195,-1.53 13.754,-1.95 18.824,-1.39 3.496,0.39 10.012,2.11 13.828,3.11 1.286,0.33 1.973,1.74 1.411,2.94 -0.735,1.57 -1.653,3.2 -2.829,4.81 -1.402,1.92 -2.734,3.69 -3.937,5.4 -0.566,0.81 -1.59,1.13 -2.508,0.78 -5.808,-2.23 -11.551,-4.81 -17.133,-7.54 -2.191,-1.07 -5.211,-2.61 -8.129,-4.16 z m -30.234,-38.73 c 0,-6.91 4.555,-9.7 9.254,-9.7 6.828,0 9.769,4.4 14.394,13.88 3.11,6.39 6.887,11.16 11.762,14.98 1.668,1.31 0.668,3.94 -1.449,3.82 -12.719,-0.77 -22.691,-5.09 -29.273,-11.97 -2.969,-3.1 -4.485,-7.36 -4.688,-11.01 z m 68.816,21.08 c -0.156,1.84 -2.39,2.59 -3.687,1.28 -5.707,-5.73 -12.453,-8.72 -20.313,-12.63 -8.832,-4.41 -15.468,-9.91 -15.468,-18.8 0,-5.68 4.816,-10.99 12.593,-10.99 7.778,0 14.454,3.08 20.122,11.73 6.132,9.36 7.671,18.63 6.753,29.41 z m 14.571,36.73 c -1.004,0.82 -0.992,2.27 -0.074,3.19 0.996,0.99 1.847,2.21 2.468,3.64 2.242,5.13 0.684,10.77 -3.476,12.59 -4.164,1.81 -9.356,-0.88 -11.598,-6.01 -0.57,-1.3 -0.883,-2.63 -0.973,-3.92 -0.093,-1.28 -1.339,-2.16 -2.586,-1.85 -1.152,0.29 -2.226,0.1 -3.14,-1.2 -1.039,-1.48 -0.949,-4.14 0.883,-7.22 1.273,-2.15 3.234,-4.49 5.625,-6.29 2.062,-1.56 4.082,-3.17 5.863,-4.96 0.918,-0.91 2.422,-0.78 3.184,0.27 1.699,2.35 3.847,4.63 5.98,6.46 0.867,0.74 0.969,2.07 0.234,2.94 -0.746,0.89 -1.582,1.69 -2.39,2.36 z m 89.906,130.4 c -11.926,-1.12 -25.023,-6.3 -35.148,-16.95 -1.188,-1.25 -3.332,-0.61 -3.618,1.09 -0.949,5.7 -0.355,13.13 -0.64,18.32 -0.09,1.59 -1.864,2.52 -3.223,1.69 -12.004,-7.32 -23.867,-16.81 -32.566,-33.93 -0.852,-1.67 -3.371,-1.51 -3.903,0.29 -1.476,5.01 -1.183,11.02 -1.441,15.39 -0.106,1.81 -2.274,2.67 -3.594,1.43 -9.488,-8.86 -17.984,-22.46 -22.41,-35.72 -0.609,-1.82 -3.148,-1.94 -3.945,-0.19 -1.664,3.65 -2.512,8.19 -3.785,11.58 -0.504,1.34 -2.243,1.75 -3.332,0.83 -20.684,-17.53 -30.094,-47.02 -26.309,-71.67 0.172,-1.13 1.23,-1.91 2.371,-1.79 5.402,0.59 12.074,3.31 18.902,2.68 0.746,-0.07 1.477,0.24 1.918,0.85 21.618,29.82 60.532,32.19 87.313,14.94 0.43,-0.27 0.949,-0.39 1.453,-0.32 22.059,3.05 36.59,14.25 41.937,29.31 6.012,16.94 2.571,44.45 -7.957,61.19 -0.429,0.68 -1.214,1.06 -2.023,0.98 z M 672.785,1730.1 c -23.847,2.06 -36.875,9.41 -44.953,18.76 -1.035,1.19 -0.414,3.08 1.133,3.41 12.133,2.65 33.41,11.3 43.164,18.62 4.805,3.61 9.215,7.74 13.18,12.24 1.296,1.48 0.062,3.73 -1.895,3.53 -9.609,-1.03 -20.851,2.29 -25.23,11.16 -0.664,1.34 -2.371,1.68 -3.442,0.63 -7.601,-7.47 -22.844,-15.09 -40.219,-19.6 -2.519,-0.65 -7.511,-2.97 -9.589,-4.6 -26.524,-20.8 -45.704,-61.17 -47.032,-87.71 -0.015,-0.3 -0.089,-0.57 -0.226,-0.83 -6.473,-12.07 -14.805,-34.12 -7.121,-68.12 9.875,-43.7 33.363,-63.48 58.394,-81.85 10.543,-7.74 22.293,-13.59 34.801,-18.67 1.996,-0.81 3.762,1.58 2.414,3.27 -20.332,25.45 -33.019,49.36 -33.019,70.95 0,31.81 27.539,46.53 49.421,48.79 0.559,0.06 1.047,0.34 1.387,0.78 3.453,4.49 8.348,8.44 12.125,11 0.902,0.6 1.141,1.8 0.602,2.74 -11.762,20.63 -14.461,47.15 -2.184,72.47 0.652,1.34 -0.223,2.9 -1.711,3.03 z m -2.371,138.42 c 5.477,3.17 11.34,5.08 16.949,7.05 1.223,0.43 1.77,1.86 1.157,3 -1.399,2.63 -2.473,5.34 -2.684,8.21 -0.09,1.24 -1.203,2.12 -2.426,1.93 -2.695,-0.42 -5.683,-0.92 -8.812,-1.68 -7.785,-1.88 -15.434,-6.23 -17.758,-10.55 -2.453,-4.55 -3.922,-10.48 -5.52,-16.06 -0.558,-1.95 1.649,-3.51 3.285,-2.3 5.004,3.67 10.243,7.19 15.809,10.4 z m 28.484,28.36 c 0.344,-0.19 0.68,-0.39 1.004,-0.6 0.957,-0.61 2.172,-0.34 2.868,0.56 6.656,8.59 18.054,11.54 24.078,8.11 12.218,-6.97 9.179,-19.79 4.23,-26.48 0.352,-0.28 0.945,-0.81 1.422,-1.37 10.043,4.52 23.078,3.61 33.02,-0.81 12.234,-5.45 19.843,-13.02 26.019,-21.9 1.215,-1.74 3.902,-0.89 3.902,1.24 0,19.54 -9.449,41 -31.043,51.98 -21.359,10.85 -49.824,11.6 -66.171,-7.52 -0.864,-1.02 -0.497,-2.56 0.671,-3.21" /><path
         id="path1657"
         style="fill:#ffffff;fill-opacity:1;fill-rule:nonzero;stroke:none"
         d="m 1676.54,656.48 h -152.85 c -0.85,0 -1.6,-0.535 -1.88,-1.332 l -27.07,-77.972 c -0.28,-0.801 -1.03,-1.332 -1.87,-1.332 h -83.1 c -1.39,0 -2.35,1.375 -1.87,2.672 l 146.38,395.867 c 0.29,0.781 1.03,1.297 1.86,1.297 H 1648 c 0.84,0 1.58,-0.524 1.87,-1.309 L 1792.36,578.5 c 0.46,-1.293 -0.49,-2.656 -1.87,-2.656 h -83.67 c -0.85,0 -1.61,0.539 -1.88,1.344 l -26.53,77.949 c -0.27,0.804 -1.03,1.343 -1.87,1.343 z m -23.02,71.52 -51.53,148.211 c -0.61,1.777 -3.13,1.777 -3.75,0 L 1546.71,728 c -0.45,-1.289 0.51,-2.641 1.87,-2.641 h 103.06 c 1.37,0 2.32,1.352 1.88,2.641" /><path
         id="path1659"
         style="fill:#ffffff;fill-opacity:1;fill-rule:nonzero;stroke:none"
         d="m 2107.68,575.844 h -79.86 c -0.91,0 -1.7,0.621 -1.92,1.508 l -49.29,199.804 c -0.49,1.996 -3.32,2.02 -3.84,0.028 L 1920.26,577.32 c -0.23,-0.871 -1.02,-1.476 -1.92,-1.476 h -79.31 c -0.88,0 -1.65,0.574 -1.9,1.418 l -85.62,287.789 c -0.38,1.273 0.57,2.551 1.9,2.551 h 78.68 c 0.91,0 1.7,-0.614 1.92,-1.489 l 47.03,-182.769 c 0.51,-1.973 3.3,-1.992 3.84,-0.028 l 49.71,182.825 c 0.24,0.859 1.02,1.461 1.92,1.461 h 77.04 c 0.9,0 1.68,-0.602 1.92,-1.461 l 49.66,-182.618 c 0.53,-1.976 3.35,-1.937 3.84,0.055 l 44.29,182.508 c 0.22,0.891 1.01,1.516 1.93,1.516 h 78.65 c 1.33,0 2.28,-1.282 1.9,-2.555 l -86.17,-287.789 c -0.25,-0.84 -1.02,-1.414 -1.89,-1.414" /><path
         id="path1661"
         style="fill:#ffffff;fill-opacity:1;fill-rule:nonzero;stroke:none"
         d="m 2475.12,575.844 h -76 c -0.64,0 -1.26,0.281 -1.65,0.777 -4.87,6.168 -7.6,14.344 -8.2,24.524 -0.1,1.695 -2.01,2.511 -3.25,1.351 -24.53,-23 -55.41,-34.492 -92.63,-34.492 -30.62,0 -54.7,8.957 -72.25,26.879 -16.05,17.168 -24.07,36.207 -24.07,57.117 0,26.508 7.36,47.043 22.11,61.602 14.75,14.558 37.61,24.265 68.61,29.121 l 31.92,5.601 c 11.56,1.864 19.31,3.078 23.24,3.637 3.92,0.562 8.02,1.305 12.32,2.242 4.28,0.926 7,1.68 8.12,2.238 1.11,0.559 3.36,1.77 6.72,3.641 8.95,4.481 13.44,12.504 13.44,24.082 0,20.527 -15.5,30.801 -46.48,30.801 -13.07,0 -23.44,-1.219 -31.08,-3.641 -7.66,-2.433 -13.44,-6.539 -17.36,-12.324 -3.71,-5.473 -6.33,-13.023 -7.86,-22.656 -0.16,-0.957 -0.97,-1.703 -1.93,-1.703 h -72.86 c -1.18,0 -2.12,1.054 -2.02,2.226 2.63,31.383 14.7,55.281 36.23,71.696 22.02,16.796 53.76,25.199 95.2,25.199 42.18,0 73.82,-7.192 94.91,-21.559 21.09,-14.375 31.65,-36.496 31.65,-66.359 V 621.203 c 0,-17.492 4.84,-31.5 14.54,-42.015 1.19,-1.293 0.39,-3.344 -1.37,-3.344 z m -91.57,119.277 v 17.715 c 0,1.422 -1.38,2.363 -2.7,1.82 -7.12,-2.922 -17.41,-5.703 -30.9,-8.332 l -27.45,-5.043 c -16.8,-2.992 -28.65,-7.558 -35.55,-13.718 -6.92,-6.161 -10.37,-15.032 -10.37,-26.602 0,-11.199 3.93,-19.977 11.76,-26.32 7.84,-6.352 18.49,-9.52 31.93,-9.52 20.16,0 35.74,6.067 46.76,18.203 11,12.125 16.52,29.399 16.52,51.797" /><path
         id="path1663"
         style="fill:#ffffff;fill-opacity:1;fill-rule:nonzero;stroke:none"
         d="m 2752.89,761.203 h -72.43 c -0.89,0 -1.67,0.649 -1.89,1.52 -4.82,18.976 -11.42,32.375 -19.78,40.199 -8.59,8.023 -20.92,12.043 -36.96,12.043 -23.9,0 -40.52,-8.402 -49.85,-25.203 -10.45,-18.672 -15.67,-42.559 -15.67,-71.68 0,-28.754 5.78,-51.434 17.35,-68.039 11.57,-16.617 27.63,-24.922 48.17,-24.922 15.3,0 27.34,4.106 36.12,12.32 8.53,7.997 15.4,21.145 20.59,39.418 0.24,0.844 1.01,1.465 1.88,1.465 h 72.41 c 1.21,0 2.17,-1.094 2.03,-2.289 -3.78,-32.172 -18.08,-58.097 -42.88,-77.793 -25.39,-20.16 -55.63,-30.238 -90.71,-30.238 -29.12,0 -54.52,5.879 -76.16,17.637 -21.66,11.761 -38.46,29.023 -50.4,51.8 -11.96,22.77 -17.92,49.649 -17.92,80.641 0,48.16 13.24,86.051 39.75,113.68 26.51,27.625 61.79,41.441 105.84,41.441 36.97,0 67.67,-10.082 92.12,-30.242 23.92,-19.719 37.39,-46.227 40.42,-79.52 0.11,-1.179 -0.85,-2.238 -2.03,-2.238" /><path
         id="path1665"
         style="fill:#ffffff;fill-opacity:1;fill-rule:nonzero;stroke:none"
         d="m 434.43,942.313 c 1.523,1.859 2.972,3.804 4.519,5.632 5.114,6.035 10.36,11.903 15.735,17.606 0.527,0.558 1.089,1.07 1.617,1.629 4.875,5.113 9.824,10.129 14.906,14.972 1.91,1.817 3.91,3.508 5.848,5.293 3.679,3.379 7.332,6.805 11.105,10.047 0.016,0.012 0.035,0.008 0.047,0.016 0.18,0.156 0.348,0.32 0.523,0.472 h -64.898 v -68.894 c 0.133,0.168 0.273,0.328 0.402,0.496 0.008,0.016 0.004,0.035 0.016,0.051 3.297,4.34 6.75,8.496 10.18,12.68" /><path
         id="path1667"
         style="fill:#ffffff;fill-opacity:1;fill-rule:nonzero;stroke:none"
         d="m 742.961,441.766 c -6.207,3.375 -12.297,7.039 -18.293,10.914 -0.543,0.351 -1.109,0.633 -1.648,0.984 -0.309,0.203 -0.579,0.441 -0.887,0.649 -0.75,0.496 -1.52,0.949 -2.266,1.453 -3.953,2.675 -7.679,5.632 -11.445,8.535 -1.547,1.195 -3.195,2.285 -4.707,3.512 -5.34,4.343 -10.469,8.921 -15.387,13.707 -3.453,3.343 -6.64,6.91 -9.867,10.449 -1.797,1.972 -3.703,3.851 -5.43,5.886 -3.176,3.731 -6.078,7.661 -9.008,11.583 -1.355,1.816 -2.793,3.574 -4.097,5.429 -2.66,3.785 -5.086,7.715 -7.512,11.656 -1.406,2.282 -2.859,4.528 -4.187,6.86 -2.043,3.594 -3.918,7.281 -5.77,10.988 -1.5,2.988 -2.98,5.973 -4.352,9.02 -1.46,3.273 -2.816,6.593 -4.132,9.945 -1.465,3.711 -2.84,7.445 -4.114,11.234 -1.019,3.047 -1.984,6.11 -2.886,9.207 -0.524,1.801 -1.2,3.547 -1.68,5.36 -1.094,4.16 -2.07,8.328 -2.938,12.504 -0.011,0.043 -0.027,0.086 -0.035,0.129 -0.804,3.89 -1.507,7.793 -2.117,11.691 -0.16,1.035 -0.262,2.07 -0.41,3.109 -0.418,2.938 -0.824,5.871 -1.129,8.813 -0.156,1.484 -0.242,2.965 -0.371,4.449 -0.211,2.488 -0.43,4.973 -0.563,7.457 -0.085,1.641 -0.109,3.277 -0.16,4.918 -0.078,2.324 -0.156,4.645 -0.164,6.965 0,1.715 0.051,3.422 0.086,5.133 0.043,2.242 0.09,4.484 0.199,6.718 0.086,1.747 0.219,3.485 0.34,5.227 0.157,2.191 0.324,4.375 0.543,6.559 0.176,1.757 0.391,3.511 0.606,5.261 0.265,2.157 0.547,4.309 0.875,6.457 0.269,1.758 0.562,3.508 0.867,5.258 0.379,2.125 0.777,4.246 1.211,6.363 0.359,1.743 0.73,3.481 1.129,5.215 0.484,2.11 1,4.207 1.543,6.301 0.449,1.723 0.902,3.445 1.386,5.156 0.594,2.09 1.231,4.168 1.883,6.243 0.531,1.683 1.059,3.363 1.625,5.039 0.711,2.101 1.485,4.187 2.258,6.273 0.602,1.617 1.191,3.238 1.832,4.844 0.84,2.117 1.746,4.211 2.652,6.304 0.668,1.551 1.313,3.106 2.016,4.645 0.992,2.16 2.055,4.293 3.113,6.43 0.711,1.433 1.391,2.882 2.129,4.308 1.227,2.356 2.543,4.68 3.856,7.004 0.66,1.16 1.273,2.344 1.949,3.496 2.035,3.465 4.152,6.895 6.375,10.278 27.832,42.429 70.543,71.48 120.25,81.777 49.691,10.301 100.43,0.633 142.848,-27.227 34.582,-22.691 58.253,-57.496 66.652,-98 1.031,-4.972 1.805,-9.961 2.348,-14.945 0.183,-1.676 0.191,-3.348 0.316,-5.023 0.254,-3.313 0.535,-6.621 0.574,-9.922 0.024,-1.992 -0.137,-3.961 -0.191,-5.946 -0.078,-2.972 -0.11,-5.945 -0.356,-8.902 -0.183,-2.113 -0.539,-4.199 -0.804,-6.301 -0.356,-2.797 -0.664,-5.593 -1.172,-8.363 -0.395,-2.16 -0.961,-4.281 -1.449,-6.418 -0.606,-2.676 -1.18,-5.351 -1.934,-7.988 -0.613,-2.153 -1.383,-4.262 -2.094,-6.391 -0.855,-2.57 -1.683,-5.144 -2.679,-7.672 -0.833,-2.121 -1.809,-4.183 -2.743,-6.277 -1.097,-2.465 -2.175,-4.93 -3.41,-7.348 -1.051,-2.066 -2.234,-4.074 -3.383,-6.105 -0.972,-1.715 -1.824,-3.477 -2.867,-5.164 -0.453,-0.735 -0.972,-1.426 -1.441,-2.153 -0.321,-0.496 -0.571,-1.027 -0.895,-1.519 -0.496,-0.75 -1.066,-1.422 -1.574,-2.16 -1.266,-1.828 -2.57,-3.621 -3.918,-5.379 -1.074,-1.399 -2.144,-2.801 -3.269,-4.149 -1.52,-1.828 -3.122,-3.574 -4.731,-5.312 -0.914,-0.984 -1.781,-2.008 -2.727,-2.957 -2.722,-2.762 -5.578,-5.383 -8.539,-7.875 -0.082,-0.07 -0.171,-0.133 -0.257,-0.203 -3.012,-2.528 -6.168,-4.871 -9.411,-7.102 -0.203,-0.137 -0.414,-0.269 -0.621,-0.41 -3.164,-2.148 -6.437,-4.141 -9.812,-5.984 -0.199,-0.114 -0.402,-0.223 -0.606,-0.332 -3.285,-1.778 -6.652,-3.411 -10.121,-4.883 -0.375,-0.16 -0.742,-0.332 -1.121,-0.492 -0.707,-0.293 -1.379,-0.645 -2.094,-0.926 -1.253,-0.488 -2.531,-0.781 -3.789,-1.231 -2.894,-1.047 -5.816,-2.015 -8.8,-2.859 -1.668,-0.469 -3.336,-0.895 -5.016,-1.293 -1.277,-0.309 -2.508,-0.719 -3.801,-0.984 -1.836,-0.383 -3.679,-0.571 -5.523,-0.868 -1.602,-0.265 -3.203,-0.558 -4.809,-0.757 -3.687,-0.461 -7.367,-0.719 -11.047,-0.852 -0.972,-0.035 -1.949,-0.156 -2.925,-0.168 -4.641,-0.066 -9.258,0.145 -13.848,0.59 -1.211,0.117 -2.402,0.352 -3.606,0.504 -3.386,0.43 -6.754,0.953 -10.086,1.66 -1.597,0.336 -3.171,0.75 -4.753,1.148 -2.957,0.747 -5.887,1.59 -8.79,2.555 -1.601,0.531 -3.187,1.07 -4.765,1.668 -2.992,1.129 -5.93,2.406 -8.844,3.762 -1.34,0.629 -2.699,1.195 -4.019,1.871 -4.172,2.125 -8.274,4.434 -12.243,7.039 -6.543,4.301 -8.363,13.086 -4.062,19.629 1.051,1.601 2.379,2.91 3.871,3.922 0.02,0.015 0.035,0.035 0.059,0.051 1.476,0.992 3.117,1.675 4.824,2.058 0.051,0.008 0.094,0.031 0.14,0.043 1.692,0.359 3.446,0.391 5.176,0.117 0.071,-0.011 0.137,-0.008 0.211,-0.015 1.707,-0.301 3.375,-0.942 4.938,-1.903 0.058,-0.035 0.129,-0.031 0.191,-0.07 0.137,-0.086 0.273,-0.168 0.41,-0.254 18.852,-12.324 40.86,-17.683 62.969,-15.558 0.898,0.085 1.785,0.195 2.668,0.308 2.109,0.258 4.219,0.598 6.328,0.992 0.914,0.176 1.836,0.332 2.742,0.528 2.699,0.589 5.364,1.269 7.977,2.066 0.199,0.063 0.41,0.102 0.609,0.168 2.801,0.875 5.535,1.898 8.227,3.012 0.804,0.332 1.59,0.707 2.386,1.058 1.915,0.852 3.797,1.758 5.645,2.723 0.844,0.445 1.684,0.891 2.512,1.355 1.933,1.086 3.82,2.247 5.668,3.461 0.59,0.383 1.199,0.743 1.781,1.141 2.375,1.633 4.676,3.367 6.902,5.207 0.504,0.418 0.977,0.879 1.477,1.309 1.711,1.472 3.383,3.004 4.992,4.601 0.68,0.672 1.344,1.367 2,2.055 1.438,1.516 2.832,3.082 4.18,4.695 0.574,0.684 1.16,1.36 1.718,2.063 1.829,2.308 3.594,4.683 5.227,7.172 2.402,3.664 4.586,7.425 6.578,11.257 0.664,1.274 1.184,2.594 1.801,3.883 1.242,2.598 2.488,5.188 3.543,7.848 0.625,1.578 1.113,3.195 1.672,4.789 0.855,2.43 1.719,4.855 2.418,7.332 0.492,1.73 0.855,3.488 1.269,5.238 0.567,2.391 1.133,4.781 1.559,7.199 0.32,1.829 0.531,3.672 0.769,5.512 0.309,2.375 0.606,4.754 0.778,7.149 0.136,1.89 0.179,3.789 0.23,5.691 0.063,2.375 0.086,4.75 0.016,7.137 -0.059,1.918 -0.188,3.843 -0.332,5.765 -0.184,2.383 -0.418,4.758 -0.735,7.141 -0.257,1.926 -0.562,3.855 -0.91,5.781 -0.426,2.375 -0.929,4.746 -1.492,7.11 -0.508,2.136 -1.031,4.261 -1.644,6.355 -9.368,30.141 -39.493,64.117 -67.497,78.996 -3.101,1.578 -6.257,3.008 -9.433,4.375 -1.461,0.629 -2.895,1.309 -4.367,1.895 -4.34,1.718 -8.735,3.273 -13.184,4.605 -0.199,0.059 -0.394,0.141 -0.594,0.199 -4.664,1.375 -9.39,2.489 -14.148,3.43 -1.492,0.297 -2.996,0.484 -4.492,0.738 -3.309,0.559 -6.625,1.047 -9.969,1.395 -1.777,0.183 -3.559,0.312 -5.344,0.433 -3.152,0.223 -6.308,0.352 -9.472,0.387 -1.805,0.016 -3.606,0.035 -5.415,-0.008 -3.347,-0.074 -6.703,-0.293 -10.062,-0.578 -1.57,-0.133 -3.141,-0.211 -4.711,-0.39 -4.902,-0.563 -9.809,-1.297 -14.703,-2.309 -42.289,-8.766 -78.621,-33.477 -102.305,-69.582 -3.363,-5.117 -6.394,-10.391 -9.265,-15.723 -0.637,-1.175 -1.274,-2.359 -1.887,-3.55 -2.707,-5.27 -5.223,-10.61 -7.453,-16.047 -0.324,-0.793 -0.598,-1.602 -0.91,-2.395 -1.961,-4.961 -3.711,-9.992 -5.27,-15.07 -0.344,-1.121 -0.719,-2.231 -1.043,-3.356 -1.609,-5.578 -2.973,-11.222 -4.098,-16.91 -0.234,-1.179 -0.418,-2.363 -0.632,-3.543 -0.938,-5.254 -1.696,-10.539 -2.219,-15.863 -0.078,-0.77 -0.195,-1.543 -0.266,-2.316 -0.508,-5.825 -0.711,-11.688 -0.715,-17.563 0,-1.344 0.024,-2.687 0.047,-4.031 0.114,-5.973 0.399,-11.953 1.039,-17.942 0.016,-0.152 0.047,-0.3 0.063,-0.449 0.637,-5.871 1.613,-11.738 2.762,-17.597 0.261,-1.329 0.519,-2.657 0.804,-3.985 1.282,-5.93 2.762,-11.785 4.528,-17.512 0.183,-0.597 0.41,-1.195 0.597,-1.789 11.953,-37.511 34.231,-70.39 64.571,-95.461 1.66,-1.363 3.363,-2.668 5.062,-3.984 3.344,-2.594 6.777,-5.101 10.305,-7.508 1.801,-1.238 3.578,-2.508 5.418,-3.691 1.711,-1.098 3.437,-2.16 5.164,-3.215 1.762,-1.07 3.523,-2.148 5.301,-3.176 1.921,-1.109 3.859,-2.168 5.796,-3.222 1.793,-0.981 3.59,-1.965 5.403,-2.899 1.969,-1.015 3.957,-1.973 5.941,-2.933 1.821,-0.883 3.641,-1.77 5.473,-2.606 2.008,-0.914 4.035,-1.773 6.062,-2.633 1.86,-0.789 3.715,-1.593 5.586,-2.336 2.035,-0.812 4.086,-1.562 6.141,-2.316 1.883,-0.695 3.762,-1.406 5.66,-2.055 2.082,-0.715 4.184,-1.363 6.285,-2.023 1.895,-0.598 3.785,-1.207 5.692,-1.762 2.129,-0.613 4.269,-1.16 6.414,-1.719 1.898,-0.5 3.797,-1.015 5.707,-1.468 2.164,-0.516 4.343,-0.954 6.519,-1.411 1.914,-0.402 3.824,-0.832 5.746,-1.187 2.188,-0.406 4.391,-0.738 6.59,-1.09 1.93,-0.305 3.852,-0.641 5.789,-0.906 2.215,-0.301 4.442,-0.52 6.668,-0.766 1.934,-0.211 3.86,-0.457 5.801,-0.625 2.254,-0.195 4.516,-0.304 6.781,-0.445 1.922,-0.113 3.836,-0.266 5.762,-0.336 2.293,-0.086 4.598,-0.086 6.898,-0.109 1.903,-0.024 3.801,-0.086 5.707,-0.067 2.383,0.028 4.77,0.149 7.157,0.238 1.82,0.071 3.644,0.094 5.468,0.204 2.536,0.148 5.075,0.402 7.61,0.628 1.687,0.149 3.371,0.247 5.055,0.43 2.847,0.309 5.691,0.727 8.539,1.129 1.375,0.191 2.746,0.332 4.125,0.547 4.222,0.668 8.441,1.434 12.656,2.305 68.152,14.132 126.722,53.961 164.942,112.156 48.28,73.508 65.04,161.43 47.19,247.562 -16.64,80.289 -61.52,150.039 -127.09,198.246 H 534.582 c -3.426,-2.46 -6.773,-5.054 -10.133,-7.625 -2.222,-1.703 -4.457,-3.394 -6.652,-5.144 -2.582,-2.066 -5.125,-4.199 -7.668,-6.332 -2.137,-1.793 -4.285,-3.566 -6.395,-5.402 -2.527,-2.211 -5.004,-4.497 -7.488,-6.774 -2.039,-1.871 -4.098,-3.719 -6.105,-5.633 -2.481,-2.371 -4.903,-4.828 -7.332,-7.265 -1.93,-1.938 -3.879,-3.84 -5.774,-5.821 -2.453,-2.562 -4.836,-5.218 -7.23,-7.855 -1.785,-1.961 -3.602,-3.887 -5.352,-5.891 -2.465,-2.816 -4.844,-5.73 -7.242,-8.629 -1.598,-1.937 -3.238,-3.824 -4.809,-5.796 -2.601,-3.266 -5.109,-6.641 -7.625,-10.004 -1.273,-1.7 -2.593,-3.348 -3.839,-5.075 -3.727,-5.136 -7.356,-10.379 -10.875,-15.738 -1.575,-2.406 -3.77,-4.16 -6.231,-5.219 V 433.039 c 0,-1.098 0.891,-1.988 1.988,-1.988 h 338.844 c -6.723,2.996 -13.344,6.273 -19.879,9.769 -0.605,0.321 -1.219,0.621 -1.824,0.946" /><path
         id="path1669"
         style="fill:#ffffff;fill-opacity:1;fill-rule:nonzero;stroke:none"
         d="m 1272.25,997.98 h -207.9 c 55.99,-50.531 94.45,-117.242 110.04,-192.496 19.39,-93.543 1.19,-189.031 -51.25,-268.875 -30.94,-47.125 -73.97,-83.324 -124.351,-105.558 h 273.461 c 1.09,0 1.98,0.89 1.98,1.988 v 562.957 c 0,1.098 -0.89,1.984 -1.98,1.984" /><path
         id="path1671"
         style="fill:#ffffff;fill-opacity:1;fill-rule:nonzero;stroke:none"
         d="m 477.055,987.445 c 3.691,3.391 7.363,6.813 11.152,10.063 -0.012,-0.008 -0.031,-0.004 -0.047,-0.016 -3.773,-3.242 -7.426,-6.668 -11.105,-10.047" /><path
         id="path1673"
         style="fill:#ffffff;fill-opacity:1;fill-rule:nonzero;stroke:none"
         d="m 424.25,929.633 c -0.012,-0.016 -0.008,-0.035 -0.016,-0.051 3.305,4.352 6.754,8.535 10.196,12.731 -3.43,-4.184 -6.883,-8.34 -10.18,-12.68" /><path
         id="path1675"
         style="fill:#ffffff;fill-opacity:1;fill-rule:nonzero;stroke:none"
         d="m 454.684,965.551 c -5.375,-5.703 -10.621,-11.571 -15.735,-17.606 5.114,6.035 10.36,11.903 15.735,17.606" /><path
         id="path1677"
         style="fill:#ffffff;fill-opacity:1;fill-rule:nonzero;stroke:none"
         d="m 444.777,909.809 c -1.273,-1.7 -2.589,-3.348 -3.839,-5.075 1.246,1.727 2.566,3.375 3.839,5.075" /><path
         id="path1679"
         style="fill:#ffffff;fill-opacity:1;fill-rule:nonzero;stroke:none"
         d="m 477.035,947.984 c 1.895,1.981 3.844,3.883 5.774,5.821 -1.93,-1.938 -3.879,-3.84 -5.774,-5.821" /><path
         id="path1681"
         style="fill:#ffffff;fill-opacity:1;fill-rule:nonzero;stroke:none"
         d="m 457.211,925.609 c -1.602,-1.937 -3.238,-3.824 -4.809,-5.796 1.571,1.972 3.211,3.859 4.809,5.796" /><path
         id="path1683"
         style="fill:#ffffff;fill-opacity:1;fill-rule:nonzero;stroke:none"
         d="m 469.805,940.129 c -1.785,-1.965 -3.602,-3.883 -5.352,-5.891 1.75,2.004 3.567,3.93 5.352,5.891" /><path
         id="path1685"
         style="fill:#ffffff;fill-opacity:1;fill-rule:nonzero;stroke:none"
         d="m 801.293,834.406 c 3.359,0.285 6.715,0.504 10.062,0.578 -3.351,-0.074 -6.703,-0.293 -10.062,-0.578" /><path
         id="path1687"
         style="fill:#ffffff;fill-opacity:1;fill-rule:nonzero;stroke:none"
         d="m 831.586,834.172 c 3.344,-0.348 6.66,-0.836 9.969,-1.395 -3.309,0.559 -6.625,1.047 -9.969,1.395" /><path
         id="path1689"
         style="fill:#ffffff;fill-opacity:1;fill-rule:nonzero;stroke:none"
         d="m 846.047,832.039 c 4.758,-0.941 9.484,-2.055 14.148,-3.43 -4.664,1.375 -9.39,2.489 -14.148,3.43" /><path
         id="path1691"
         style="fill:#ffffff;fill-opacity:1;fill-rule:nonzero;stroke:none"
         d="m 860.789,828.41 c 4.449,-1.332 8.844,-2.887 13.184,-4.605 -4.34,1.718 -8.735,3.273 -13.184,4.605" /><path
         id="path1693"
         style="fill:#ffffff;fill-opacity:1;fill-rule:nonzero;stroke:none"
         d="m 956.234,735.426 c -0.273,1.023 -0.64,2.074 -0.964,3.113 0.613,-2.094 1.136,-4.219 1.644,-6.355 -0.258,1.078 -0.394,2.164 -0.68,3.242" /><path
         id="path1695"
         style="fill:#ffffff;fill-opacity:1;fill-rule:nonzero;stroke:none"
         d="m 884.645,819.18 c -2.071,1 -4.204,1.828 -6.305,2.73 3.176,-1.367 6.332,-2.797 9.433,-4.375 -1.043,0.555 -2.089,1.145 -3.128,1.645" /><path
         id="path1697"
         style="fill:#ffffff;fill-opacity:1;fill-rule:nonzero;stroke:none"
         d="m 816.77,834.992 c 3.164,-0.035 6.32,-0.164 9.472,-0.387 -3.152,0.223 -6.304,0.352 -9.472,0.387" /><path
         id="path1699"
         style="fill:#ffffff;fill-opacity:1;fill-rule:nonzero;stroke:none"
         d="m 660.969,726.805 c 2.23,5.437 4.746,10.777 7.453,16.047 -2.707,-5.27 -5.223,-10.61 -7.453,-16.047" /><path
         id="path1701"
         style="fill:#ffffff;fill-opacity:1;fill-rule:nonzero;stroke:none"
         d="m 852.949,436.117 c -2.226,0.246 -4.453,0.465 -6.668,0.766 2.215,-0.301 4.442,-0.52 6.668,-0.766" /><path
         id="path1703"
         style="fill:#ffffff;fill-opacity:1;fill-rule:nonzero;stroke:none"
         d="m 742.473,474.848 c 1.218,-0.774 2.472,-1.473 3.703,-2.223 -1.727,1.055 -3.453,2.117 -5.164,3.215 0.496,-0.317 0.961,-0.68 1.461,-0.992" /><path
         id="path1705"
         style="fill:#ffffff;fill-opacity:1;fill-rule:nonzero;stroke:none"
         d="m 735.594,479.531 c -3.528,2.407 -6.961,4.914 -10.305,7.508 3.359,-2.601 6.793,-5.101 10.305,-7.508" /><path
         id="path1707"
         style="fill:#ffffff;fill-opacity:1;fill-rule:nonzero;stroke:none"
         d="m 655.059,588.273 c -1.766,5.727 -3.246,11.582 -4.528,17.512 1.266,-5.859 2.746,-11.699 4.528,-17.512" /><path
         id="path1709"
         style="fill:#ffffff;fill-opacity:1;fill-rule:nonzero;stroke:none"
         d="m 865.531,435.047 c -2.265,0.141 -4.527,0.25 -6.781,0.445 2.254,-0.195 4.516,-0.304 6.781,-0.445" /><path
         id="path1711"
         style="fill:#ffffff;fill-opacity:1;fill-rule:nonzero;stroke:none"
         d="m 840.492,437.789 c -2.199,0.352 -4.402,0.684 -6.59,1.09 2.192,-0.406 4.391,-0.738 6.59,-1.09" /><path
         id="path1713"
         style="fill:#ffffff;fill-opacity:1;fill-rule:nonzero;stroke:none"
         d="m 828.156,440.066 c -2.176,0.457 -4.355,0.895 -6.519,1.411 2.164,-0.516 4.343,-0.954 6.519,-1.411" /><path
         id="path1715"
         style="fill:#ffffff;fill-opacity:1;fill-rule:nonzero;stroke:none"
         d="m 815.93,442.945 c -2.145,0.559 -4.285,1.106 -6.414,1.719 2.129,-0.613 4.269,-1.16 6.414,-1.719" /><path
         id="path1717"
         style="fill:#ffffff;fill-opacity:1;fill-rule:nonzero;stroke:none"
         d="m 780.152,455.156 c -2.027,0.86 -4.054,1.719 -6.062,2.633 2.008,-0.914 4.035,-1.773 6.062,-2.633" /><path
         id="path1719"
         style="fill:#ffffff;fill-opacity:1;fill-rule:nonzero;stroke:none"
         d="m 791.879,450.504 c -2.055,0.754 -4.106,1.504 -6.141,2.316 2.035,-0.812 4.086,-1.562 6.141,-2.316" /><path
         id="path1721"
         style="fill:#ffffff;fill-opacity:1;fill-rule:nonzero;stroke:none"
         d="m 757.273,466.227 c -1.937,1.054 -3.875,2.113 -5.796,3.222 1.921,-1.109 3.859,-2.168 5.796,-3.222" /><path
         id="path1723"
         style="fill:#ffffff;fill-opacity:1;fill-rule:nonzero;stroke:none"
         d="m 768.617,460.395 c -1.984,0.96 -3.972,1.918 -5.941,2.933 1.969,-1.015 3.957,-1.973 5.941,-2.933" /><path
         id="path1725"
         style="fill:#ffffff;fill-opacity:1;fill-rule:nonzero;stroke:none"
         d="m 878.191,434.602 c -2.3,0.023 -4.605,0.023 -6.898,0.109 2.293,-0.086 4.598,-0.086 6.898,-0.109" /><path
         id="path1727"
         style="fill:#ffffff;fill-opacity:1;fill-rule:nonzero;stroke:none"
         d="m 646.902,627.816 c -0.64,5.989 -0.925,11.969 -1.039,17.942 0.114,-5.973 0.399,-11.953 1.039,-17.942" /><path
         id="path1729"
         style="fill:#ffffff;fill-opacity:1;fill-rule:nonzero;stroke:none"
         d="m 649.648,689.074 c 1.125,5.688 2.489,11.332 4.098,16.91 -1.609,-5.578 -2.973,-11.218 -4.098,-16.91" /><path
         id="path1731"
         style="fill:#ffffff;fill-opacity:1;fill-rule:nonzero;stroke:none"
         d="m 917.727,437.164 c -2.848,-0.402 -5.692,-0.82 -8.539,-1.129 2.847,0.309 5.691,0.727 8.539,1.129" /><path
         id="path1733"
         style="fill:#ffffff;fill-opacity:1;fill-rule:nonzero;stroke:none"
         d="m 654.789,709.34 c 1.559,5.078 3.309,10.109 5.27,15.07 -1.961,-4.965 -3.711,-9.992 -5.27,-15.07" /><path
         id="path1735"
         style="fill:#ffffff;fill-opacity:1;fill-rule:nonzero;stroke:none"
         d="m 646.797,669.668 c 0.523,5.324 1.281,10.609 2.219,15.863 -0.942,-5.254 -1.696,-10.539 -2.219,-15.863" /><path
         id="path1737"
         style="fill:#ffffff;fill-opacity:1;fill-rule:nonzero;stroke:none"
         d="m 803.824,446.426 c -2.101,0.66 -4.203,1.308 -6.285,2.023 2.082,-0.715 4.184,-1.363 6.285,-2.023" /><path
         id="path1739"
         style="fill:#ffffff;fill-opacity:1;fill-rule:nonzero;stroke:none"
         d="m 934.508,440.016 c -4.215,-0.871 -8.434,-1.637 -12.656,-2.305 4.222,0.668 8.441,1.434 12.656,2.305" /><path
         id="path1741"
         style="fill:#ffffff;fill-opacity:1;fill-rule:nonzero;stroke:none"
         d="m 670.309,746.402 c 2.871,5.332 5.902,10.606 9.265,15.723 -3.363,-5.121 -6.39,-10.391 -9.265,-15.723" /><path
         id="path1743"
         style="fill:#ffffff;fill-opacity:1;fill-rule:nonzero;stroke:none"
         d="m 891.055,434.773 c -2.387,-0.089 -4.774,-0.21 -7.157,-0.238 2.383,0.028 4.77,0.149 7.157,0.238" /><path
         id="path1745"
         style="fill:#ffffff;fill-opacity:1;fill-rule:nonzero;stroke:none"
         d="m 649.727,609.77 c -1.149,5.859 -2.125,11.726 -2.762,17.597 0.637,-5.871 1.613,-11.738 2.762,-17.597" /><path
         id="path1747"
         style="fill:#ffffff;fill-opacity:1;fill-rule:nonzero;stroke:none"
         d="m 958.406,725.074 c 0.348,-1.926 0.653,-3.855 0.91,-5.781 -0.257,1.93 -0.562,3.855 -0.91,5.781" /><path
         id="path1749"
         style="fill:#ffffff;fill-opacity:1;fill-rule:nonzero;stroke:none"
         d="m 645.816,649.789 c 0.004,5.875 0.207,11.738 0.715,17.563 -0.508,-5.829 -0.711,-11.688 -0.715,-17.563" /><path
         id="path1751"
         style="fill:#ffffff;fill-opacity:1;fill-rule:nonzero;stroke:none"
         d="m 904.133,435.605 c -2.535,-0.226 -5.074,-0.48 -7.61,-0.628 2.536,0.148 5.075,0.402 7.61,0.628" /><path
         id="path1753"
         style="fill:#ffffff;fill-opacity:1;fill-rule:nonzero;stroke:none"
         d="m 781.879,831.707 c 4.894,1.012 9.801,1.746 14.703,2.309 -4.902,-0.563 -9.809,-1.293 -14.703,-2.309" /><path
         id="path1755"
         style="fill:#ffffff;fill-opacity:1;fill-rule:nonzero;stroke:none"
         d="m 620.055,684.527 c -0.328,-2.148 -0.61,-4.3 -0.875,-6.457 0.265,2.157 0.55,4.309 0.875,6.457" /><path
         id="path1757"
         style="fill:#ffffff;fill-opacity:1;fill-rule:nonzero;stroke:none"
         d="m 617.73,637.289 c 0.133,-2.484 0.352,-4.969 0.563,-7.457 -0.211,2.488 -0.43,4.973 -0.563,7.457" /><path
         id="path1759"
         style="fill:#ffffff;fill-opacity:1;fill-rule:nonzero;stroke:none"
         d="m 618.574,672.809 c -0.219,-2.184 -0.386,-4.368 -0.543,-6.559 0.157,2.191 0.324,4.379 0.543,6.559" /><path
         id="path1761"
         style="fill:#ffffff;fill-opacity:1;fill-rule:nonzero;stroke:none"
         d="m 618.664,625.383 c 0.305,-2.942 0.711,-5.875 1.129,-8.813 -0.418,2.938 -0.824,5.875 -1.129,8.813" /><path
         id="path1763"
         style="fill:#ffffff;fill-opacity:1;fill-rule:nonzero;stroke:none"
         d="m 617.691,661.023 c -0.109,-2.234 -0.156,-4.476 -0.199,-6.718 0.043,2.242 0.09,4.484 0.199,6.718" /><path
         id="path1765"
         style="fill:#ffffff;fill-opacity:1;fill-rule:nonzero;stroke:none"
         d="m 642.457,544.371 c 1.852,-3.707 3.727,-7.394 5.77,-10.988 -2.051,3.594 -3.911,7.289 -5.77,10.988" /><path
         id="path1767"
         style="fill:#ffffff;fill-opacity:1;fill-rule:nonzero;stroke:none"
         d="m 626.973,583.777 c 0.902,-3.097 1.867,-6.16 2.886,-9.207 -1.027,3.047 -1.988,6.114 -2.886,9.207" /><path
         id="path1769"
         style="fill:#ffffff;fill-opacity:1;fill-rule:nonzero;stroke:none"
         d="m 652.414,526.523 c 2.426,-3.941 4.852,-7.871 7.512,-11.656 -2.656,3.785 -5.082,7.719 -7.512,11.656" /><path
         id="path1771"
         style="fill:#ffffff;fill-opacity:1;fill-rule:nonzero;stroke:none"
         d="m 633.973,563.336 c 1.316,-3.352 2.672,-6.672 4.132,-9.945 -1.468,3.273 -2.812,6.601 -4.132,9.945" /><path
         id="path1773"
         style="fill:#ffffff;fill-opacity:1;fill-rule:nonzero;stroke:none"
         d="m 641.57,752.598 c -1.058,-2.137 -2.121,-4.27 -3.113,-6.43 0.992,2.16 2.055,4.293 3.113,6.43" /><path
         id="path1775"
         style="fill:#ffffff;fill-opacity:1;fill-rule:nonzero;stroke:none"
         d="m 636.441,741.523 c -0.906,-2.093 -1.812,-4.187 -2.652,-6.304 0.84,2.117 1.746,4.211 2.652,6.304" /><path
         id="path1777"
         style="fill:#ffffff;fill-opacity:1;fill-rule:nonzero;stroke:none"
         d="m 647.555,763.91 c -1.313,-2.324 -2.629,-4.648 -3.856,-7.004 1.227,2.356 2.543,4.68 3.856,7.004" /><path
         id="path1779"
         style="fill:#ffffff;fill-opacity:1;fill-rule:nonzero;stroke:none"
         d="m 624.805,707.664 c -0.543,-2.094 -1.059,-4.191 -1.543,-6.301 0.484,2.11 1,4.207 1.543,6.301" /><path
         id="path1781"
         style="fill:#ffffff;fill-opacity:1;fill-rule:nonzero;stroke:none"
         d="m 631.957,730.375 c -0.773,-2.086 -1.547,-4.172 -2.258,-6.273 0.711,2.101 1.485,4.187 2.258,6.273" /><path
         id="path1783"
         style="fill:#ffffff;fill-opacity:1;fill-rule:nonzero;stroke:none"
         d="m 622.133,696.148 c -0.434,-2.117 -0.832,-4.238 -1.211,-6.363 0.379,2.125 0.777,4.246 1.211,6.363" /><path
         id="path1785"
         style="fill:#ffffff;fill-opacity:1;fill-rule:nonzero;stroke:none"
         d="m 628.074,719.063 c -0.652,-2.075 -1.289,-4.153 -1.883,-6.243 0.59,2.09 1.231,4.168 1.883,6.243" /><path
         id="path1787"
         style="fill:#ffffff;fill-opacity:1;fill-rule:nonzero;stroke:none"
         d="m 703.715,467.813 c 1.512,-1.227 3.16,-2.317 4.707,-3.512 -1.547,1.199 -3.192,2.277 -4.707,3.512" /><path
         id="path1789"
         style="fill:#ffffff;fill-opacity:1;fill-rule:nonzero;stroke:none"
         d="m 887.043,564.25 c -3.098,-0.742 -6.207,-1.348 -9.324,-1.852 1.844,0.297 3.687,0.485 5.523,0.868 1.293,0.265 2.524,0.675 3.801,0.984" /><path
         id="path1791"
         style="fill:#ffffff;fill-opacity:1;fill-rule:nonzero;stroke:none"
         d="m 858.938,560.621 c -4.637,-0.066 -9.258,0.145 -13.848,0.59 4.59,-0.445 9.207,-0.656 13.848,-0.59" /><path
         id="path1793"
         style="fill:#ffffff;fill-opacity:1;fill-rule:nonzero;stroke:none"
         d="m 783.922,601.047 c 1.051,1.601 2.379,2.91 3.871,3.922 -1.492,-1.012 -2.82,-2.321 -3.871,-3.922" /><path
         id="path1795"
         style="fill:#ffffff;fill-opacity:1;fill-rule:nonzero;stroke:none"
         d="m 964.344,619.316 c -0.801,-1.246 -1.629,-2.464 -2.469,-3.679 0.508,0.738 1.078,1.41 1.574,2.16 0.324,0.492 0.574,1.023 0.895,1.519" /><path
         id="path1797"
         style="fill:#ffffff;fill-opacity:1;fill-rule:nonzero;stroke:none"
         d="m 949.957,600.797 c -0.914,-0.984 -1.781,-2.004 -2.727,-2.957 0.946,0.949 1.813,1.973 2.727,2.957" /><path
         id="path1799"
         style="fill:#ffffff;fill-opacity:1;fill-rule:nonzero;stroke:none"
         d="m 655.656,586.484 c 2.352,-7.445 5.055,-14.847 8.266,-22.164 12.566,-28.652 32.242,-53.484 56.305,-73.297 -30.34,25.071 -52.618,57.95 -64.571,95.461" /><path
         id="path1801"
         style="fill:#ffffff;fill-opacity:1;fill-rule:nonzero;stroke:none"
         d="m 792.816,607.121 c 1.692,0.359 3.446,0.391 5.176,0.117 -1.73,0.274 -3.484,0.242 -5.176,-0.117" /><path
         id="path1803"
         style="fill:#ffffff;fill-opacity:1;fill-rule:nonzero;stroke:none"
         d="m 803.742,604.996 c 9,-5.691 18.184,-11.238 28.582,-13.5 11.801,-2.566 23.352,-3.152 34.387,-2.058 -22.109,-2.125 -44.117,3.234 -62.969,15.558" /><path
         id="path1805"
         style="fill:#ffffff;fill-opacity:1;fill-rule:nonzero;stroke:none"
         d="m 724.668,452.68 c -0.844,0.547 -1.695,1.074 -2.535,1.633 0.308,-0.208 0.578,-0.446 0.887,-0.649 0.539,-0.351 1.105,-0.633 1.648,-0.984" /><path
         id="path1807"
         style="fill:#ffffff;fill-opacity:1;fill-rule:nonzero;stroke:none"
         d="m 742.961,441.766 c 0.605,-0.325 1.219,-0.625 1.824,-0.946 -0.605,0.321 -1.219,0.621 -1.824,0.946" /><path
         id="path1809"
         style="fill:#ffffff;fill-opacity:1;fill-rule:nonzero;stroke:none"
         d="m 655.879,777.684 c -2.223,-3.383 -4.34,-6.813 -6.375,-10.278 2.035,3.465 4.152,6.895 6.375,10.278" /><path
         id="path1811"
         style="fill:#ffffff;fill-opacity:1;fill-rule:nonzero;stroke:none"
         d="m 664.023,509.438 c 2.93,-3.922 5.832,-7.852 9.008,-11.583 -3.164,3.731 -6.082,7.661 -9.008,11.583" /><path
         id="path1813"
         style="fill:#ffffff;fill-opacity:1;fill-rule:nonzero;stroke:none"
         d="m 622.355,601.641 c -0.82,3.937 -1.535,7.875 -2.152,11.82 0.61,-3.898 1.313,-7.801 2.117,-11.691 0.008,-0.043 0.024,-0.086 0.035,-0.129" /><path
         id="path1815"
         style="fill:#ffffff;fill-opacity:1;fill-rule:nonzero;stroke:none"
         d="m 617.57,642.207 c -0.078,2.324 -0.156,4.645 -0.164,6.965 0.008,-2.32 0.086,-4.641 0.164,-6.965" /><path
         id="path1817"
         style="fill:#ffffff;fill-opacity:1;fill-rule:nonzero;stroke:none"
         d="m 688.328,481.52 c -3.441,3.343 -6.644,6.902 -9.867,10.449 3.227,-3.539 6.414,-7.106 9.867,-10.449" /><path
         id="path1819"
         style="fill:#ffffff;fill-opacity:1;fill-rule:nonzero;stroke:none"
         d="m 988.867,704.344 c 0.024,-1.992 -0.137,-3.961 -0.191,-5.946 0.054,1.985 0.215,3.954 0.191,5.946" /><path
         id="path1821"
         style="fill:#ffffff;fill-opacity:1;fill-rule:nonzero;stroke:none"
         d="m 987.516,683.195 c 0.265,2.102 0.621,4.188 0.804,6.301 -0.183,-2.113 -0.539,-4.199 -0.804,-6.301" /><path
         id="path1823"
         style="fill:#ffffff;fill-opacity:1;fill-rule:nonzero;stroke:none"
         d="m 903.293,600.293 c -1.848,-0.965 -3.73,-1.871 -5.645,-2.723 1.915,0.852 3.797,1.758 5.645,2.723" /><path
         id="path1825"
         style="fill:#ffffff;fill-opacity:1;fill-rule:nonzero;stroke:none"
         d="m 911.473,605.109 c -1.848,-1.214 -3.735,-2.375 -5.668,-3.461 1.933,1.086 3.816,2.247 5.668,3.461" /><path
         id="path1827"
         style="fill:#ffffff;fill-opacity:1;fill-rule:nonzero;stroke:none"
         d="m 920.156,611.457 c -2.226,-1.84 -4.527,-3.574 -6.902,-5.207 2.375,1.633 4.676,3.367 6.902,5.207" /><path
         id="path1829"
         style="fill:#ffffff;fill-opacity:1;fill-rule:nonzero;stroke:none"
         d="m 895.262,596.512 c -2.692,-1.114 -5.426,-2.137 -8.227,-3.012 2.805,0.875 5.535,1.898 8.227,3.012" /><path
         id="path1831"
         style="fill:#ffffff;fill-opacity:1;fill-rule:nonzero;stroke:none"
         d="m 803.141,605.32 c -1.563,0.961 -3.231,1.602 -4.938,1.903 1.707,-0.301 3.379,-0.942 4.938,-1.903" /><path
         id="path1833"
         style="fill:#ffffff;fill-opacity:1;fill-rule:nonzero;stroke:none"
         d="m 926.625,617.367 c -1.609,-1.597 -3.281,-3.129 -4.992,-4.601 1.711,1.472 3.383,3.004 4.992,4.601" /><path
         id="path1835"
         style="fill:#ffffff;fill-opacity:1;fill-rule:nonzero;stroke:none"
         d="m 792.676,607.078 c -1.707,-0.383 -3.348,-1.066 -4.824,-2.058 1.472,0.992 3.117,1.675 4.824,2.058" /><path
         id="path1837"
         style="fill:#ffffff;fill-opacity:1;fill-rule:nonzero;stroke:none"
         d="m 875.707,590.738 c -2.109,-0.394 -4.219,-0.734 -6.328,-0.992 2.133,0.266 4.238,0.598 6.328,0.992" /><path
         id="path1839"
         style="fill:#ffffff;fill-opacity:1;fill-rule:nonzero;stroke:none"
         d="m 886.426,593.332 c -2.613,-0.797 -5.278,-1.477 -7.977,-2.066 2.699,0.589 5.364,1.269 7.977,2.066" /><path
         id="path1841"
         style="fill:#ffffff;fill-opacity:1;fill-rule:nonzero;stroke:none"
         d="m 957.031,673.699 c -0.414,-1.75 -0.777,-3.508 -1.269,-5.238 0.492,1.73 0.855,3.488 1.269,5.238" /><path
         id="path1843"
         style="fill:#ffffff;fill-opacity:1;fill-rule:nonzero;stroke:none"
         d="m 959.359,686.41 c -0.238,-1.84 -0.449,-3.683 -0.769,-5.512 0.32,1.829 0.531,3.668 0.769,5.512" /><path
         id="path1845"
         style="fill:#ffffff;fill-opacity:1;fill-rule:nonzero;stroke:none"
         d="m 960.367,699.25 c -0.051,-1.902 -0.094,-3.801 -0.23,-5.691 0.136,1.894 0.179,3.789 0.23,5.691" /><path
         id="path1847"
         style="fill:#ffffff;fill-opacity:1;fill-rule:nonzero;stroke:none"
         d="m 948.129,648.492 c -0.617,-1.289 -1.137,-2.609 -1.801,-3.883 0.664,1.274 1.184,2.594 1.801,3.883" /><path
         id="path1849"
         style="fill:#ffffff;fill-opacity:1;fill-rule:nonzero;stroke:none"
         d="m 953.344,661.129 c -0.559,-1.594 -1.047,-3.211 -1.672,-4.789 0.625,1.578 1.113,3.191 1.672,4.789" /><path
         id="path1851"
         style="fill:#ffffff;fill-opacity:1;fill-rule:nonzero;stroke:none"
         d="m 939.75,633.352 c -1.633,-2.489 -3.398,-4.864 -5.227,-7.172 1.829,2.308 3.594,4.683 5.227,7.172" /><path
         id="path1853"
         style="fill:#ffffff;fill-opacity:1;fill-rule:nonzero;stroke:none"
         d="m 932.805,624.117 c -1.348,-1.613 -2.742,-3.179 -4.18,-4.695 1.441,1.516 2.832,3.082 4.18,4.695" /><path
         id="path1855"
         style="fill:#ffffff;fill-opacity:1;fill-rule:nonzero;stroke:none"
         d="m 980.867,654.035 c 0.711,2.129 1.481,4.238 2.094,6.391 -0.613,-2.153 -1.383,-4.262 -2.094,-6.391" /><path
         id="path1857"
         style="fill:#ffffff;fill-opacity:1;fill-rule:nonzero;stroke:none"
         d="m 975.445,640.086 c 0.934,2.094 1.91,4.156 2.743,6.277 -0.833,-2.117 -1.809,-4.187 -2.743,-6.277" /><path
         id="path1859"
         style="fill:#ffffff;fill-opacity:1;fill-rule:nonzero;stroke:none"
         d="m 954.688,606.109 c 1.125,1.348 2.195,2.75 3.269,4.149 -1.07,-1.399 -2.144,-2.797 -3.269,-4.149" /><path
         id="path1861"
         style="fill:#ffffff;fill-opacity:1;fill-rule:nonzero;stroke:none"
         d="m 968.652,626.633 c 1.149,2.031 2.332,4.039 3.383,6.105 -1.051,-2.066 -2.234,-4.074 -3.383,-6.105" /><path
         id="path1863"
         style="fill:#ffffff;fill-opacity:1;fill-rule:nonzero;stroke:none"
         d="m 938.434,589.762 c 0.086,0.07 0.175,0.133 0.257,0.203 -0.082,-0.074 -0.175,-0.133 -0.257,-0.203" /><path
         id="path1865"
         style="fill:#ffffff;fill-opacity:1;fill-rule:nonzero;stroke:none"
         d="m 960.051,712.152 c 0.144,-1.922 0.273,-3.847 0.332,-5.765 -0.059,1.922 -0.188,3.843 -0.332,5.765" /><path
         id="path1867"
         style="fill:#ffffff;fill-opacity:1;fill-rule:nonzero;stroke:none"
         d="m 988.293,714.266 c -0.125,1.675 -0.133,3.347 -0.316,5.023 0.183,-1.676 0.191,-3.348 0.316,-5.023" /><path
         id="path1869"
         style="fill:#ffffff;fill-opacity:1;fill-rule:nonzero;stroke:none"
         d="m 928.402,582.25 c 0.207,0.141 0.418,0.273 0.621,0.41 -0.203,-0.14 -0.414,-0.269 -0.621,-0.41" /><path
         id="path1871"
         style="fill:#ffffff;fill-opacity:1;fill-rule:nonzero;stroke:none"
         d="m 984.895,668.414 c 0.488,2.137 1.054,4.258 1.449,6.418 -0.395,-2.16 -0.957,-4.281 -1.449,-6.418" /><path
         id="path1873"
         style="fill:#ffffff;fill-opacity:1;fill-rule:nonzero;stroke:none"
         d="m 787.984,581.418 c 3.969,-2.605 8.071,-4.914 12.243,-7.039 -4.172,2.125 -8.274,4.434 -12.243,7.039" /><path
         id="path1875"
         style="fill:#ffffff;fill-opacity:1;fill-rule:nonzero;stroke:none"
         d="m 817.855,567.078 c 2.903,-0.965 5.833,-1.808 8.79,-2.555 -2.954,0.747 -5.887,1.594 -8.79,2.555" /><path
         id="path1877"
         style="fill:#ffffff;fill-opacity:1;fill-rule:nonzero;stroke:none"
         d="m 831.398,563.375 c 3.332,-0.707 6.7,-1.23 10.086,-1.66 -3.386,0.43 -6.754,0.957 -10.086,1.66" /><path
         id="path1879"
         style="fill:#ffffff;fill-opacity:1;fill-rule:nonzero;stroke:none"
         d="m 804.246,572.508 c 2.914,-1.356 5.852,-2.633 8.844,-3.762 -2.988,1.125 -5.93,2.406 -8.844,3.762" /><path
         id="path1881"
         style="fill:#ffffff;fill-opacity:1;fill-rule:nonzero;stroke:none"
         d="m 917.984,575.934 c 0.204,0.109 0.407,0.218 0.606,0.332 -0.199,-0.114 -0.402,-0.223 -0.606,-0.332" /><path
         id="path1883"
         style="fill:#ffffff;fill-opacity:1;fill-rule:nonzero;stroke:none"
         d="m 861.863,560.789 c 3.68,0.133 7.36,0.391 11.047,0.852 -3.687,-0.461 -7.367,-0.719 -11.047,-0.852" /><path
         id="path1885"
         style="fill:#ffffff;fill-opacity:1;fill-rule:nonzero;stroke:none"
         d="m 906.742,570.559 c 0.379,0.16 0.746,0.332 1.121,0.492 -0.375,-0.156 -0.742,-0.336 -1.121,-0.492" /><path
         id="path1887"
         style="fill:#ffffff;fill-opacity:1;fill-rule:nonzero;stroke:none"
         d="m 892.059,565.543 c 2.984,0.844 5.906,1.812 8.8,2.859 -2.925,-1.043 -5.855,-2.031 -8.8,-2.859" /><path
         id="path1889"
         style="fill:#ffffff;fill-opacity:1;fill-rule:nonzero;stroke:none"
         d="m 1685.48,1265.64 h -204.4 c -1.16,0 -2.1,-1.05 -2.02,-2.21 3.19,-47.07 26.66,-70.59 70.42,-70.59 15.68,0 29.49,3.92 41.44,11.76 11.38,7.47 18.53,15.61 21.44,24.45 0.26,0.79 0.95,1.31 1.78,1.31 H 1680 c 1.36,0 2.34,-1.38 1.93,-2.68 -20.23,-63.17 -65.68,-94.76 -136.37,-94.76 -42.19,0 -77.19,13.72 -105,41.16 -27.81,27.44 -41.72,63.18 -41.72,107.24 0,47.04 14.37,84.93 43.12,113.68 28.75,28.74 64.4,43.12 106.97,43.12 39.94,0 73.16,-15.22 99.67,-45.64 26.51,-30.44 39.76,-67.86 39.76,-112.28 0,-3.97 -0.29,-8.24 -0.88,-12.79 -0.13,-1 -1,-1.77 -2,-1.77 z m -141.04,112.56 c -13.44,0 -25.2,-2.9 -35.28,-8.68 -10.08,-5.8 -17.55,-13.26 -22.4,-22.4 -4.53,-8.55 -7.28,-17.98 -8.22,-28.3 -0.11,-1.18 0.85,-2.22 2.03,-2.22 h 125.89 c 1.24,0 2.21,1.16 2,2.38 -2.85,16.85 -9.44,30.8 -19.78,41.86 -10.83,11.57 -25.57,17.36 -44.24,17.36" /><path
         id="path1891"
         style="fill:#ffffff;fill-opacity:1;fill-rule:nonzero;stroke:none"
         d="m 1703.67,1432.52 h 76.11 c 1.1,0 1.99,-0.89 1.99,-1.99 v -30.11 c 0,-1.91 2.39,-2.64 3.55,-1.13 10.35,13.49 22.04,23.17 35.09,29.03 14.56,6.52 32.48,9.8 53.76,9.8 32.85,0 58.32,-8.6 76.44,-25.76 18.1,-17.18 27.16,-41.44 27.16,-72.81 v -196.81 c 0,-1.1 -0.89,-1.98 -1.99,-1.98 h -76.11 c -1.09,0 -1.98,0.88 -1.98,1.98 v 180.58 c 0,35.46 -17.18,53.2 -51.52,53.2 -19.42,0 -35,-5.23 -46.76,-15.68 -11.76,-10.46 -17.64,-24.46 -17.64,-42 v -176.1 c 0,-1.1 -0.89,-1.98 -1.99,-1.98 h -76.11 c -1.09,0 -1.98,0.88 -1.98,1.98 v 287.79 c 0,1.1 0.89,1.99 1.98,1.99" /><path
         id="path1893"
         style="fill:#ffffff;fill-opacity:1;fill-rule:nonzero;stroke:none"
         d="m 2162.27,1140.76 h -92.38 c -0.84,0 -1.59,0.53 -1.87,1.32 l -101.08,287.8 c -0.46,1.28 0.5,2.64 1.87,2.64 h 80.31 c 0.86,0 1.63,-0.56 1.89,-1.39 l 64.79,-204.65 c 0.59,-1.87 3.25,-1.84 3.8,0.05 l 59.91,204.56 c 0.24,0.85 1.02,1.43 1.9,1.43 h 80.29 c 1.37,0 2.32,-1.35 1.87,-2.64 l -99.43,-287.79 c -0.27,-0.8 -1.02,-1.33 -1.87,-1.33" /><path
         id="path1895"
         style="fill:#ffffff;fill-opacity:1;fill-rule:nonzero;stroke:none"
         d="m 2349.6,1530.11 v -64.35 c 0,-1.1 -0.89,-1.99 -1.98,-1.99 h -76.11 c -1.1,0 -1.99,0.89 -1.99,1.99 v 64.35 c 0,1.09 0.89,1.98 1.99,1.98 h 76.11 c 1.09,0 1.98,-0.89 1.98,-1.98 z m 0,-99.58 v -287.79 c 0,-1.1 -0.89,-1.98 -1.98,-1.98 h -76.11 c -1.1,0 -1.99,0.88 -1.99,1.98 v 287.79 c 0,1.1 0.89,1.99 1.99,1.99 h 76.11 c 1.09,0 1.98,-0.89 1.98,-1.99" /><path
         id="path1897"
         style="fill:#ffffff;fill-opacity:1;fill-rule:nonzero;stroke:none"
         d="m 2376.23,1432.52 h 76.11 c 1.1,0 1.98,-0.89 1.98,-1.99 v -42.94 c 0,-2.04 2.77,-2.77 3.71,-0.95 4.99,9.67 11.04,18.06 18.13,25.16 8.97,8.96 18.77,15.49 29.41,19.6 10.63,4.1 22.12,6.15 34.44,6.15 3.36,0 6.53,-0.19 9.51,-0.55 v -71.07 c 0,-1.21 -1.11,-2.11 -2.31,-1.94 -8.38,1.25 -15.83,1.89 -22.32,1.89 -47.05,0 -70.57,-22.59 -70.57,-67.76 v -155.38 c 0,-1.1 -0.88,-1.98 -1.98,-1.98 h -76.11 c -1.09,0 -1.98,0.88 -1.98,1.98 v 287.79 c 0,1.1 0.89,1.99 1.98,1.99" /><path
         id="path1899"
         style="fill:#ffffff;fill-opacity:1;fill-rule:nonzero;stroke:none"
         d="m 2692.15,1438.12 c 47.41,0 84.75,-13.72 112,-41.16 27.25,-27.44 40.88,-65.44 40.88,-113.96 0,-46.3 -13.91,-82.98 -41.72,-110.04 -27.81,-27.08 -64.68,-40.6 -110.6,-40.6 -46.67,0 -83.72,13.62 -111.16,40.87 -27.44,27.25 -41.16,64.59 -41.16,112.01 0,47.04 13.72,84.28 41.16,111.72 27.44,27.44 64.31,41.16 110.6,41.16 z m 0.56,-58.24 c -10.83,0 -20.72,-2.24 -29.68,-6.72 -8.96,-4.48 -16.62,-10.93 -22.96,-19.32 -6.35,-8.4 -11.29,-18.48 -14.84,-30.24 -3.55,-11.76 -5.32,-24.56 -5.32,-38.36 0,-18.67 3.08,-35.2 9.24,-49.57 6.16,-14.37 14.74,-25.57 25.76,-33.59 11.01,-8.04 23.61,-12.04 37.8,-12.04 10.45,0 20.25,2.32 29.4,7 9.15,4.66 16.8,11.1 22.96,19.32 6.16,8.2 11.11,18.1 14.84,29.68 3.73,11.57 5.6,24.26 5.6,38.08 0,29.11 -6.63,52.36 -19.88,69.72 -13.25,17.36 -30.9,26.04 -52.92,26.04" /><path
         id="path1901"
         style="fill:#ffffff;fill-opacity:1;fill-rule:nonzero;stroke:none"
         d="m 2861.01,1432.52 h 76.11 c 1.09,0 1.99,-0.89 1.99,-1.99 v -30.11 c 0,-1.91 2.39,-2.64 3.55,-1.13 10.35,13.49 22.04,23.17 35.09,29.03 14.56,6.52 32.48,9.8 53.76,9.8 32.85,0 58.32,-8.6 76.44,-25.76 18.1,-17.18 27.16,-41.44 27.16,-72.81 v -196.81 c 0,-1.1 -0.89,-1.98 -1.99,-1.98 h -76.11 c -1.09,0 -1.98,0.88 -1.98,1.98 v 180.58 c 0,35.46 -17.18,53.2 -51.52,53.2 -19.42,0 -35,-5.23 -46.76,-15.68 -11.76,-10.46 -17.64,-24.46 -17.64,-42 v -176.1 c 0,-1.1 -0.9,-1.98 -1.99,-1.98 h -76.11 c -1.1,0 -1.98,0.88 -1.98,1.98 v 287.79 c 0,1.1 0.88,1.99 1.98,1.99" /><path
         id="path1903"
         style="fill:#ffffff;fill-opacity:1;fill-rule:nonzero;stroke:none"
         d="m 3162.29,1432.52 h 76.11 c 1.1,0 1.98,-0.89 1.98,-1.99 v -30.11 c 0,-1.91 2.4,-2.64 3.56,-1.13 10.35,13.49 22.04,23.17 35.09,29.03 14.56,6.52 32.48,9.8 53.76,9.8 32.84,0 58.32,-8.6 76.44,-25.76 18.1,-17.18 27.16,-41.44 27.16,-72.81 v -196.81 c 0,-1.1 -0.89,-1.98 -1.99,-1.98 h -76.11 c -1.09,0 -1.98,0.88 -1.98,1.98 v 180.58 c 0,35.46 -17.18,53.2 -51.52,53.2 -19.42,0 -35,-5.23 -46.76,-15.68 -11.76,-10.46 -17.65,-24.46 -17.65,-42 v -176.1 c 0,-1.1 -0.88,-1.98 -1.98,-1.98 h -76.11 c -1.09,0 -1.99,0.88 -1.99,1.98 v 287.79 c 0,1.1 0.9,1.99 1.99,1.99" /><path
         id="path1905"
         style="fill:#ffffff;fill-opacity:1;fill-rule:nonzero;stroke:none"
         d="m 3737.02,1265.64 h -204.4 c -1.16,0 -2.1,-1.05 -2.02,-2.21 3.19,-47.07 26.66,-70.59 70.42,-70.59 15.68,0 29.49,3.92 41.44,11.76 11.38,7.47 18.53,15.61 21.44,24.45 0.26,0.79 0.95,1.31 1.78,1.31 h 65.86 c 1.35,0 2.34,-1.38 1.92,-2.68 -20.23,-63.17 -65.67,-94.76 -136.36,-94.76 -42.19,0 -77.19,13.72 -105,41.16 -27.81,27.44 -41.72,63.18 -41.72,107.24 0,47.04 14.37,84.93 43.12,113.68 28.75,28.74 64.4,43.12 106.96,43.12 39.94,0 73.17,-15.22 99.68,-45.64 26.5,-30.44 39.76,-67.86 39.76,-112.28 0,-3.97 -0.29,-8.24 -0.88,-12.79 -0.13,-1 -1,-1.77 -2,-1.77 z m -141.04,112.56 c -13.44,0 -25.2,-2.9 -35.28,-8.68 -10.08,-5.8 -17.55,-13.26 -22.4,-22.4 -4.53,-8.55 -7.28,-17.98 -8.22,-28.3 -0.11,-1.18 0.85,-2.22 2.03,-2.22 H 3658 c 1.24,0 2.21,1.16 2,2.38 -2.85,16.85 -9.44,30.8 -19.78,41.86 -10.83,11.57 -25.58,17.36 -44.24,17.36" /><path
         id="path1907"
         style="fill:#ffffff;fill-opacity:1;fill-rule:nonzero;stroke:none"
         d="m 3755.32,1432.52 h 75.56 c 1.09,0 1.98,-0.89 1.98,-1.99 v -24.93 c 0,-1.8 2.18,-2.58 3.41,-1.27 7.52,7.96 15.25,14.37 23.19,19.23 9.14,5.6 18.2,9.32 27.16,11.2 8.96,1.86 19.22,2.79 30.8,2.79 17.92,0 34.53,-3.91 49.84,-11.75 14.38,-7.37 25.31,-17.22 32.78,-29.54 0.69,-1.16 2.26,-1.26 3.11,-0.21 22.56,27.67 52.03,41.5 88.43,41.5 19.78,0 36.96,-3.17 51.52,-9.51 14.56,-6.36 25.94,-16.16 34.16,-29.4 8.21,-13.26 12.32,-29.41 12.32,-48.44 v -207.46 c 0,-1.1 -0.89,-1.98 -1.99,-1.98 h -75.55 c -1.09,0 -1.98,0.88 -1.98,1.98 v 195.7 c 0,11.56 -3.92,20.8 -11.76,27.72 -7.84,6.9 -18.48,10.36 -31.92,10.36 -11.2,0 -20.91,-2.25 -29.12,-6.72 -8.22,-4.48 -14.56,-11.12 -19.05,-19.88 -4.47,-8.78 -6.71,-19.14 -6.71,-31.08 v -176.1 c 0,-1.1 -0.89,-1.98 -1.99,-1.98 h -76.11 c -1.09,0 -1.98,0.88 -1.98,1.98 v 195.7 c 0,11.56 -3.83,20.8 -11.48,27.72 -7.65,6.9 -18.2,10.36 -31.64,10.36 -11.2,0 -21,-2.25 -29.4,-6.72 -8.4,-4.48 -14.76,-11.12 -19.04,-19.88 -4.3,-8.78 -6.44,-19.14 -6.44,-31.08 v -176.1 c 0,-1.1 -0.89,-1.98 -1.99,-1.98 h -76.11 c -1.09,0 -1.98,0.88 -1.98,1.98 v 287.79 c 0,1.1 0.89,1.99 1.98,1.99" /><path
         id="path1909"
         style="fill:#ffffff;fill-opacity:1;fill-rule:nonzero;stroke:none"
         d="m 4487.98,1265.64 h -204.41 c -1.16,0 -2.09,-1.05 -2.02,-2.21 3.2,-47.07 26.67,-70.59 70.43,-70.59 15.68,0 29.48,3.92 41.44,11.76 11.38,7.47 18.53,15.61 21.44,24.45 0.26,0.79 0.95,1.31 1.78,1.31 h 65.86 c 1.35,0 2.34,-1.38 1.92,-2.68 -20.23,-63.17 -65.67,-94.76 -136.37,-94.76 -42.19,0 -77.19,13.72 -105,41.16 -27.81,27.44 -41.71,63.18 -41.71,107.24 0,47.04 14.37,84.93 43.12,113.68 28.74,28.74 64.4,43.12 106.96,43.12 39.94,0 73.16,-15.22 99.68,-45.64 26.5,-30.44 39.76,-67.86 39.76,-112.28 0,-3.97 -0.3,-8.24 -0.88,-12.79 -0.13,-1 -1,-1.77 -2,-1.77 z m -141.04,112.56 c -13.44,0 -25.2,-2.9 -35.28,-8.68 -10.09,-5.8 -17.55,-13.26 -22.4,-22.4 -4.53,-8.55 -7.28,-17.98 -8.22,-28.3 -0.11,-1.18 0.84,-2.22 2.02,-2.22 h 125.9 c 1.24,0 2.21,1.16 2,2.38 -2.85,16.85 -9.44,30.8 -19.78,41.86 -10.84,11.57 -25.58,17.36 -44.24,17.36" /><path
         id="path1911"
         style="fill:#ffffff;fill-opacity:1;fill-rule:nonzero;stroke:none"
         d="m 4506.17,1432.52 h 76.11 c 1.09,0 1.98,-0.89 1.98,-1.99 v -30.11 c 0,-1.91 2.39,-2.64 3.56,-1.13 10.34,13.49 22.04,23.17 35.08,29.03 14.56,6.52 32.48,9.8 53.76,9.8 32.85,0 58.33,-8.6 76.45,-25.76 18.09,-17.18 27.15,-41.44 27.15,-72.81 v -196.81 c 0,-1.1 -0.88,-1.98 -1.98,-1.98 h -76.11 c -1.1,0 -1.99,0.88 -1.99,1.98 v 180.58 c 0,35.46 -17.17,53.2 -51.52,53.2 -19.41,0 -35,-5.23 -46.76,-15.68 -11.76,-10.46 -17.64,-24.46 -17.64,-42 v -176.1 c 0,-1.1 -0.89,-1.98 -1.98,-1.98 h -76.11 c -1.1,0 -1.99,0.88 -1.99,1.98 v 287.79 c 0,1.1 0.89,1.99 1.99,1.99" /><path
         id="path1913"
         style="fill:#ffffff;fill-opacity:1;fill-rule:nonzero;stroke:none"
         d="m 4944.9,1429.97 v -48.11 c 0,-1.09 -0.89,-1.98 -1.99,-1.98 h -40.82 c -1.1,0 -1.99,-0.89 -1.99,-1.99 v -152.57 c 0,-13.08 1.77,-21.76 5.32,-26.05 3.54,-4.29 10.54,-6.43 21.01,-6.43 4.02,0 9.41,0.45 16.15,1.36 1.19,0.15 2.32,-0.75 2.32,-1.95 v -49.98 c 0,-0.89 -0.56,-1.69 -1.42,-1.95 -12.77,-3.81 -27.78,-5.72 -45.06,-5.72 -51.89,0 -77.84,23.33 -77.84,70 v 173.29 c 0,1.1 -0.89,1.99 -1.99,1.99 h -35.78 c -1.1,0 -1.99,0.89 -1.99,1.98 v 48.11 c 0,1.1 0.89,1.99 1.99,1.99 h 35.78 c 1.1,0 1.99,0.88 1.99,1.98 v 74.99 c 0,1.1 0.89,1.99 1.98,1.99 h 75.56 c 1.09,0 1.98,-0.89 1.98,-1.99 v -74.99 c 0,-1.1 0.89,-1.98 1.99,-1.98 h 40.82 c 1.1,0 1.99,-0.89 1.99,-1.99" /></g></g></svg>
