<svg width="390" height="460" viewBox="0 0 390 460" fill="none" xmlns="http://www.w3.org/2000/svg">
<g opacity="0.2" clip-path="url(#clip0_685_8267)">
<path opacity="0.35" d="M435.4 460C432.977 455.205 430.553 450.512 428.158 445.786C370.816 335.05 301.812 277.952 233.378 284.392C168.509 290.591 106.063 355.293 52.2285 459.932H435.4V460Z" fill="#29CDF7"/>
<path opacity="0.35" d="M578.626 368.856C529.81 238.46 472.44 99.4669 406.858 132.691C360.579 156.119 330.126 285.316 289.408 348.237C236.515 429.893 195.055 325.596 147.722 255.449C83.8506 160.914 4.9522 186.637 -51.9904 320.527C-69.6121 362.006 -86.4639 414.24 -104 458.664H578.626V368.856Z" fill="#29CDF7"/>
<path opacity="0.35" d="M874.859 310.046C868.7 307.614 862.598 307.238 857.095 308.608C836.279 313.574 816.548 338.818 797.358 364.986C778.168 391.154 758.892 418.727 738.277 429.139C669.501 463.802 612.615 308.231 549.086 258.086C491.516 212.669 430.524 251.921 374.637 314.739C317.751 378.618 259.012 468.323 199.874 430.133C158.244 403.245 123.4 316.211 84.9341 259.011C16.757 157.489 -55.6401 159.75 -126.212 208.867V480.208H874.859V310.046Z" fill="#29CDF7"/>
</g>
<defs>
<clipPath id="clip0_685_8267">
<rect width="639" height="460" fill="white" transform="translate(-104)"/>
</clipPath>
</defs>
</svg>
