<svg xmlns="http://www.w3.org/2000/svg" width="34" height="34" viewBox="0 0 34 34">
    <g fill="none" fill-rule="evenodd">
        <g fill="#FFF" fill-rule="nonzero">
            <g>
                <g>
                    <path d="M17.53 7.246c-.319-.033-.642-.05-.97-.05-5.164 0-9.364 4.2-9.364 9.364 0 5.163 4.2 9.364 9.364 9.364.328 0 .651-.017.97-.05 4.71-.487 8.395-4.478 8.395-9.314S22.24 7.733 17.53 7.246zm0 16.674V9.2c3.637.477 6.454 3.595 6.454 7.36s-2.817 6.883-6.454 7.36zM16.56 5.792c.536 0 .97-.434.97-.97V.97c0-.536-.434-.97-.97-.97s-.97.434-.97.97v3.852c0 .536.434.97.97.97zM16.56 27.328c-.536 0-.97.434-.97.97v3.852c0 .536.434.97.97.97s.97-.434.97-.97v-3.852c0-.536-.434-.97-.97-.97zM5.792 16.56c0-.536-.434-.97-.97-.97H.97c-.536 0-.97.434-.97.97s.434.97.97.97h3.852c.536 0 .97-.434.97-.97zM32.15 15.59h-3.852c-.536 0-.97.434-.97.97s.434.97.97.97h3.852c.536 0 .97-.434.97-.97s-.434-.97-.97-.97zM7.341 8.713c.19.19.438.284.686.284.248 0 .497-.094.686-.284.379-.379.379-.993 0-1.372l-2.8-2.8c-.379-.379-.993-.379-1.372 0-.379.379-.379.993 0 1.372l2.8 2.8zM25.779 24.407c-.379-.38-.993-.38-1.372 0-.379.379-.379.993 0 1.372l2.8 2.8c.19.19.438.284.686.284.248 0 .496-.094.686-.284.379-.379.379-.993 0-1.372l-2.8-2.8zM7.341 24.407l-2.8 2.8c-.379.379-.379.993 0 1.372.19.19.438.284.686.284.248 0 .497-.094.686-.284l2.8-2.8c.379-.379.379-.993 0-1.372-.379-.38-.993-.38-1.372 0zM25.093 8.997c.248 0 .496-.094.686-.284l2.8-2.8c.379-.379.379-.993 0-1.372-.379-.379-.993-.379-1.372 0l-2.8 2.8c-.38.379-.38.993 0 1.372.19.19.438.284.686.284z" transform="translate(-337 -39) translate(168 25) translate(169 14)"/>
                </g>
            </g>
        </g>
    </g>
</svg>
