<?xml version="1.0" encoding="UTF-8" standalone="no"?>
<svg
   xmlns:dc="http://purl.org/dc/elements/1.1/"
   xmlns:cc="http://creativecommons.org/ns#"
   xmlns:rdf="http://www.w3.org/1999/02/22-rdf-syntax-ns#"
   xmlns:svg="http://www.w3.org/2000/svg"
   xmlns="http://www.w3.org/2000/svg"
   xmlns:sodipodi="http://sodipodi.sourceforge.net/DTD/sodipodi-0.dtd"
   xmlns:inkscape="http://www.inkscape.org/namespaces/inkscape"
   inkscape:version="1.0 (4035a4f, 2020-05-01)"
   sodipodi:docname="ibge-bim.svg"
   version="1.1"
   id="svg927"
   xml:space="preserve"
   width="514.66669"
   height="261.33334"
   viewBox="0 0 514.66669 261.33334">
   <metadata
     id="metadata933"><rdf:RDF><cc:Work
         rdf:about=""><dc:format>image/svg+xml</dc:format><dc:type
           rdf:resource="http://purl.org/dc/dcmitype/StillImage" /><dc:title /></cc:Work></rdf:RDF></metadata><defs
     id="defs931" /><path
     d="m 180.58133,121.46 c 7.488,-5.66933 12.49867,-15.80933 12.49867,-27.418666 0,-17.791999 -11.73734,-32.218666 -26.212,-32.218666 -1.128,0 -2.23067,0.113334 -3.32134,0.288 C 154.2,48.412002 133.348,45.385335 115.34013,55.650668 99.314531,64.781335 90.685464,81.509334 93.289064,96.022667 79.811998,101.06667 72.001598,115.484 75.695331,129.3 c 3.037467,11.34947 12.957333,18.89213 24.206267,19.6292 4.883862,5.9604 13.581202,9.93747 23.528662,9.93747 5.93694,0 11.4044,-1.4292 15.90307,-3.836 l -5.84267,48.43186 20.964,-0.81467 c 0,0 -0.56,-37.55986 2.59067,-56.45986 3.18,3.024 7.57067,4.9188 12.444,4.9188 9.71733,0 17.59467,-7.47613 17.59467,-16.69227 0,-5.22906 -2.53467,-9.88386 -6.50267,-12.95453"
     style="fill:#ffffff;fill-opacity:1;fill-rule:nonzero;stroke:none;stroke-width:0.133333"
     id="path941" /><path
     d="m 149.68933,152.96253 c 0,0 -29.81907,22.0896 -51.609599,-2.7104 0,0 -28.173999,2.81614 -27.220933,-28.6668 0.556267,-18.33333 19.581333,-26.783996 19.581333,-26.783996 0,0 -3.300533,-33.003999 32.199999,-45.610665 28.94653,-10.284 43.5532,5.918666 46.7852,11.394666 0,0 31.13333,-5.525333 34.94266,28.083999 3.04267,26.925336 -23.06266,34.970666 -20.92533,34.861336 0,0 17.544,12.67093 6.868,24.836 -10.672,12.15986 -24.80933,-1.40787 -29.788,-6.564 l -3.89333,59.41346 c -6.26133,0.36773 -12.53467,0.85213 -18.76933,1.44013 z M 49.223999,220.224 222.06933,201.83746 c -19.58934,-1.66813 -40.584,-1.90573 -61.68267,-0.82706 0.124,-9.3052 0.728,-31.90627 3.65867,-48.8516 3.81333,3.50787 9.084,5.68813 14.91733,5.68813 11.65067,0 21.1,-8.64173 21.1,-19.3 0,-6.04426 -3.044,-11.43493 -7.79866,-14.9736 8.97466,-6.56 14.98666,-18.292 14.98666,-31.714662 0,-20.58 -14.07733,-37.261333 -31.42533,-37.261333 -1.35333,0 -2.68133,0.136 -3.98533,0.334667 -11.208,-15.844 -36.20134,-19.346666 -57.8056,-7.477333 -19.211469,10.565333 -29.556269,29.911999 -26.427602,46.693332 -16.163066,5.838666 -25.530266,22.506669 -21.0984,38.481199 3.638934,13.13333 15.532267,21.85467 29.016666,22.70827 5.862936,6.88386 16.288936,11.48906 28.216666,11.48906 7.114,0 13.67027,-1.65466 19.0636,-4.42813 l -6.72667,40.42973 C 104.774,205.91973 74.375998,211.8412 49.223999,220.224"
     style="fill:#ffffff;fill-opacity:1;fill-rule:nonzero;stroke:none;stroke-width:0.133333"
     id="path943" /><path
     d="m 254.74666,74.889335 c 0,-3.256 -1.35733,-4.373334 -3.528,-4.373334 -2.14,0 -3.73867,1.117334 -3.73867,4.584 0,2.954667 1.44667,4.733334 3.55734,4.733334 2.232,0 3.70933,-1.748 3.70933,-4.944 z m -7.05467,-9.166667 c 0,1.537334 -0.0613,2.02 -0.0613,2.533333 0,0.541334 0.0613,0.662667 0.30133,0.662667 0.512,0 1.116,-2.170666 4.91467,-2.170666 3.82933,0 6.24133,2.743999 6.24133,8.050666 0,4.854667 -2.472,8.261333 -6.48133,8.261333 -4.73467,0 -4.704,-2.833333 -5.27733,-2.833333 -0.272,0 -0.24134,0.210667 -0.48267,1.446666 -0.18,0.934667 -0.784,1.176 -1.80933,1.176 -1.32667,0 -1.71867,-0.544 -1.71867,-1.538666 0,-2.381333 -0.0293,-8.350667 -0.0293,-18.693333 0,-1.145333 0.54266,-1.688 2.26133,-1.688 1.89867,0 2.14133,0.632 2.14133,1.688 v 3.105333"
     style="fill:#ffffff;fill-opacity:1;fill-rule:nonzero;stroke:none;stroke-width:0.133333"
     id="path945" /><path
     d="m 265.24533,81.310668 c 0,1.085333 -0.424,1.598666 -2.14134,1.598666 -1.59866,0 -2.172,-0.482666 -2.172,-1.598666 0,-7.989333 0.12134,-11.698667 0.12134,-12.724 0,-0.994666 0.392,-1.326666 1.65733,-1.326666 1.26667,0 1.56933,0.332 1.75067,1.478666 0.14933,1.024 0.24,1.176 0.452,1.176 0.512,0 1.05466,-2.654666 4.16,-2.654666 1.236,0 1.78,0.453333 1.78,1.779999 0,1.114667 -0.212,2.110667 -1.74934,2.110667 -2.53333,0 -3.85866,1.506667 -3.85866,4.552 v 5.608"
     style="fill:#ffffff;fill-opacity:1;fill-rule:nonzero;stroke:none;stroke-width:0.133333"
     id="path947" /><path
     d="m 284.96666,82.849334 c -1.328,0 -1.71867,-0.544 -1.93067,-1.477333 -0.15066,-0.664 -0.15066,-1.236 -0.42266,-1.236 -0.512,0 -0.66267,3.105333 -4.97467,3.105333 -3.528,0 -5.24667,-2.201333 -5.24667,-6.634666 0,-4.824 -0.0307,-2.592 -0.0307,-7.929333 0,-0.994667 0.42266,-1.506667 2.14133,-1.506667 1.53733,0 2.172,0.270667 2.172,1.446667 0,0.542666 -0.0613,5.428 -0.0613,6.965333 0,2.653333 0.99466,3.98 2.744,3.98 2.14133,0 3.196,-1.658667 3.196,-4.976 0,-3.737333 -0.06,-5.034667 -0.06,-6 0,-0.934666 0.54266,-1.326666 2.14133,-1.326666 1.53733,0 2.22933,0.272 2.22933,1.387999 0,1.809334 -0.0893,11.578667 -0.0893,12.602667 0,0.996 -0.54267,1.598666 -1.808,1.598666"
     style="fill:#ffffff;fill-opacity:1;fill-rule:nonzero;stroke:none;stroke-width:0.133333"
     id="path949" /><path
     d="m 296.18666,77.633335 c -0.12133,-0.242667 -0.212,-0.302667 -0.42267,-0.302667 -0.21066,0 -0.332,0.03067 -0.452,0.302667 l -2.50266,4.250666 c -0.42267,0.813333 -0.724,1.085333 -1.80934,1.085333 -0.75333,0 -0.93466,-0.02933 -1.68933,-0.02933 -0.632,0 -0.93333,-0.362667 -0.93333,-0.754667 0,-0.512 0.24133,-0.963999 1.41733,-2.502666 1.08533,-1.446667 1.83867,-2.472 2.35067,-3.225333 0.544,-0.784 0.724,-1.146667 0.724,-1.598667 0,-0.392 -0.06,-0.542667 -0.75334,-1.568 -1.176,-1.748 -2.50266,-3.618667 -3.016,-4.372 -0.3,-0.421333 -0.42133,-0.782667 -0.42133,-1.085333 0,-0.421333 0.272,-0.662667 0.784,-0.662667 h 1.86933 c 0.90534,0 1.32667,0.301334 1.808,1.205333 0.57334,1.056 1.29734,2.533334 1.62934,3.136 0.452,0.844 0.75466,1.386667 0.99466,1.386667 0.36267,0 0.724,-0.844 2.59334,-4.341333 0.512,-0.965333 0.724,-1.297333 1.748,-1.297333 h 2.02133 c 0.48133,0 0.66267,0.242666 0.66267,0.573333 0,0.542666 -0.36267,0.964 -0.93467,1.869333 -0.452,0.693333 -0.87467,1.266667 -1.35733,1.990667 -1.296,1.929333 -1.92934,2.472 -1.92934,3.045333 0,0.421333 0.0907,0.632 1.688,2.985333 1.176,1.718667 2.14134,2.893334 2.47334,3.346667 0.42133,0.572 0.57333,0.813333 0.57333,1.205333 0,0.392 -0.272,0.693333 -1.176,0.693333 -0.484,0 -0.90533,-0.02933 -1.59867,-0.02933 -1.11466,0 -1.41733,-0.272 -1.83866,-1.116 l -2.50267,-4.190666"
     style="fill:#ffffff;fill-opacity:1;fill-rule:nonzero;stroke:none;stroke-width:0.133333"
     id="path951" /><path
     d="m 315.18666,73.352001 c 0.572,0 0.75333,-0.212 0.75333,-0.694666 0,-1.114667 -1.056,-2.622667 -3.61866,-2.622667 -2.65334,0 -3.708,1.628 -3.708,2.684 0,0.452 0.12133,0.633333 0.66266,0.633333 z m -3.016,9.858667 c -4.79333,0 -7.77867,-3.256 -7.77867,-8.412 0,-4.613333 2.804,-7.9 7.80934,-7.9 4.704,0 7.38666,2.322667 7.38666,6.453333 0,1.808 -0.572,2.169334 -1.748,2.169334 -0.84533,0 -7.92933,-0.02933 -8.624,-0.02933 -0.66266,0 -0.724,0.301334 -0.724,0.784 0,2.050667 1.568,3.588 3.86,3.588 3.76934,0 3.07467,-2.442666 5.27734,-2.442666 0.784,0 1.50666,0.542666 1.50666,1.568 0,1.508 -1.86933,4.221333 -6.96533,4.221333"
     style="fill:#ffffff;fill-opacity:1;fill-rule:nonzero;stroke:none;stroke-width:0.133333"
     id="path953" /><path
     d="m 321.70266,62.557335 c 0,-1.054667 0.57333,-1.628 2.14133,-1.628 1.448,0 2.05067,0.361333 2.05067,1.688 0,1.778667 -0.12133,15.106666 -0.12133,16.582666 0,0.573334 0.12133,0.784 0.51333,0.784 0.21067,0 0.36133,-0.06 0.69333,-0.06 0.784,0 1.176,0.482667 1.176,1.386667 0,1.266666 -0.87466,1.930666 -2.71333,1.930666 -2.532,0 -3.74,-1.538666 -3.74,-3.829333 V 62.557335"
     style="fill:#ffffff;fill-opacity:1;fill-rule:nonzero;stroke:none;stroke-width:0.133333"
     id="path955" /><path
     d="m 329.42266,62.557335 c 0,-1.054667 0.57333,-1.628 2.14133,-1.628 1.448,0 2.05067,0.361333 2.05067,1.688 0,1.778667 -0.12134,15.106666 -0.12134,16.582666 0,0.573334 0.12134,0.784 0.51334,0.784 0.21066,0 0.36133,-0.06 0.69333,-0.06 0.784,0 1.176,0.482667 1.176,1.386667 0,1.266666 -0.87467,1.930666 -2.71333,1.930666 -2.532,0 -3.74,-1.538666 -3.74,-3.829333 V 62.557335"
     style="fill:#ffffff;fill-opacity:1;fill-rule:nonzero;stroke:none;stroke-width:0.133333"
     id="path957" /><path
     d="m 347.30532,73.352001 c 0.57334,0 0.75467,-0.212 0.75467,-0.694666 0,-1.114667 -1.056,-2.622667 -3.61867,-2.622667 -2.65333,0 -3.708,1.628 -3.708,2.684 0,0.452 0.12134,0.633333 0.66267,0.633333 z m -3.01466,9.858667 c -4.79334,0 -7.77867,-3.256 -7.77867,-8.412 0,-4.613333 2.804,-7.9 7.80933,-7.9 4.704,0 7.38667,2.322667 7.38667,6.453333 0,1.808 -0.572,2.169334 -1.748,2.169334 -0.84533,0 -7.93067,-0.02933 -8.624,-0.02933 -0.66267,0 -0.724,0.301334 -0.724,0.784 0,2.050667 1.568,3.588 3.86,3.588 3.76933,0 3.07467,-2.442666 5.27733,-2.442666 0.78267,0 1.50534,0.542666 1.50534,1.568 0,1.508 -1.868,4.221333 -6.964,4.221333"
     style="fill:#ffffff;fill-opacity:1;fill-rule:nonzero;stroke:none;stroke-width:0.133333"
     id="path959" /><path
     d="m 360.36399,80.136001 c 2.11067,0 2.684,-0.754666 2.684,-1.508 0,-1.056 -0.964,-1.297333 -4.432,-1.869333 -4.34133,-0.724 -5.24667,-2.622667 -5.24667,-4.733333 0,-3.498667 3.31734,-5.096 6.724,-5.096 4.644,0 6.60267,2.02 6.60267,4.190666 0,1.025334 -0.724,1.568 -1.95867,1.568 -0.844,0 -1.32666,-0.542666 -1.568,-0.964 -0.69466,-1.177333 -1.65866,-1.629333 -3.10533,-1.629333 -1.71867,0 -2.684,0.542667 -2.684,1.629333 0,1.145334 0.512,1.688 3.92,2.290667 5.00533,0.874667 5.90933,2.290667 5.90933,4.432 0,2.593333 -2.232,4.794666 -7.26666,4.794666 -4.97467,0 -6.75334,-2.593333 -6.75334,-4.101333 0,-1.085333 0.45067,-1.597333 1.50667,-1.597333 1.93067,0 1.628,2.593333 5.668,2.593333"
     style="fill:#ffffff;fill-opacity:1;fill-rule:nonzero;stroke:none;stroke-width:0.133333"
     id="path961" /><path
     d="m 253.41999,101.12533 c 0.57334,0 0.75334,-0.21066 0.75334,-0.69333 0,-1.115999 -1.05467,-2.623999 -3.61734,-2.623999 -2.65333,0 -3.70933,1.629333 -3.70933,2.683999 0,0.45333 0.12133,0.63333 0.664,0.63333 z m -3.01466,9.86 c -4.79467,0 -7.78,-3.25733 -7.78,-8.412 0,-4.613329 2.804,-7.899996 7.80933,-7.899996 4.704,0 7.38667,2.321333 7.38667,6.451996 0,1.80934 -0.572,2.17067 -1.748,2.17067 -0.844,0 -7.93067,-0.0293 -8.624,-0.0293 -0.66267,0 -0.72267,0.30133 -0.72267,0.78266 0,2.05067 1.568,3.58934 3.85867,3.58934 3.76933,0 3.076,-2.44267 5.276,-2.44267 0.784,0 1.508,0.54267 1.508,1.568 0,1.508 -1.86934,4.22133 -6.964,4.22133"
     style="fill:#ffffff;fill-opacity:1;fill-rule:nonzero;stroke:none;stroke-width:0.133333"
     id="path963" /><path
     d="m 272.11733,110.62267 c -1.71734,0 -2.23067,-0.0907 -2.23067,-1.296 0,-0.54267 0.0893,-5.488 0.0893,-6.996 0,-2.682669 -0.692,-4.009336 -2.83333,-4.009336 -1.78,0 -3.136,1.506667 -3.136,4.251996 0,3.648 0.0307,5.54667 0.0307,6.60267 0,1.32667 -0.512,1.47733 -2.26134,1.47733 -1.47733,0 -2.08133,-0.30133 -2.08133,-1.448 0,-7.98933 0.092,-11.789329 0.092,-12.783996 0,-1.025333 0.392,-1.386667 1.65733,-1.386667 1.14534,0 1.47734,0.212 1.74934,1.446667 0.18,0.876 0.30133,1.025333 0.48266,1.025333 0.54267,0 0.87334,-2.833333 5.06534,-2.833333 3.04533,0 5.42666,1.869333 5.42666,6.391996 0,4.79467 0.0907,2.864 0.0907,8.17067 0,1.08533 -0.54267,1.38667 -2.14133,1.38667"
     style="fill:#ffffff;fill-opacity:1;fill-rule:nonzero;stroke:none;stroke-width:0.133333"
     id="path965" /><path
     d="m 288.94666,95.034667 c 0.664,0 0.99467,0.332 0.99467,0.934667 0,0.272 -0.06,0.573333 -0.18,0.904 -0.30134,0.905333 -0.54267,1.84 -1.9,5.789336 -1.296,3.76933 -1.53734,4.37333 -1.89867,5.45733 -0.724,2.08133 -1.47867,2.684 -3.10533,2.684 -2.02134,0 -2.53334,-0.63333 -3.25734,-2.744 -0.36133,-1.05467 -0.452,-1.26667 -1.86933,-5.548 -0.57333,-1.71867 -1.20533,-3.437333 -1.53733,-4.462666 -0.42267,-1.234667 -0.512,-1.628 -0.512,-2.14 0,-0.482667 0.27066,-0.874667 0.99466,-0.874667 h 1.44667 c 0.90533,0 1.32667,0.392 1.53733,1.266667 0.30267,0.994667 0.60267,1.96 1.23734,4.250666 1.53733,5.57867 1.476,5.75867 2.04933,5.75867 0.392,0 0.45333,-0.45067 1.26667,-3.436 0.724,-2.71334 1.38666,-5.337336 1.68933,-6.604003 0.21067,-0.934666 0.752,-1.236 1.65733,-1.236 h 1.38667"
     style="fill:#ffffff;fill-opacity:1;fill-rule:nonzero;stroke:none;stroke-width:0.133333"
     id="path967" /><path
     d="m 293.77466,110.77333 c -1.688,0 -2.2,-0.42133 -2.2,-1.568 0,-0.784 0.0893,-11.005329 0.0893,-12.662663 0,-1.116 0.30267,-1.508 2.11067,-1.508 1.568,0 2.02133,0.572 2.02133,1.689334 0,1.808 0.0293,11.094669 0.0293,12.602669 0,1.116 -0.36134,1.44666 -2.05067,1.44666 z m -0.06,-17.426662 c -1.628,0 -2.624,-1.056 -2.624,-2.502667 0,-1.448 0.84533,-2.653333 2.59467,-2.653333 1.92933,0 2.71333,1.176 2.71333,2.834666 0,1.326667 -1.176,2.321334 -2.684,2.321334"
     style="fill:#ffffff;fill-opacity:1;fill-rule:nonzero;stroke:none;stroke-width:0.133333"
     id="path969" /><path
     d="m 302.73199,109.08533 c 0,1.08534 -0.424,1.59734 -2.14133,1.59734 -1.59867,0 -2.172,-0.48134 -2.172,-1.59734 0,-7.99066 0.12133,-11.698663 0.12133,-12.723996 0,-0.994667 0.392,-1.326667 1.65734,-1.326667 1.268,0 1.56933,0.332 1.75066,1.477334 0.14934,1.025333 0.24134,1.176 0.452,1.176 0.51334,0 1.05467,-2.653334 4.16,-2.653334 1.23734,0 1.78,0.452 1.78,1.78 0,1.114667 -0.21066,2.109334 -1.74933,2.109334 -2.53333,0 -3.85867,1.507999 -3.85867,4.553329 v 5.608"
     style="fill:#ffffff;fill-opacity:1;fill-rule:nonzero;stroke:none;stroke-width:0.133333"
     id="path971" /><path
     d="m 320.73466,103.176 c 0,-2.624 -0.87333,-4.763999 -4.07067,-4.763999 -2.744,0 -3.73866,2.321329 -3.73866,4.763999 0,2.56267 1.236,4.34133 3.86,4.34133 2.65333,0 3.94933,-2.11066 3.94933,-4.34133 z m -11.84933,-0.24133 c 0,-5.366669 2.65333,-8.201336 7.80933,-8.261336 5.096,0 7.96,2.653333 7.96,8.201336 0,4.28133 -2.804,8.11066 -7.78,8.11066 -4.91333,0 -7.98933,-3.136 -7.98933,-8.05066"
     style="fill:#ffffff;fill-opacity:1;fill-rule:nonzero;stroke:none;stroke-width:0.133333"
     id="path973" /><path
     d="m 339.03999,110.62267 c -1.71733,0 -2.23067,-0.0907 -2.23067,-1.296 0,-0.54267 0.0907,-5.488 0.0907,-6.996 0,-2.682669 -0.69333,-4.009336 -2.83333,-4.009336 -1.78,0 -3.13733,1.506667 -3.13733,4.251996 0,3.648 0.032,5.54667 0.032,6.60267 0,1.32667 -0.51334,1.47733 -2.26267,1.47733 -1.47733,0 -2.08,-0.30133 -2.08,-1.448 0,-7.98933 0.0907,-11.789329 0.0907,-12.783996 0,-1.025333 0.392,-1.386667 1.65733,-1.386667 1.14667,0 1.47867,0.212 1.74933,1.446667 0.18134,0.876 0.30134,1.025333 0.48267,1.025333 0.54267,0 0.87333,-2.833333 5.06533,-2.833333 3.04533,0 5.42667,1.869333 5.42667,6.391996 0,4.79467 0.092,2.864 0.092,8.17067 0,1.08533 -0.544,1.38667 -2.14267,1.38667"
     style="fill:#ffffff;fill-opacity:1;fill-rule:nonzero;stroke:none;stroke-width:0.133333"
     id="path975" /><path
     d="m 355.89999,110.62267 c -1.71733,0 -2.23067,-0.0907 -2.23067,-1.296 0,-0.54267 0.0893,-5.488 0.0893,-6.996 0,-2.682669 -0.692,-4.009336 -2.83334,-4.009336 -1.78,0 -3.136,1.506667 -3.136,4.251996 0,3.648 0.0307,5.54667 0.0307,6.60267 0,1.32667 -0.51333,1.47733 -2.26133,1.47733 -1.47734,0 -2.08134,-0.30133 -2.08134,-1.448 0,-7.98933 0.092,-11.789329 0.092,-12.783996 0,-1.025333 0.392,-1.386667 1.65734,-1.386667 1.14533,0 1.47733,0.212 1.748,1.446667 0.18133,0.876 0.30266,1.025333 0.484,1.025333 0.54266,0 0.87333,-2.833333 5.06533,-2.833333 3.04533,0 5.42667,1.869333 5.42667,6.391996 0,4.79467 0.0907,2.864 0.0907,8.17067 0,1.08533 -0.54266,1.38667 -2.14133,1.38667"
     style="fill:#ffffff;fill-opacity:1;fill-rule:nonzero;stroke:none;stroke-width:0.133333"
     id="path977" /><path
     d="m 370.73999,101.12533 c 0.572,0 0.75333,-0.21066 0.75333,-0.69333 0,-1.115999 -1.056,-2.623999 -3.61866,-2.623999 -2.65334,0 -3.708,1.629333 -3.708,2.683999 0,0.45333 0.12133,0.63333 0.66266,0.63333 z m -3.016,9.86 c -4.79333,0 -7.77867,-3.25733 -7.77867,-8.412 0,-4.613329 2.80534,-7.899996 7.80934,-7.899996 4.704,0 7.38666,2.321333 7.38666,6.451996 0,1.80934 -0.572,2.17067 -1.748,2.17067 -0.84533,0 -7.92933,-0.0293 -8.624,-0.0293 -0.66266,0 -0.724,0.30133 -0.724,0.78266 0,2.05067 1.568,3.58934 3.86,3.58934 3.76934,0 3.07467,-2.44267 5.27734,-2.44267 0.784,0 1.50666,0.54267 1.50666,1.568 0,1.508 -1.86933,4.22133 -6.96533,4.22133"
     style="fill:#ffffff;fill-opacity:1;fill-rule:nonzero;stroke:none;stroke-width:0.133333"
     id="path979" /><path
     d="m 381.26532,109.416 c 0,0.69467 -0.27066,1.23733 -2.26133,1.23733 -1.236,0 -1.96,-0.24133 -1.96,-1.38666 0,-8.05067 0.092,-11.820003 0.092,-12.814669 0,-1.025334 0.45067,-1.446667 1.77867,-1.446667 1.11466,0 1.356,0.361333 1.62666,1.476 0.18134,0.754667 0.332,0.814667 0.51334,0.814667 0.452,0 0.844,-2.653333 4.372,-2.653333 3.94933,0 3.92,2.834666 4.704,2.834666 0.69333,0 1.14533,-2.834666 5.064,-2.834666 2.80533,0 5.33733,1.658666 5.33733,6.000002 0,4.79466 0.0907,6.24133 0.0907,8.26133 0,1.29733 -0.42267,1.71867 -2.10934,1.71867 -1.78,0 -2.08133,-0.48267 -2.08133,-1.47734 0,-0.54266 0.06,-5.30666 0.06,-6.81466 0,-2.713336 -0.724,-3.978669 -2.77333,-3.978669 -1.388,0 -2.804,1.174666 -2.804,3.466669 0,4.644 0.0293,1.92933 0.0293,7.26666 0,0.964 -0.0293,1.53734 -2.11067,1.53734 -1.44666,0 -2.02,-0.33067 -2.02,-1.508 0,-0.54134 0.06,-5.276 0.06,-6.784 0,-2.713336 -0.66266,-4.040003 -2.71333,-4.040003 -1.688,0 -2.89467,1.236 -2.89467,3.950663 v 7.17467"
     style="fill:#ffffff;fill-opacity:1;fill-rule:nonzero;stroke:none;stroke-width:0.133333"
     id="path981" /><path
     d="m 413.41599,101.12533 c 0.572,0 0.75333,-0.21066 0.75333,-0.69333 0,-1.115999 -1.056,-2.623999 -3.61866,-2.623999 -2.65334,0 -3.708,1.629333 -3.708,2.683999 0,0.45333 0.12133,0.63333 0.66266,0.63333 z m -3.016,9.86 c -4.79333,0 -7.77867,-3.25733 -7.77867,-8.412 0,-4.613329 2.804,-7.899996 7.80934,-7.899996 4.704,0 7.38666,2.321333 7.38666,6.451996 0,1.80934 -0.572,2.17067 -1.748,2.17067 -0.84533,0 -7.93066,-0.0293 -8.624,-0.0293 -0.66266,0 -0.724,0.30133 -0.724,0.78266 0,2.05067 1.568,3.58934 3.86,3.58934 3.76934,0 3.07467,-2.44267 5.27734,-2.44267 0.78266,0 1.50533,0.54267 1.50533,1.568 0,1.508 -1.868,4.22133 -6.964,4.22133"
     style="fill:#ffffff;fill-opacity:1;fill-rule:nonzero;stroke:none;stroke-width:0.133333"
     id="path983" /><path
     d="m 432.11199,110.62267 c -1.71733,0 -2.23067,-0.0907 -2.23067,-1.296 0,-0.54267 0.0907,-5.488 0.0907,-6.996 0,-2.682669 -0.69333,-4.009336 -2.83333,-4.009336 -1.78,0 -3.13734,1.506667 -3.13734,4.251996 0,3.648 0.0307,5.54667 0.0307,6.60267 0,1.32667 -0.512,1.47733 -2.26133,1.47733 -1.47734,0 -2.08,-0.30133 -2.08,-1.448 0,-7.98933 0.0907,-11.789329 0.0907,-12.783996 0,-1.025333 0.392,-1.386667 1.65734,-1.386667 1.14533,0 1.47866,0.212 1.74933,1.446667 0.18,0.876 0.30133,1.025333 0.48267,1.025333 0.54266,0 0.87333,-2.833333 5.06533,-2.833333 3.04533,0 5.42667,1.869333 5.42667,6.391996 0,4.79467 0.0907,2.864 0.0907,8.17067 0,1.08533 -0.54266,1.38667 -2.14133,1.38667"
     style="fill:#ffffff;fill-opacity:1;fill-rule:nonzero;stroke:none;stroke-width:0.133333"
     id="path985" /><path
     d="m 442.85199,98.230667 c -0.60267,0 -0.664,0.181334 -0.664,0.633334 0,1.657329 -0.0307,6.211999 -0.0307,7.145329 0,1.14667 0.392,1.71867 1.35734,1.71867 0.87466,0 0.93466,-0.36133 1.65866,-0.36133 0.784,0 1.356,0.51333 1.356,1.59733 0,1.328 -1.32666,2.05067 -3.94933,2.05067 -3.136,0 -4.58267,-1.688 -4.58267,-4.372 0,-2.804 -0.0307,-5.396 -0.0307,-7.778669 0,-0.452 -0.06,-0.633334 -0.42267,-0.633334 h -1.084 c -0.57333,0 -0.84533,-0.270666 -0.84533,-1.357333 0,-0.782667 0.24266,-1.296 0.96533,-1.416 0.99467,-0.152 1.38667,-0.362667 1.38667,-0.845333 0,-0.844 0.0307,-2.230667 0.0307,-3.014667 0,-1.206666 0.63334,-1.718666 2.14134,-1.718666 1.50666,0 2.07866,0.482666 2.07866,1.658666 v 3.014667 c 0,0.392 0.15067,0.482666 0.45334,0.482666 h 2.71333 c 0.75467,0 1.116,0.301334 1.116,1.598667 0,1.265333 -0.332,1.597333 -1.20667,1.597333 h -2.44133"
     style="fill:#ffffff;fill-opacity:1;fill-rule:nonzero;stroke:none;stroke-width:0.133333"
     id="path987" /><path
     d="m 243.25866,118.10533 c 0,-1.056 0.57333,-1.628 2.14133,-1.628 1.44667,0 2.04934,0.36134 2.04934,1.688 0,1.78 -0.12,15.10547 -0.12,16.58414 0,0.57186 0.12,0.78226 0.512,0.78226 0.212,0 0.36266,-0.0599 0.69333,-0.0599 0.784,0 1.17733,0.4828 1.17733,1.388 0,1.26666 -0.87466,1.92973 -2.71466,1.92973 -2.532,0 -3.73867,-1.53907 -3.73867,-3.82973 v -16.85454"
     style="fill:#ffffff;fill-opacity:1;fill-rule:nonzero;stroke:none;stroke-width:0.133333"
     id="path989" /><path
     d="m 261.13999,128.89947 c 0.57334,0 0.75467,-0.21147 0.75467,-0.69374 0,-1.11506 -1.056,-2.62306 -3.61867,-2.62306 -2.65333,0 -3.708,1.628 -3.708,2.68346 0,0.45267 0.12,0.63334 0.66267,0.63334 z m -3.01466,9.85933 c -4.79334,0 -7.77867,-3.25613 -7.77867,-8.41187 0,-4.6136 2.804,-7.89893 7.80933,-7.89893 4.704,0 7.38667,2.32133 7.38667,6.45147 0,1.8088 -0.572,2.1708 -1.748,2.1708 -0.84533,0 -7.93067,-0.0296 -8.624,-0.0296 -0.664,0 -0.724,0.30093 -0.724,0.78386 0,2.05 1.568,3.58907 3.85867,3.58907 3.77066,0 3.076,-2.44387 5.27866,-2.44387 0.78267,0 1.50534,0.54387 1.50534,1.56774 0,1.50786 -1.868,4.22133 -6.964,4.22133"
     style="fill:#ffffff;fill-opacity:1;fill-rule:nonzero;stroke:none;stroke-width:0.133333"
     id="path991" /><path
     d="m 277.81866,128.89947 c 0.57333,0 0.75467,-0.21147 0.75467,-0.69374 0,-1.11506 -1.056,-2.62306 -3.61867,-2.62306 -2.65333,0 -3.708,1.628 -3.708,2.68346 0,0.45267 0.12,0.63334 0.66267,0.63334 z m -3.01467,9.85933 c -4.79333,0 -7.77866,-3.25613 -7.77866,-8.41187 0,-4.6136 2.804,-7.89893 7.80933,-7.89893 4.70267,0 7.38667,2.32133 7.38667,6.45147 0,1.8088 -0.57334,2.1708 -1.74934,2.1708 -0.844,0 -7.92933,-0.0296 -8.62266,-0.0296 -0.66267,0 -0.724,0.30093 -0.724,0.78386 0,2.05 1.568,3.58907 3.85866,3.58907 3.76934,0 3.076,-2.44387 5.27734,-2.44387 0.784,0 1.50666,0.54387 1.50666,1.56774 0,1.50786 -1.868,4.22133 -6.964,4.22133"
     style="fill:#ffffff;fill-opacity:1;fill-rule:nonzero;stroke:none;stroke-width:0.133333"
     id="path993" /><path
     d="m 290.45733,126.00533 c -0.51334,0 -0.784,0.21067 -0.784,0.69334 0,0.27066 0.0293,4.61333 0.0293,6.75346 0,0.664 0.0307,2.3828 0.0307,3.61867 0,0.90373 -0.512,1.448 -2.23067,1.448 -1.86933,0 -2.05067,-0.63493 -2.05067,-1.56827 0,-0.75466 -0.0307,-2.8052 -0.0307,-5.30733 0,-2.47293 0.0307,-4.5232 0.0307,-5.00453 0,-0.45334 -0.06,-0.63334 -0.42266,-0.63334 h -0.69334 c -0.784,0 -1.11466,-0.392 -1.11466,-1.32666 0,-0.90534 0,-1.176 1.236,-1.41734 0.964,-0.18133 1.024,-0.272 1.024,-0.48266 0,-0.33067 -0.452,-0.724 -0.452,-2.20134 0,-2.50266 2.14133,-4.1 4.79466,-4.1 2.20134,0 3.88934,0.60267 3.88934,1.80934 0,1.11466 -0.664,2.2 -1.508,2.2 -0.42134,0 -0.724,-0.30134 -1.416,-0.30134 -1.14667,0 -1.568,0.48267 -1.568,1.32667 0,0.75467 0.27066,1.296 0.57333,1.296 h 2.01867 c 0.75466,0 1.35733,0.30267 1.35733,1.59867 0,1.26666 -0.42133,1.59866 -1.29733,1.59866 h -1.416"
     style="fill:#ffffff;fill-opacity:1;fill-rule:nonzero;stroke:none;stroke-width:0.133333"
     id="path995" /><path
     d="m 298.90133,137.19213 c 0,0.69174 -0.27067,1.2344 -2.26267,1.2344 -1.23467,0 -1.95867,-0.24013 -1.95867,-1.3864 0,-8.05053 0.0907,-11.8188 0.0907,-12.81346 0,-1.02667 0.452,-1.448 1.77867,-1.448 1.116,0 1.35733,0.36133 1.628,1.47733 0.18133,0.75333 0.332,0.81467 0.51333,0.81467 0.45067,0 0.84267,-2.65467 4.372,-2.65467 3.94933,0 3.91867,2.836 4.70267,2.836 0.69466,0 1.14666,-2.836 5.06533,-2.836 2.80533,0 5.33733,1.66 5.33733,6.0012 0,4.79373 0.0893,6.2416 0.0893,8.26147 0,1.29586 -0.42134,1.71866 -2.10934,1.71866 -1.78,0 -2.08,-0.4828 -2.08,-1.47853 0,-0.54173 0.06,-5.3052 0.06,-6.8136 0,-2.7132 -0.724,-3.97987 -2.77333,-3.97987 -1.388,0 -2.80533,1.176 -2.80533,3.46787 0,4.6428 0.0307,1.92973 0.0307,7.26667 0,0.96413 -0.0307,1.53746 -2.11066,1.53746 -1.44667,0 -2.02,-0.33226 -2.02,-1.50773 0,-0.54267 0.06,-5.276 0.06,-6.7844 0,-2.7132 -0.66267,-4.03987 -2.71334,-4.03987 -1.68933,0 -2.89466,1.236 -2.89466,3.94974 v 7.17706"
     style="fill:#ffffff;fill-opacity:1;fill-rule:nonzero;stroke:none;stroke-width:0.133333"
     id="path997" /><path
     d="m 322.99866,138.54787 c -1.688,0 -2.2,-0.42134 -2.2,-1.5676 0,-0.7844 0.0893,-11.0056 0.0893,-12.66427 0,-1.116 0.30267,-1.508 2.11067,-1.508 1.568,0 2.02133,0.57333 2.02133,1.68933 0,1.80934 0.0293,11.0948 0.0293,12.60267 0,1.11613 -0.36134,1.44787 -2.05067,1.44787 z m -0.06,-17.42787 c -1.628,0 -2.624,-1.05467 -2.624,-2.50267 0,-1.44666 0.84533,-2.65333 2.59467,-2.65333 1.92933,0 2.71333,1.176 2.71333,2.83467 0,1.32666 -1.176,2.32133 -2.684,2.32133"
     style="fill:#ffffff;fill-opacity:1;fill-rule:nonzero;stroke:none;stroke-width:0.133333"
     id="path999" /><path
     d="m 327.85599,118.10533 c 0,-1.056 0.572,-1.628 2.14,-1.628 1.448,0 2.05067,0.36134 2.05067,1.688 0,1.78 -0.12133,15.10547 -0.12133,16.58414 0,0.57186 0.12133,0.78226 0.51333,0.78226 0.21067,0 0.36267,-0.0599 0.69467,-0.0599 0.78399,0 1.17466,0.4828 1.17466,1.388 0,1.26666 -0.87467,1.92973 -2.71333,1.92973 -2.532,0 -3.73867,-1.53907 -3.73867,-3.82973 v -16.85454"
     style="fill:#ffffff;fill-opacity:1;fill-rule:nonzero;stroke:none;stroke-width:0.133333"
     id="path1001" /><path
     d="m 337.68666,138.54787 c -1.688,0 -2.20134,-0.42134 -2.20134,-1.5676 0,-0.7844 0.0907,-11.0056 0.0907,-12.66427 0,-1.116 0.30133,-1.508 2.11067,-1.508 1.56666,0 2.02,0.57333 2.02,1.68933 0,1.80934 0.0307,11.0948 0.0307,12.60267 0,1.11613 -0.36266,1.44787 -2.05066,1.44787 z m -0.06,-17.42787 c -1.628,0 -2.624,-1.05467 -2.624,-2.50267 0,-1.44666 0.84533,-2.65333 2.59333,-2.65333 1.93067,0 2.71333,1.176 2.71333,2.83467 0,1.32666 -1.17466,2.32133 -2.68266,2.32133"
     style="fill:#ffffff;fill-opacity:1;fill-rule:nonzero;stroke:none;stroke-width:0.133333"
     id="path1003" /><path
     d="m 352.70266,128.89947 c 0.57333,0 0.75466,-0.21147 0.75466,-0.69374 0,-1.11506 -1.056,-2.62306 -3.61866,-2.62306 -2.65334,0 -3.708,1.628 -3.708,2.68346 0,0.45267 0.12,0.63334 0.66266,0.63334 z m -3.01467,9.85933 c -4.79333,0 -7.77867,-3.25613 -7.77867,-8.41187 0,-4.6136 2.804,-7.89893 7.80934,-7.89893 4.70266,0 7.38666,2.32133 7.38666,6.45147 0,1.8088 -0.57333,2.1708 -1.748,2.1708 -0.84533,0 -7.93066,-0.0296 -8.624,-0.0296 -0.66266,0 -0.724,0.30093 -0.724,0.78386 0,2.05 1.568,3.58907 3.85867,3.58907 3.77067,0 3.076,-2.44387 5.27733,-2.44387 0.784,0 1.50667,0.54387 1.50667,1.56774 0,1.50786 -1.868,4.22133 -6.964,4.22133"
     style="fill:#ffffff;fill-opacity:1;fill-rule:nonzero;stroke:none;stroke-width:0.133333"
     id="path1005" /><path
     d="m 371.61332,138.39733 c -1.32666,0 -1.71866,-0.54266 -1.92933,-1.47853 -0.152,-0.66253 -0.152,-1.23493 -0.424,-1.23493 -0.51067,0 -0.66267,3.10573 -4.97333,3.10573 -3.52934,0 -5.248,-2.2016 -5.248,-6.63333 0,-4.8256 -0.0293,-2.59374 -0.0293,-7.9296 0,-0.996 0.42134,-1.508 2.14,-1.508 1.53867,0 2.172,0.27066 2.172,1.44666 0,0.54267 -0.0613,5.42787 -0.0613,6.96534 0,2.6532 0.99467,3.97973 2.74533,3.97973 2.14,0 3.19467,-1.65827 3.19467,-4.97493 0,-3.73814 -0.06,-5.03547 -0.06,-5.99947 0,-0.936 0.544,-1.328 2.14133,-1.328 1.53734,0 2.23067,0.272 2.23067,1.388 0,1.80933 -0.0907,11.57747 -0.0907,12.604 0,0.9948 -0.54266,1.59733 -1.808,1.59733"
     style="fill:#ffffff;fill-opacity:1;fill-rule:nonzero;stroke:none;stroke-width:0.133333"
     id="path1007" /><path
     d="m 254.74666,158.2104 c 0,-3.25573 -1.35733,-4.37187 -3.528,-4.37187 -2.14,0 -3.73867,1.11614 -3.73867,4.5828 0,2.95467 1.44667,4.73334 3.55734,4.73334 2.232,0 3.70933,-1.74787 3.70933,-4.94427 z m -7.05467,-9.16667 c 0,1.53907 -0.0613,2.02134 -0.0613,2.53334 0,0.54266 0.0613,0.66413 0.30133,0.66413 0.512,0 1.116,-2.1704 4.91467,-2.1704 3.82933,0 6.24133,2.7428 6.24133,8.04893 0,4.85374 -2.472,8.26147 -6.48133,8.26147 -4.73467,0 -4.704,-2.83427 -5.27733,-2.83427 -0.272,0 -0.24134,0.2104 -0.48267,1.44787 -0.18,0.9344 -0.784,1.176 -1.80933,1.176 -1.32667,0 -1.71867,-0.54267 -1.71867,-1.53747 0,-2.3828 -0.0293,-8.35213 -0.0293,-18.6948 0,-1.14533 0.54266,-1.688 2.26133,-1.688 1.89867,0 2.14133,0.63334 2.14133,1.688 v 3.1052"
     style="fill:#ffffff;fill-opacity:1;fill-rule:nonzero;stroke:none;stroke-width:0.133333"
     id="path1009" /><path
     d="m 265.24533,164.63333 c 0,1.08547 -0.424,1.59734 -2.14134,1.59734 -1.59866,0 -2.172,-0.4812 -2.172,-1.59734 0,-7.99066 0.12134,-11.7 0.12134,-12.724 0,-0.9948 0.392,-1.32653 1.65733,-1.32653 1.26667,0 1.56933,0.33173 1.75067,1.47707 0.14933,1.024 0.24,1.17613 0.452,1.17613 0.512,0 1.05466,-2.6532 4.16,-2.6532 1.236,0 1.78,0.45213 1.78,1.77867 0,1.11453 -0.212,2.1104 -1.74934,2.1104 -2.53333,0 -3.85866,1.5068 -3.85866,4.5536 v 5.60786"
     style="fill:#ffffff;fill-opacity:1;fill-rule:nonzero;stroke:none;stroke-width:0.133333"
     id="path1011" /><path
     d="m 284.96666,166.1708 c -1.328,0 -1.71867,-0.54267 -1.93067,-1.4776 -0.15066,-0.664 -0.15066,-1.23587 -0.42266,-1.23587 -0.512,0 -0.66267,3.1052 -4.97467,3.1052 -3.528,0 -5.24667,-2.20106 -5.24667,-6.63333 0,-4.824 -0.0307,-2.5932 -0.0307,-7.9292 0,-0.99587 0.42266,-1.50787 2.14133,-1.50787 1.53733,0 2.172,0.2704 2.172,1.4464 0,0.54267 -0.0613,5.42654 -0.0613,6.9656 0,2.6532 0.99466,3.97974 2.744,3.97974 2.14133,0 3.196,-1.6584 3.196,-4.97454 0,-3.73853 -0.06,-5.03586 -0.06,-6 0,-0.93586 0.54266,-1.32653 2.14133,-1.32653 1.53733,0 2.22933,0.27187 2.22933,1.38653 0,1.80934 -0.0893,11.5776 -0.0893,12.60414 0,0.9948 -0.54267,1.59733 -1.808,1.59733"
     style="fill:#ffffff;fill-opacity:1;fill-rule:nonzero;stroke:none;stroke-width:0.133333"
     id="path1013" /><path
     d="m 296.03466,163.45733 c 2.11067,0 2.684,-0.75466 2.684,-1.50786 0,-1.05467 -0.96533,-1.29734 -4.432,-1.8692 -4.34133,-0.72294 -5.24667,-2.62294 -5.24667,-4.73334 0,-3.49746 3.31734,-5.0964 6.724,-5.0964 4.644,0 6.60267,2.02027 6.60267,4.19067 0,1.02707 -0.724,1.56813 -1.95867,1.56813 -0.844,0 -1.32666,-0.54106 -1.568,-0.9656 -0.69466,-1.17546 -1.65866,-1.62653 -3.10533,-1.62653 -1.71867,0 -2.684,0.54267 -2.684,1.62653 0,1.14694 0.512,1.6896 3.92,2.29227 5.004,0.8744 5.90933,2.29213 5.90933,4.43227 0,2.5932 -2.232,4.79426 -7.26666,4.79426 -4.97467,0 -6.75334,-2.59173 -6.75334,-4.1 0,-1.08653 0.45067,-1.59853 1.50667,-1.59853 1.93067,0 1.628,2.59333 5.668,2.59333"
     style="fill:#ffffff;fill-opacity:1;fill-rule:nonzero;stroke:none;stroke-width:0.133333"
     id="path1015" /><path
     d="m 311.62799,163.45733 c 2.11067,0 2.68267,-0.75466 2.68267,-1.50786 0,-1.05467 -0.964,-1.29734 -4.432,-1.8692 -4.34133,-0.72294 -5.24533,-2.62294 -5.24533,-4.73334 0,-3.49746 3.316,-5.0964 6.724,-5.0964 4.64266,0 6.60266,2.02027 6.60266,4.19067 0,1.02707 -0.724,1.56813 -1.96,1.56813 -0.844,0 -1.32666,-0.54106 -1.568,-0.9656 -0.69333,-1.17546 -1.65866,-1.62653 -3.10533,-1.62653 -1.71867,0 -2.684,0.54267 -2.684,1.62653 0,1.14694 0.512,1.6896 3.92,2.29227 5.00533,0.8744 5.90933,2.29213 5.90933,4.43227 0,2.5932 -2.23066,4.79426 -7.26666,4.79426 -4.97467,0 -6.75334,-2.59173 -6.75334,-4.1 0,-1.08653 0.452,-1.59853 1.508,-1.59853 1.92934,0 1.62667,2.59333 5.668,2.59333"
     style="fill:#ffffff;fill-opacity:1;fill-rule:nonzero;stroke:none;stroke-width:0.133333"
     id="path1017" /><path
     d="m 330.83866,156.67347 c 0.57333,0 0.75333,-0.21094 0.75333,-0.6948 0,-1.11614 -1.056,-2.62134 -3.61866,-2.62134 -2.65334,0 -3.708,1.62654 -3.708,2.6812 0,0.4536 0.12133,0.63494 0.66266,0.63494 z m -3.016,9.85826 c -4.79333,0 -7.77867,-3.25573 -7.77867,-8.412 0,-4.61293 2.80534,-7.9 7.81067,-7.9 4.70267,0 7.38666,2.32147 7.38666,6.45374 0,1.80773 -0.57333,2.17026 -1.74933,2.17026 -0.84533,0 -7.92933,-0.0301 -8.624,-0.0301 -0.66266,0 -0.724,0.30093 -0.724,0.78373 0,2.05054 1.568,3.58907 3.86,3.58907 3.76934,0 3.076,-2.44267 5.27734,-2.44267 0.78399,0 1.50666,0.54267 1.50666,1.56667 0,1.5084 -1.86933,4.22133 -6.96533,4.22133"
     style="fill:#ffffff;fill-opacity:1;fill-rule:nonzero;stroke:none;stroke-width:0.133333"
     id="path1019" /><path
     d="m 337.35599,145.87867 c 0,-1.05627 0.572,-1.62814 2.14,-1.62814 1.448,0 2.05067,0.36147 2.05067,1.688 0,1.77867 -0.12134,15.1052 -0.12134,16.58387 0,0.5724 0.12134,0.7828 0.51334,0.7828 0.21066,0 0.36266,-0.0583 0.69466,-0.0583 0.784,0 1.17467,0.4812 1.17467,1.3864 0,1.26667 -0.87467,1.9292 -2.71333,1.9292 -2.532,0 -3.73867,-1.53706 -3.73867,-3.8292 v -16.85466"
     style="fill:#ffffff;fill-opacity:1;fill-rule:nonzero;stroke:none;stroke-width:0.133333"
     id="path1021" /><path
     d="m 238.99999,202.97186 c -1.59866,0 -2.50266,-0.9036 -2.50266,-2.35213 0,-1.59733 0.964,-2.26093 2.412,-2.26093 2.08,0 2.62266,0.81466 2.62266,2.26093 0,1.62813 -0.99466,2.35213 -2.532,2.35213"
     style="fill:#ffffff;fill-opacity:1;fill-rule:nonzero;stroke:none;stroke-width:0.133333"
     id="path1023" /><path
     d="m 255.79599,194.7708 c 0,-3.25627 -1.35733,-4.3724 -3.528,-4.3724 -2.14133,0 -3.74,1.11613 -3.74,4.5828 0,2.9548 1.448,4.73333 3.55867,4.73333 2.23067,0 3.70933,-1.74787 3.70933,-4.94373 z m -7.056,-9.16667 c 0,1.53707 -0.06,2.02134 -0.06,2.53334 0,0.5428 0.06,0.66413 0.30134,0.66413 0.512,0 1.116,-2.17093 4.91466,-2.17093 3.82934,0 6.24134,2.7428 6.24134,8.04959 0,4.85307 -2.472,8.26094 -6.48267,8.26094 -4.73467,0 -4.704,-2.8344 -5.276,-2.8344 -0.272,0 -0.24133,0.2104 -0.48267,1.44786 -0.18133,0.93494 -0.784,1.176 -1.80933,1.176 -1.32667,0 -1.71867,-0.54266 -1.71867,-1.53746 0,-2.3828 -0.0307,-8.352 -0.0307,-18.6948 0,-1.14533 0.544,-1.68907 2.26133,-1.68907 1.9,0 2.14133,0.6344 2.14133,1.68907 v 3.10573"
     style="fill:#ffffff;fill-opacity:1;fill-rule:nonzero;stroke:none;stroke-width:0.133333"
     id="path1025" /><path
     d="m 266.29333,201.1932 c 0,1.08546 -0.424,1.59746 -2.14267,1.59746 -1.59733,0 -2.17067,-0.4828 -2.17067,-1.59746 0,-7.99053 0.12134,-11.7 0.12134,-12.72387 0,-0.99586 0.392,-1.32813 1.65733,-1.32813 1.268,0 1.56933,0.33227 1.75067,1.47853 0.14933,1.024 0.24133,1.17614 0.452,1.17614 0.512,0 1.05466,-2.65467 4.16,-2.65467 1.23733,0 1.78,0.4536 1.78,1.77853 0,1.11627 -0.21067,2.11094 -1.74934,2.11094 -2.53333,0 -3.85866,1.50786 -3.85866,4.55319 v 5.60934"
     style="fill:#ffffff;fill-opacity:1;fill-rule:nonzero;stroke:none;stroke-width:0.133333"
     id="path1027" /><path
     d="m 286.01599,202.73066 c -1.32666,0 -1.71866,-0.54266 -1.93066,-1.47853 -0.15067,-0.66253 -0.15067,-1.23493 -0.42267,-1.23493 -0.512,0 -0.66267,3.1052 -4.97333,3.1052 -3.52934,0 -5.248,-2.20107 -5.248,-6.6328 0,-4.82453 -0.0293,-2.59373 -0.0293,-7.92973 0,-0.99587 0.42134,-1.50774 2.14,-1.50774 1.53734,0 2.172,0.2708 2.172,1.44627 0,0.5428 -0.0613,5.42707 -0.0613,6.9656 0,2.6532 0.99467,3.97973 2.744,3.97973 2.14133,0 3.196,-1.65827 3.196,-4.9744 0,-3.73866 -0.06,-5.036 -0.06,-6 0,-0.936 0.54267,-1.32813 2.14133,-1.32813 1.53734,0 2.23067,0.27333 2.23067,1.38693 0,1.8104 -0.0907,11.57867 -0.0907,12.6052 0,0.9948 -0.54266,1.59733 -1.808,1.59733"
     style="fill:#ffffff;fill-opacity:1;fill-rule:nonzero;stroke:none;stroke-width:0.133333"
     id="path1029" /><path
     d="m 297.08399,200.0172 c 2.11067,0 2.684,-0.75467 2.684,-1.50787 0,-1.05467 -0.964,-1.29733 -4.432,-1.8708 -4.34133,-0.72133 -5.24666,-2.62133 -5.24666,-4.73173 0,-3.49747 3.31733,-5.09747 6.724,-5.09747 4.644,0 6.604,2.02134 6.604,4.19227 0,1.02653 -0.724,1.56773 -1.96,1.56773 -0.844,0 -1.32667,-0.5412 -1.568,-0.9652 -0.69467,-1.176 -1.65867,-1.62813 -3.10534,-1.62813 -1.71866,0 -2.684,0.54373 -2.684,1.62813 0,1.1464 0.512,1.68907 3.92,2.29174 5.00534,0.87493 5.90934,2.29213 5.90934,4.43226 0,2.5932 -2.232,4.79427 -7.26667,4.79427 -4.97467,0 -6.75333,-2.5932 -6.75333,-4.1 0,-1.0864 0.452,-1.5984 1.508,-1.5984 1.92933,0 1.62666,2.5932 5.66666,2.5932"
     style="fill:#ffffff;fill-opacity:1;fill-rule:nonzero;stroke:none;stroke-width:0.133333"
     id="path1031" /><path
     d="m 312.67733,200.0172 c 2.11066,0 2.684,-0.75467 2.684,-1.50787 0,-1.05467 -0.96534,-1.29733 -4.43334,-1.8708 -4.34133,-0.72133 -5.24533,-2.62133 -5.24533,-4.73173 0,-3.49747 3.316,-5.09747 6.724,-5.09747 4.64267,0 6.60267,2.02134 6.60267,4.19227 0,1.02653 -0.724,1.56773 -1.96,1.56773 -0.844,0 -1.32667,-0.5412 -1.568,-0.9652 -0.69334,-1.176 -1.65867,-1.62813 -3.10534,-1.62813 -1.71866,0 -2.68266,0.54373 -2.68266,1.62813 0,1.1464 0.51066,1.68907 3.91866,2.29174 5.00534,0.87493 5.91067,2.29213 5.91067,4.43226 0,2.5932 -2.232,4.79427 -7.268,4.79427 -4.97467,0 -6.75333,-2.5932 -6.75333,-4.1 0,-1.0864 0.452,-1.5984 1.508,-1.5984 1.92933,0 1.628,2.5932 5.668,2.5932"
     style="fill:#ffffff;fill-opacity:1;fill-rule:nonzero;stroke:none;stroke-width:0.133333"
     id="path1033" /><path
     d="m 331.88799,193.23333 c 0.57334,0 0.75334,-0.21093 0.75334,-0.6948 0,-1.1156 -1.056,-2.62133 -3.61734,-2.62133 -2.65466,0 -3.70933,1.62653 -3.70933,2.6812 0,0.45373 0.12133,0.63493 0.66267,0.63493 z m -3.016,9.8588 c -4.792,0 -7.77866,-3.25613 -7.77866,-8.41187 0,-4.61359 2.80533,-7.89999 7.81066,-7.89999 4.70267,0 7.38667,2.32133 7.38667,6.45306 0,1.80787 -0.57334,2.1708 -1.74934,2.1708 -0.84533,0 -7.92933,-0.0307 -8.62399,-0.0307 -0.66267,0 -0.72267,0.30107 -0.72267,0.78387 0,2.05053 1.56667,3.5896 3.85867,3.5896 3.76933,0 3.076,-2.4428 5.27733,-2.4428 0.784,0 1.50666,0.5428 1.50666,1.56667 0,1.50786 -1.868,4.22133 -6.96533,4.22133"
     style="fill:#ffffff;fill-opacity:1;fill-rule:nonzero;stroke:none;stroke-width:0.133333"
     id="path1035" /><path
     d="m 338.40399,182.43853 c 0,-1.05573 0.572,-1.6292 2.14,-1.6292 1.448,0 2.05067,0.36254 2.05067,1.68907 0,1.77867 -0.12134,15.10573 -0.12134,16.5844 0,0.57186 0.12134,0.78226 0.51334,0.78226 0.21066,0 0.36266,-0.0599 0.69466,-0.0599 0.784,0 1.176,0.4828 1.176,1.388 0,1.26666 -0.876,1.9292 -2.71466,1.9292 -2.532,0 -3.73867,-1.53854 -3.73867,-3.8292 v -16.85467"
     style="fill:#ffffff;fill-opacity:1;fill-rule:nonzero;stroke:none;stroke-width:0.133333"
     id="path1037" /><path
     d="m 352.66799,200.0172 c 2.11067,0 2.684,-0.75467 2.684,-1.50787 0,-1.05467 -0.96533,-1.29733 -4.43333,-1.8708 -4.34,-0.72133 -5.24534,-2.62133 -5.24534,-4.73173 0,-3.49747 3.316,-5.09747 6.724,-5.09747 4.64267,0 6.60267,2.02134 6.60267,4.19227 0,1.02653 -0.724,1.56773 -1.96,1.56773 -0.844,0 -1.32667,-0.5412 -1.568,-0.9652 -0.69333,-1.176 -1.65867,-1.62813 -3.10533,-1.62813 -1.71867,0 -2.68267,0.54373 -2.68267,1.62813 0,1.1464 0.51067,1.68907 3.91867,2.29174 5.00533,0.87493 5.91066,2.29213 5.91066,4.43226 0,2.5932 -2.232,4.79427 -7.26666,4.79427 -4.976,0 -6.75467,-2.5932 -6.75467,-4.1 0,-1.0864 0.452,-1.5984 1.508,-1.5984 1.92933,0 1.628,2.5932 5.668,2.5932"
     style="fill:#ffffff;fill-opacity:1;fill-rule:nonzero;stroke:none;stroke-width:0.133333"
     id="path1039" /><path
     d="m 370.63599,191.82813 c -2.568,0 -5.11467,1.9344 -5.11467,5.16667 0,3.14373 2.90134,5.0916 5.42667,5.0916 2.78,0 4.12133,-0.8676 6.46267,-0.3984 1.83333,0.37186 2.82133,1.26506 3.312,1.73333 0.236,0.22653 0.53466,0.25573 0.73733,0.11987 0.20267,-0.1396 0.34267,-0.38814 0.20267,-0.99587 -0.31867,-1.412 -1.072,-2.99587 -1.944,-4.34533 -1.72134,-2.65307 -5.20134,-6.37187 -9.08267,-6.37187"
     style="fill:#ffffff;fill-opacity:1;fill-rule:nonzero;stroke:none;stroke-width:0.133333"
     id="path1041" /><path
     d="m 394.39866,191.82813 c 2.56933,0 5.12,1.9344 5.12,5.16667 0,3.14373 -2.90534,5.0916 -5.432,5.0916 -2.78134,0 -4.11867,-0.8676 -6.46,-0.3984 -1.83067,0.37186 -2.82134,1.26506 -3.31467,1.73333 -0.23333,0.22653 -0.532,0.25573 -0.736,0.11987 -0.20267,-0.1396 -0.34267,-0.38814 -0.20267,-0.99587 0.32,-1.412 1.072,-2.99587 1.94667,-4.34533 1.71867,-2.65307 5.2,-6.37187 9.07867,-6.37187"
     style="fill:#ffffff;fill-opacity:1;fill-rule:nonzero;stroke:none;stroke-width:0.133333"
     id="path1043" /><path
     d="m 385.80666,183.08547 c -1.436,0 -2.624,0.60253 -3.28934,1.4828 -0.66533,-0.88027 -1.85066,-1.4828 -3.28533,-1.4828 -2.596,0 -4.97733,2.06506 -4.97733,5.06506 0,1.31614 0.52666,2.31347 1.00533,3.00827 0.54533,0.80267 1.26267,1.48907 2.39067,2.46667 1.636,1.42146 2.98133,2.80519 4.26666,5.51719 0.104,0.21614 0.32267,0.46147 0.6,0.46147 0.284,0 0.49867,-0.24533 0.6,-0.46147 1.28534,-2.712 2.63334,-4.09573 4.268,-5.51719 1.12534,-0.9776 1.84534,-1.664 2.39067,-2.46667 0.47733,-0.6948 1.004,-1.69213 1.004,-3.00827 0,-3 -2.38133,-5.06506 -4.97333,-5.06506"
     style="fill:#ffffff;fill-opacity:1;fill-rule:nonzero;stroke:none;stroke-width:0.133333"
     id="path1045" /><path
     d="m 385.68266,184.56827 c -1.71734,0 -2.79067,1.2932 -3.16534,2.21813 -0.376,-0.92493 -1.444,-2.21813 -3.16533,-2.21813 -1.98267,0 -3.584,1.6344 -3.584,3.61453 0,0.74893 0.25733,1.436 0.716,2.06253 1.80267,2.46254 4.25067,3.25467 6.03333,7.11867 1.784,-3.864 4.23334,-4.65613 6.03467,-7.11867 0.45867,-0.62653 0.71467,-1.3136 0.71467,-2.06253 0,-1.98013 -1.60134,-3.61453 -3.584,-3.61453"
     style="fill:#ffffff;fill-opacity:1;fill-rule:nonzero;stroke:none;stroke-width:0.133333"
     id="path1047" /></svg>
