<?xml version="1.0" encoding="UTF-8" standalone="no"?>
<svg
   xmlns:dc="http://purl.org/dc/elements/1.1/"
   xmlns:cc="http://creativecommons.org/ns#"
   xmlns:rdf="http://www.w3.org/1999/02/22-rdf-syntax-ns#"
   xmlns:svg="http://www.w3.org/2000/svg"
   xmlns="http://www.w3.org/2000/svg"
   viewBox="0 0 345.45334 94.786667"
   height="94.786667"
   width="345.45334"
   xml:space="preserve"
   id="svg833"
   version="1.1"><metadata
     id="metadata839"><rdf:RDF><cc:Work
         rdf:about=""><dc:format>image/svg+xml</dc:format><dc:type
           rdf:resource="http://purl.org/dc/dcmitype/StillImage" /><dc:title></dc:title></cc:Work></rdf:RDF></metadata><defs
     id="defs837" /><g
     transform="matrix(1.3333333,0,0,-1.3333333,0,94.786667)"
     id="g841"><g
       transform="scale(0.1)"
       id="g843"><path
         id="path845"
         style="fill:#ffffff;fill-opacity:1;fill-rule:nonzero;stroke:none"
         d="m 563.578,521.113 h 17.637 l 43.75,-127.07 43.758,127.07 h 17.629 L 636.316,375.859 h -22.808 l -49.93,145.254" /><path
         id="path847"
         style="fill:#ffffff;fill-opacity:1;fill-rule:nonzero;stroke:none"
         d="m 705.641,521.113 h 17.078 V 391.73 h 68.219 v -15.871 h -85.297 v 145.254" /><path
         id="path849"
         style="fill:#ffffff;fill-opacity:1;fill-rule:nonzero;stroke:none"
         d="m 833.922,425.563 h 53.34 l -26.672,77.261 z m 58.738,-15.872 h -64.14 l -11.68,-33.832 h -17.637 l 49.93,145.254 h 22.808 l 50.036,-145.254 h -17.629 l -11.688,33.832" /><path
         id="path851"
         style="fill:#ffffff;fill-opacity:1;fill-rule:nonzero;stroke:none"
         d="m 962.207,425.563 h 53.343 l -26.671,77.261 z m 58.743,-15.872 h -64.141 l -11.68,-33.832 h -17.641 l 49.93,145.254 h 22.812 l 50.03,-145.254 h -17.63 l -11.68,33.832" /><path
         id="path853"
         style="fill:#ffffff;fill-opacity:1;fill-rule:nonzero;stroke:none"
         d="M 1192.1,521.113 V 375.859 h -17.08 v 121.563 l -40.95,-79.684 h -3.96 l -41.82,80.676 V 375.859 h -17.09 v 145.254 h 23.58 l 37.09,-73.179 h 0.44 l 37.09,73.179 h 22.7" /><path
         id="path855"
         style="fill:#ffffff;fill-opacity:1;fill-rule:nonzero;stroke:none"
         d="m 1251.91,389.527 c 9.38,0 17.38,1.832 23.97,5.496 6.53,3.668 9.79,9.793 9.79,18.372 0,8.359 -3.56,14.781 -10.68,19.253 -2.93,1.829 -10.2,5.754 -21.8,11.766 -11.6,6.016 -18.65,9.977 -21.15,11.887 -8.4,6.082 -12.61,15.32 -12.61,27.719 0,19.41 9.43,31.734 28.28,36.976 5.59,1.547 12.05,2.324 19.37,2.324 7.34,0 15.59,-1.308 24.76,-3.914 v -14.707 l -0.36,-0.222 c -10.06,1.984 -18.59,2.972 -25.6,2.972 -19.58,0 -29.36,-7.371 -29.36,-22.113 0,-6.012 2.09,-10.887 6.27,-14.629 2.49,-2.199 9.01,-6.016 19.57,-11.437 10.56,-5.43 17.65,-9.391 21.28,-11.883 6.57,-4.403 11.39,-8.582 14.48,-12.543 3.09,-3.961 4.63,-10.231 4.63,-18.809 0,-8.437 -2.5,-16.035 -7.51,-22.781 -9.71,-12.996 -25.03,-19.524 -45.97,-19.598 -11.37,0 -21.58,2.129 -30.61,6.395 v 15.414 l 0.35,0.109 c 4,-1.687 9.24,-3.117 15.7,-4.289 6.46,-1.172 12.2,-1.758 17.2,-1.758" /><path
         id="path857"
         style="fill:#ffffff;fill-opacity:1;fill-rule:nonzero;stroke:none"
         d="m 1327.66,521.113 h 87.5 v -15.871 h -70.42 v -48.82 h 70.42 v -15.871 h -70.42 V 391.73 h 70.42 v -15.871 h -87.5 v 145.254" /><path
         id="path859"
         style="fill:#ffffff;fill-opacity:1;fill-rule:nonzero;stroke:none"
         d="m 698.145,166.875 h -25.786 v 90.039 l -23.476,-44.082 h -24.469 l -23.473,44.082 v -90.039 h -25.789 v 145.254 h 25.789 l 35.707,-67.332 35.711,67.332 h 25.786 V 166.875" /><path
         id="path861"
         style="fill:#ffffff;fill-opacity:1;fill-rule:nonzero;stroke:none"
         d="M 752.59,312.129 V 166.875 h -25.793 v 145.254 h 25.793" /><path
         id="path863"
         style="fill:#ffffff;fill-opacity:1;fill-rule:nonzero;stroke:none"
         d="m 781.238,312.129 h 25.793 V 191.672 h 60.504 v -24.797 h -86.297 v 145.254" /><path
         id="path865"
         style="fill:#ffffff;fill-opacity:1;fill-rule:nonzero;stroke:none"
         d="M 912.063,312.129 V 166.875 H 886.27 v 145.254 h 25.793" /><path
         id="path867"
         style="fill:#ffffff;fill-opacity:1;fill-rule:nonzero;stroke:none"
         d="m 940.715,312.129 h 86.295 v -24.793 h -60.506 v -35.82 h 58.856 v -24.797 h -58.856 v -35.047 h 60.506 v -24.797 h -86.295 v 145.254" /><path
         id="path869"
         style="fill:#ffffff;fill-opacity:1;fill-rule:nonzero;stroke:none"
         d="m 1046.85,312.129 h 25.79 v -81.777 c 0,-15.723 2.82,-26.446 8.48,-32.176 5.66,-5.735 14.18,-8.637 25.57,-8.703 11.39,0.066 19.91,2.968 25.57,8.703 5.66,5.73 8.48,16.453 8.48,32.176 v 81.777 h 25.79 v -89.16 c 0,-15.723 -3.38,-28.36 -10.14,-37.91 -9.84,-13.594 -26,-20.391 -48.49,-20.391 h -2.42 c -22.71,0 -38.83,6.797 -48.39,20.391 -6.83,9.48 -10.24,22.121 -10.24,37.91 v 89.16" /><path
         id="path871"
         style="fill:#ffffff;fill-opacity:1;fill-rule:nonzero;stroke:none"
         d="m 1314.87,166.875 h -25.78 v 90.039 l -23.48,-44.082 h -24.47 l -23.47,44.082 v -90.039 h -25.79 v 145.254 h 25.79 l 35.71,-67.332 35.71,67.332 h 25.78 V 166.875" /><path
         id="path873"
         style="fill:#ffffff;fill-opacity:1;fill-rule:nonzero;stroke:none"
         d="m 1378.69,221.758 h 39.34 l -19.62,57.09 z m -46.18,-54.883 50.81,147.461 h 30.19 l 50.81,-147.461 h -27.33 l -10.36,30.09 h -56.43 l -10.36,-30.09 h -27.33" /><path
         id="path875"
         style="fill:#ffffff;fill-opacity:1;fill-rule:nonzero;stroke:none"
         d="m 1517.1,221.758 h 39.35 l -19.62,57.09 z m -46.17,-54.883 50.8,147.461 h 30.2 l 50.81,-147.461 h -27.33 l -10.37,30.09 h -56.42 l -10.36,-30.09 h -27.33" /><path
         id="path877"
         style="fill:#ffffff;fill-opacity:1;fill-rule:nonzero;stroke:none"
         d="m 1593.92,312.129 h 113.97 v -24.793 h -44.1 V 166.875 h -25.78 v 120.461 h -44.09 v 24.793" /><path
         id="path879"
         style="fill:#ffffff;fill-opacity:1;fill-rule:nonzero;stroke:none"
         d="m 1713.4,195.898 c 10.4,-4.285 22.49,-6.425 36.28,-6.425 7.96,0 15.03,1.738 21.21,5.226 6.19,3.485 9.33,7.781 9.4,12.86 0,5.089 -2.36,9.453 -7.07,13.086 -4.72,3.632 -10.86,7.011 -18.45,10.136 -0.74,0.215 -4.25,1.563 -10.54,4.035 -6.29,2.469 -12.47,5.809 -18.53,10.028 -6.08,4.219 -10.48,9.992 -13.22,17.336 -1.6,3.847 -2.4,8.211 -2.4,13.074 0,13.066 5.77,23.125 17.31,30.176 9.71,5.937 22.01,8.906 36.88,8.906 8.73,0 17.36,-1.16 25.86,-3.496 l -0.31,-23.699 c -7.38,1.601 -15.9,2.398 -25.55,2.398 -9.65,0 -16.79,-1.023 -21.43,-3.055 -4.64,-2.031 -6.97,-5.449 -6.97,-10.242 0.08,-4.797 2.54,-9.015 7.4,-12.648 4.85,-3.711 10.99,-7.09 18.42,-10.137 1.4,-0.652 5.19,-2.148 11.36,-4.473 6.18,-2.324 12.13,-5.625 17.83,-9.921 5.71,-4.208 10.06,-10.028 13.06,-17.442 1.43,-3.918 2.14,-8.133 2.14,-12.637 0,-13.925 -6.63,-25.031 -19.88,-33.32 -11.67,-7.324 -24.46,-10.996 -38.36,-10.996 -13.9,0 -25.48,2.187 -34.76,6.543 v 24.578 l 0.32,0.109" /><path
         id="path881"
         style="fill:#ffffff;fill-opacity:1;fill-rule:nonzero;stroke:none"
         d="m 1894.58,164.668 c -24.91,0 -43.81,7.062 -56.7,21.16 -12.9,14.113 -19.35,32.777 -19.35,55.988 0.43,21.379 6.69,38.497 18.79,51.36 13.49,14.109 32.61,21.16 57.36,21.16 13.38,0 25.46,-1.504 36.26,-4.5 v -24.387 l -0.88,-0.437 c -10.21,3.015 -20.79,4.527 -31.73,4.527 -17.79,0 -31.57,-5.191 -41.33,-15.574 -8.46,-9.063 -12.68,-20.586 -12.68,-34.57 0,-13.993 4.22,-25.442 12.68,-34.356 9.62,-10.379 23.36,-15.566 41.21,-15.566 11.02,0 21.64,1.504 31.85,4.519 l 0.88,-0.437 v -24.383 c -10.8,-3 -22.92,-4.504 -36.36,-4.504" /><path
         id="path883"
         style="fill:#ffffff;fill-opacity:1;fill-rule:nonzero;stroke:none"
         d="m 1952.88,312.129 h 25.79 v -60.613 h 60.5 v 60.613 h 25.79 V 166.875 h -25.79 v 59.844 h -60.5 v -59.844 h -25.79 v 145.254" /><path
         id="path885"
         style="fill:#ffffff;fill-opacity:1;fill-rule:nonzero;stroke:none"
         d="m 2128.76,221.758 h 39.35 l -19.62,57.09 z m -46.17,-54.883 50.8,147.461 h 30.2 l 50.81,-147.461 h -27.33 l -10.37,30.09 h -56.42 l -10.36,-30.09 h -27.33" /><path
         id="path887"
         style="fill:#ffffff;fill-opacity:1;fill-rule:nonzero;stroke:none"
         d="m 2257.83,287.336 v -48.938 h 16.31 c 14.25,-0.07 24.24,2.024 29.98,6.29 5.73,4.257 8.63,10.312 8.7,18.183 -0.07,7.863 -2.97,13.914 -8.7,18.184 -5.74,4.258 -15.73,6.347 -29.98,6.281 z m -25.79,-120.461 v 145.254 h 41.62 c 25.09,0 43.26,-6.356 54.49,-19.063 6.97,-8.007 10.46,-18.367 10.46,-31.082 0,-16.164 -6.68,-28.546 -20.03,-37.14 -11.59,-7.489 -26.56,-11.239 -44.9,-11.239 h -15.85 v -46.73 h -25.79" /><path
         id="path889"
         style="fill:#ffffff;fill-opacity:1;fill-rule:nonzero;stroke:none"
         d="m 2384.34,287.336 v -48.938 h 16.31 c 14.26,-0.07 24.25,2.024 29.98,6.29 5.73,4.257 8.63,10.312 8.7,18.183 -0.07,7.863 -2.97,13.914 -8.7,18.184 -5.73,4.258 -15.72,6.347 -29.98,6.281 z m -25.79,-120.461 v 145.254 h 41.62 c 25.1,0 43.26,-6.356 54.49,-19.063 6.98,-8.007 10.46,-18.367 10.46,-31.082 0,-16.164 -6.68,-28.546 -20.03,-37.14 -11.59,-7.489 -26.56,-11.239 -44.9,-11.239 h -15.85 v -46.73 h -25.79" /><path
         id="path891"
         style="fill:#ffffff;fill-opacity:1;fill-rule:nonzero;stroke:none"
         d="M 2510.86,312.129 V 166.875 h -25.79 v 145.254 h 25.79" /><path
         id="path893"
         style="fill:#ffffff;fill-opacity:1;fill-rule:nonzero;stroke:none"
         d="m 2528.5,164.668 v 24.805 h 2.53 c 11.83,0 20.1,2.129 24.8,6.386 6.17,5.586 9.25,16.164 9.25,31.739 v 84.531 h 25.79 v -91.914 c 0,-28.504 -11.13,-45.996 -33.38,-52.461 -6.84,-2.051 -15.26,-3.086 -25.25,-3.086 h -3.74" /><path
         id="path895"
         style="fill:#ffffff;fill-opacity:1;fill-rule:nonzero;stroke:none"
         d="m 543.238,0 -241.383,709.723 3.434,1.168 L 546.676,1.18359 543.238,0" /><path
         id="path897"
         style="fill:#ffffff;fill-opacity:1;fill-rule:nonzero;stroke:none"
         d="m 315.105,356.898 c -17.406,13.301 -25.566,-0.101 -36.511,0.793 -9.278,0.731 -17.949,15.7 -25.121,12.129 -13.684,-6.976 5.476,-31.597 13.797,-36.625 7.41,-4.425 16.746,-8.527 18.98,-9.562 11.008,-5.145 15.383,-12.918 16.77,-25.086 0.347,-2.785 0,-9.133 -0.684,-12.102 -5.023,-21.297 -42.348,-40.656 -63.781,-26.004 -10.082,6.922 -19.301,15.848 -22.492,31.649 -5.77,28 -25.981,48.586 -32.458,75.98 -3.941,16.649 -6.851,34.215 -11.203,50.965 -4.418,17.313 -8.964,34.457 -12.589,50.18 -3.305,14.629 -10.25,36.48 -15.293,49.808 -20.465,53.438 -29.711,49.555 -29.711,49.555 0,0 7.449,-14.832 34.554,-145.828 1.121,-5.363 10.973,-63.062 18.164,-82.055 2.571,-6.816 7.067,-21.359 10.016,-27.793 8.625,-18.761 31.395,-47.207 32.895,-72.851 0.867,-14.824 2.55,-27.102 2.902,-38.321 0.219,-3.281 1.676,-16.652 3.808,-22.597 5.555,-15.664 50.442,-66.137 98.082,-66.137 v 38.266 c -47.343,0 -91.933,26.531 -93.035,29.312 -0.691,1.25 2.457,19.348 5.66,27.406 6.208,15.586 17.899,29.825 38.469,31.344 22.934,1.645 36.778,-5.008 48.906,-5.008 l -0.125,122.582" /><path
         id="path899"
         style="fill:#ffffff;fill-opacity:1;fill-rule:nonzero;stroke:none"
         d="M 109.52,495.738 C 107.793,467.074 63.4609,427.91 49.5703,402.805 42.7695,390.449 34.4531,369.242 32.3086,356.965 c -5.8945,-34.18 1.5781,-55.422 9.918,-75.422 14.6718,-35.156 -1.9883,-48.086 9.4843,-40.969 14.1954,11.594 12.0352,38.578 10.9883,55.414 -0.8242,13.672 -1.7383,29.207 0.3281,45.504 3.9415,30.492 22.4024,63.211 38.1607,86.082 18.699,27.285 11.917,55.492 8.332,68.164" /><path
         id="path901"
         style="fill:#ffffff;fill-opacity:1;fill-rule:nonzero;stroke:none"
         d="m 118.457,414.379 c 0,0 4.731,-22.695 -15.289,-81.051 -52.3516,-152.613 47.656,-167.078 76.133,-202.965 0,0 11.015,15.567 -34.344,65.301 -16.562,18.203 -31.516,58.242 -18.488,115.449 18.824,82.856 -8.012,103.266 -8.012,103.266" /><path
         id="path903"
         style="fill:#ffffff;fill-opacity:1;fill-rule:nonzero;stroke:none"
         d="m 19.4531,514.43 c -2.3984,9.019 -3.1211,17.078 -2.5937,24.277 2.4179,35.859 34.9765,50.391 43.0937,55.731 0,0 14.6446,10.015 16.5313,20.152 0,0 14.9961,-37.75 -19.375,-59.371 C 39.6484,544.234 27.7969,531.352 19.4531,514.43" /><path
         id="path905"
         style="fill:#ffffff;fill-opacity:1;fill-rule:nonzero;stroke:none"
         d="m 101.578,549.086 c 1.856,-3.633 15.352,-23.383 -39.9257,-69.012 -55.17183,-45.566 -37.9414,-78.136 -37.9414,-78.136 0,0 -58.8906,32.765 8.9493,89.347 67.8128,56.551 53.9179,68.028 53.9179,68.028 0,0 9.711,0.464 14.9999,-10.227" /><path
         id="path907"
         style="fill:#ffffff;fill-opacity:1;fill-rule:nonzero;stroke:none"
         d="m 203.086,518.215 c 0.805,2.148 1.957,0.43 4.379,1.941 2.578,2.442 5.226,6.442 9.422,7.785 2.996,0.918 7.117,0.477 9.937,-0.601 1.871,-0.473 0.739,-5.277 -0.668,-6.52 -2.992,-2.199 -11.808,1.442 -11.808,-5.164 0.363,-10.859 14.652,0.321 22.129,0.028 3.644,-26.465 -39.895,-19.184 -33.391,2.531 z m -29.746,13.41 c 9.547,-1.25 15.625,-31.035 37.711,-37.52 16.25,-4.746 33.515,-2.167 37.34,-11.933 -7.45,-3.957 -1.575,-17.063 5.925,-14.902 6.188,17.398 9.301,84.664 -80.976,64.355" /></g></g></svg>
