<?xml version="1.0" encoding="UTF-8" standalone="no"?>
<svg
   xmlns:dc="http://purl.org/dc/elements/1.1/"
   xmlns:cc="http://creativecommons.org/ns#"
   xmlns:rdf="http://www.w3.org/1999/02/22-rdf-syntax-ns#"
   xmlns:svg="http://www.w3.org/2000/svg"
   xmlns="http://www.w3.org/2000/svg"
   width="1024"
   height="1024"
   viewBox="0 0 270.93333 270.93334"
   version="1.1"
   id="svg885">
  <defs
     id="defs879" />
  <metadata
     id="metadata882">
    <rdf:RDF>
      <cc:Work
         rdf:about="">
        <dc:format>image/svg+xml</dc:format>
        <dc:type
           rdf:resource="http://purl.org/dc/dcmitype/StillImage" />
        <dc:title></dc:title>
      </cc:Work>
    </rdf:RDF>
  </metadata>
  <g
     id="layer1">
    <rect
       style="fill:#29cdf7;stroke:none;stroke-width:0.2;stroke-linecap:round;fill-opacity:1;stroke-opacity:1"
       id="rect887"
       width="270.93332"
       height="270.93332"
       x="7.1207683e-06"
       y="7.1207683e-06" />
    <g
       id="g48"
       transform="matrix(0.88095236,0,0,0.88095236,16.126988,16.9972)">
      <path
         id="path891-6"
         style="fill:none;fill-opacity:1;stroke:#000000;stroke-width:18.4951;stroke-linecap:round;stroke-miterlimit:4;stroke-dasharray:none;stroke-opacity:0.1"
         d="m 115.49854,235.36849 c -6.52749,-1.3048 -12.89675,-3.24354 -19.018697,-5.77933 -12.24389,-5.07159 -23.49856,-12.53139 -33.05142,-22.08426 -19.10573,-19.10572 -29.83922,-45.01865 -29.83921,-72.03823 0,-56.265354 45.61209,-101.877434 101.877447,-101.877444 27.01958,0 52.93251,10.73349 72.03824,29.83921 19.10573,19.10573 29.83922,45.018664 29.83922,72.038234 v 0 c 0,27.01958 -10.73349,52.93251 -29.83922,72.03824 -4.77643,4.77643 -9.97831,9.0296 -15.51657,12.7226 -5.53827,3.69301 -11.4129,6.82586 -17.53485,9.36165 -6.12195,2.5358 -12.49121,4.47454 -19.0187,5.77933" />
      <path
         id="path918"
         style="fill:none;fill-opacity:1;stroke:#ffffff;stroke-width:69.9027;stroke-linecap:round;stroke-miterlimit:4;stroke-dasharray:none;stroke-opacity:1"
         d="M 436.52993,889.58163 C 411.85909,884.65013 387.78632,877.32261 364.64824,867.73851 318.3721,848.5703 275.83478,820.37577 239.72949,784.27047 167.51886,712.05985 126.95136,614.12123 126.95137,511.99999 c 1e-5,-212.65645 172.39213,-385.04854 385.04862,-385.04856 102.12125,0 200.05988,40.56751 272.27052,112.77812 72.21061,72.2106 112.77812,170.14921 112.77812,272.27044 v 0 c 10e-6,102.12124 -40.56749,200.05986 -112.77811,272.27049 -0.6619,0.66189 -1.32596,1.32113 -1.99217,1.9777"
         transform="scale(0.26458333)" />
      <text
         xml:space="preserve"
         style="font-style:normal;font-variant:normal;font-weight:normal;font-stretch:normal;font-size:204.611px;line-height:1.25;font-family:Cookie;-inkscape-font-specification:'Cookie, Normal';font-variant-ligatures:normal;font-variant-caps:normal;font-variant-numeric:normal;font-variant-east-asian:normal;fill:#000000;fill-opacity:1;stroke:none;stroke-width:0.264583"
         x="87.954559"
         y="193.07545"
         id="text899"><tspan
           id="tspan897"
           x="87.954559"
           y="193.07545"
           style="font-style:normal;font-variant:normal;font-weight:normal;font-stretch:normal;font-size:204.611px;font-family:Cookie;-inkscape-font-specification:'Cookie, Normal';font-variant-ligatures:normal;font-variant-caps:normal;font-variant-numeric:normal;font-variant-east-asian:normal;fill:#ffffff;fill-opacity:1;stroke-width:0.264583">B</tspan></text>
      <path
         style="fill:none;stroke:#e4dbdb;stroke-width:1.5875;stroke-linecap:butt;stroke-linejoin:miter;stroke-miterlimit:4;stroke-dasharray:none;stroke-opacity:1"
         d="m 135.46667,29.177176 v 7.9375"
         id="path881" />
      <path
         style="fill:none;stroke:#e4dbdb;stroke-width:1.5875;stroke-linecap:butt;stroke-linejoin:miter;stroke-miterlimit:4;stroke-dasharray:none;stroke-opacity:1"
         d="m 114.87256,231.38368 -1.37834,7.81692"
         id="path881-1" />
      <path
         style="fill:none;stroke:#e4dbdb;stroke-width:1.5875;stroke-linecap:butt;stroke-linejoin:miter;stroke-miterlimit:4;stroke-dasharray:none;stroke-opacity:1"
         d="m 155.29835,231.38368 1.37834,7.81692"
         id="path881-7" />
      <path
         style="fill:none;stroke:#e4dbdb;stroke-width:1.5875;stroke-linecap:butt;stroke-linejoin:miter;stroke-miterlimit:4;stroke-dasharray:none;stroke-opacity:1"
         d="m 75.521033,47.323674 4.438594,6.580486"
         id="path881-18" />
      <path
         style="fill:none;stroke:#e4dbdb;stroke-width:1.5875;stroke-linecap:butt;stroke-linejoin:miter;stroke-miterlimit:4;stroke-dasharray:none;stroke-opacity:1"
         d="m 195.87618,47.323674 -4.4386,6.580486"
         id="path881-0" />
      <path
         style="fill:none;stroke:#e4dbdb;stroke-width:1.5875;stroke-linecap:butt;stroke-linejoin:miter;stroke-miterlimit:4;stroke-dasharray:none;stroke-opacity:1"
         d="m 230.63514,89.232941 -7.13418,3.479569"
         id="path881-3" />
      <path
         style="fill:none;stroke:#e4dbdb;stroke-width:1.5875;stroke-linecap:butt;stroke-linejoin:miter;stroke-miterlimit:4;stroke-dasharray:none;stroke-opacity:1"
         d="m 39.4382,89.232941 7.134178,3.47957"
         id="path881-08" />
      <path
         style="fill:none;stroke:#e4dbdb;stroke-width:1.5875;stroke-linecap:butt;stroke-linejoin:miter;stroke-miterlimit:4;stroke-dasharray:none;stroke-opacity:1"
         d="m 30.126412,148.94724 7.894018,-0.8297"
         id="path881-4" />
      <path
         style="fill:none;stroke:#e4dbdb;stroke-width:1.5875;stroke-linecap:butt;stroke-linejoin:miter;stroke-miterlimit:4;stroke-dasharray:none;stroke-opacity:1"
         d="m 240.54201,148.94724 -7.89402,-0.8297"
         id="path881-6" />
      <path
         style="fill:none;stroke:#e4dbdb;stroke-width:1.5875;stroke-linecap:butt;stroke-linejoin:miter;stroke-miterlimit:4;stroke-dasharray:none;stroke-opacity:1"
         d="m 54.830221,203.70766 6.254836,-4.88682"
         id="path881-8" />
      <path
         style="fill:none;stroke:#e4dbdb;stroke-width:1.5875;stroke-linecap:butt;stroke-linejoin:miter;stroke-miterlimit:4;stroke-dasharray:none;stroke-opacity:1"
         d="m 217.35854,203.70766 -6.25484,-4.88682"
         id="path881-72" />
      <circle
         style="fill:#ffffff;stroke:none;stroke-width:1.19064;stroke-linecap:round;stroke-opacity:0.1"
         id="path886"
         cx="211.6201"
         cy="203.54753"
         r="15.875" />
    </g>
  </g>
</svg>
