<svg width="40" height="40" version="1.1" viewBox="0 0 40 40" xmlns="http://www.w3.org/2000/svg">
 <path d="m120 180c-66.168 0-120 53.832-120 120s53.832 120 120 120 120-53.832 120-120-53.832-120-120-120zm0 210c-49.625 0-90-40.375-90-90s40.375-90 90-90 90 40.375 90 90-40.375 90-90 90z" fill="#747474"/>
 <path d="m120 255c-24.812 0-45 20.188-45 45s20.188 45 45 45 45-20.188 45-45-20.188-45-45-45zm0 60c-8.2695 0-15-6.7305-15-15s6.7305-15 15-15 15 6.7305 15 15-6.7305 15-15 15z"/>
 <path d="m30.579 22.51v-2.5101c0-1.5675-1.2752-2.8427-2.8427-2.8427h-1.4214v-3.5534c0-0.3918 0.31888-0.7107 0.71069-0.7107v-1.4214c-1.1756 0-2.132 0.95645-2.132 2.132v3.5534h-3.1194l-1.7057-5.6855h1.1769v-1.4214h-11.371v1.4214h1.4214v4.536c-1.201 0.31055-2.3297 0.88019-3.2952 1.6777l0.90503 1.096c1.2683-1.0474 2.8744-1.6242 4.5223-1.6242 3.9188 0 7.1069 3.1881 7.1069 7.1069v2.132h2.9971c0.33942 2.0142 2.0954 3.5534 4.2045 3.5534 2.3512 0 4.2641-1.9129 4.2641-4.2641 0-1.26-0.54948-2.3939-1.4214-3.1753zm-17.862-6.7439v-4.2943h5.8674l1.7057 5.6855h-2.1537c-1.3503-0.89759-2.9693-1.4214-4.7086-1.4214-0.23782 0-0.4749 0.01036-0.71069 0.03017zm7.0613 2.8125h7.9577c0.78377 0 1.4214 0.63756 1.4214 1.4214v1.6653c-0.44473-0.15768-0.92315-0.24393-1.4214-0.24393h-6.2682c-0.37551-1.0588-0.95423-2.0221-1.6897-2.8427zm2.0584 4.2641h2.7241c-0.52653 0.58743-0.89261 1.3212-1.0292 2.132h-1.5757v-0.7107c0-0.48415-0.04109-0.95885-0.11919-1.4214zm5.8994 5.6855c-1.5675 0-2.8427-1.2752-2.8427-2.8427 0-1.5675 1.2752-2.8427 2.8427-2.8427s2.8427 1.2752 2.8427 2.8427c0 1.5675-1.2752 2.8427-2.8427 2.8427z" style="fill:#54bad3;stroke-width:.6"/>
 <path d="m437 330c0 8.2852-6.7148 15-15 15s-15-6.7148-15-15 6.7148-15 15-15 15 6.7148 15 15z"/>
</svg>
