<svg width="20" height="20" viewBox="0 0 20 20" fill="none" xmlns="http://www.w3.org/2000/svg">
<path d="M5.41666 17.5C7.48773 17.5 9.16666 15.8211 9.16666 13.75C9.16666 11.6789 7.48773 10 5.41666 10C3.3456 10 1.66666 11.6789 1.66666 13.75C1.66666 15.8211 3.3456 17.5 5.41666 17.5Z" stroke="#23B1D6" stroke-width="1.25" stroke-linecap="round" stroke-linejoin="round"/>
<path d="M15.8333 17.5C17.214 17.5 18.3333 16.3807 18.3333 15C18.3333 13.6193 17.214 12.5 15.8333 12.5C14.4526 12.5 13.3333 13.6193 13.3333 15C13.3333 16.3807 14.4526 17.5 15.8333 17.5Z" stroke="#23B1D6" stroke-width="1.25" stroke-linecap="round" stroke-linejoin="round"/>
<path d="M1.66666 8.74958C2.71124 7.96493 4.00966 7.5 5.41666 7.5C8.86841 7.5 11.6667 10.2983 11.6667 13.75C11.6667 13.83 11.6652 13.9096 11.6622 13.9888C11.6432 14.4927 11.6337 14.7448 11.7567 14.8724C11.8797 15 12.1068 15 12.5612 15H13.3333" stroke="#23B1D6" stroke-width="1.25" stroke-linecap="round" stroke-linejoin="round"/>
<path d="M10.8333 7.5L13.4214 7.98527C15.3722 8.351 16.3476 8.53392 16.9238 9.22825C17.5 9.9225 17.5 10.9206 17.5 12.9167" stroke="#23B1D6" stroke-width="1.25" stroke-linecap="round" stroke-linejoin="round"/>
<path d="M16.6667 10H15.8333" stroke="#23B1D6" stroke-width="1.25" stroke-linecap="round" stroke-linejoin="round"/>
<path d="M10.8333 10.4167V7.98923C10.8333 7.66482 10.786 7.34213 10.6928 7.0314L9.58334 2.5M3.33334 7.5V2.5" stroke="#23B1D6" stroke-width="1.25" stroke-linecap="round" stroke-linejoin="round"/>
<path d="M2.5 2.5H10.8333" stroke="#23B1D6" stroke-width="1.25" stroke-linecap="round" stroke-linejoin="round"/>
<path d="M15 7.91667V6.66667C15 5.74619 15.7462 5 16.6667 5" stroke="#23B1D6" stroke-width="1.25" stroke-linecap="round" stroke-linejoin="round"/>
<path d="M5.83334 7.5V2.5" stroke="#23B1D6" stroke-width="1.25" stroke-linecap="round" stroke-linejoin="round"/>
</svg>
