<svg width="40" height="40" version="1.1" viewBox="0 0 40 40" xmlns="http://www.w3.org/2000/svg">
 <path d="m120 180c-66.168 0-120 53.832-120 120s53.832 120 120 120 120-53.832 120-120-53.832-120-120-120zm0 210c-49.625 0-90-40.375-90-90s40.375-90 90-90 90 40.375 90 90-40.375 90-90 90z" fill="#747474"/>
 <path d="m120 255c-24.812 0-45 20.188-45 45s20.188 45 45 45 45-20.188 45-45-20.188-45-45-45zm0 60c-8.2695 0-15-6.7305-15-15s6.7305-15 15-15 15 6.7305 15 15-6.7305 15-15 15z"/>
 <path d="m37.631 24.184v-4.1836c0-2.6126-2.1253-4.7379-4.7379-4.7379h-2.369v-5.9224c0-0.65301 0.53148-1.1845 1.1845-1.1845v-2.369c-1.9593 0-3.5534 1.5941-3.5534 3.5534v5.9224h-5.1991l-2.8428-9.4759h1.9615v-2.369h-18.952v2.369h2.369v7.56c-2.0016 0.51759-3.8829 1.467-5.4921 2.7962l1.5084 1.8267c2.1139-1.7456 4.7907-2.707 7.5372-2.707 6.5313 0 11.845 5.3135 11.845 11.845v3.5534h4.9952c0.56571 3.357 3.4924 5.9224 7.0076 5.9224 3.9187 0 7.1069-3.1882 7.1069-7.1069 0-2.1-0.91581-3.9899-2.369-5.2922zm-29.77-11.24v-7.1572h9.7791l2.8428 9.4759h-3.5895c-2.2505-1.496-4.9489-2.369-7.8478-2.369-0.39637 0-0.7915 0.01727-1.1845 0.05028zm11.769 4.6876h13.263c1.3063 0 2.369 1.0626 2.369 2.369v2.7755c-0.74123-0.26281-1.5386-0.40655-2.369-0.40655h-10.447c-0.62586-1.7647-1.5904-3.3702-2.8162-4.7379zm3.4307 7.1069h4.5402c-0.87756 0.97905-1.4877 2.2021-1.7153 3.5534h-2.6262v-1.1845c0-0.80693-0.06848-1.5981-0.19865-2.369zm9.8324 9.4759c-2.6126 0-4.7379-2.1253-4.7379-4.7379 0-2.6126 2.1253-4.7379 4.7379-4.7379 2.6126 0 4.7379 2.1253 4.7379 4.7379 0 2.6126-2.1253 4.7379-4.7379 4.7379z" style="fill:#29cdf7"/>
 <path d="m437 330c0 8.2852-6.7148 15-15 15s-15-6.7148-15-15 6.7148-15 15-15 15 6.7148 15 15z"/>
</svg>
