<svg xmlns="http://www.w3.org/2000/svg" width="54" height="54" viewBox="0 0 54 54">
    <g fill="none" fill-rule="evenodd">
        <circle cx="27" cy="27" r="27" fill="#473838"/>
        <path fill="#FFF" fill-rule="nonzero" d="M27.049 30.367c.39 0 .674-.11.85-.332.175-.221.276-.599.302-1.133.052-1.041.199-2.106.44-3.193.24-1.087.66-2.542 1.26-4.365.416-1.29.696-2.25.84-2.881.142-.632.214-1.24.214-1.826 0-1.407-.371-2.565-1.113-3.477-.742-.911-1.686-1.367-2.832-1.367-1.276 0-2.285.469-3.028 1.406-.716.886-1.074 1.914-1.074 3.086 0 .73.075 1.4.225 2.012.15.612.517 1.745 1.103 3.398.495 1.407.899 2.722 1.211 3.946.196.755.32 1.311.371 1.67.052.358.118.973.196 1.845.026.43.12.74.283.928.163.189.413.283.752.283zm-.137 11.16c1.042 0 1.934-.37 2.676-1.113.742-.742 1.113-1.64 1.113-2.695 0-1.042-.37-1.934-1.113-2.676-.742-.742-1.634-1.113-2.676-1.113-1.055 0-1.953.37-2.695 1.113-.742.742-1.113 1.634-1.113 2.676 0 1.054.37 1.953 1.113 2.695.742.742 1.64 1.113 2.695 1.113z"/>
    </g>
</svg>
