<svg xmlns="http://www.w3.org/2000/svg" xmlns:xlink="http://www.w3.org/1999/xlink" width="22" height="23" viewBox="0 0 22 23">
    <defs>
        <path id="prefix__a" d="M15 11c0 .552-.448 1-1 1s-1-.448-1-1 .448-1 1-1 1 .448 1 1zm3-5c-.552 0-1 .448-1 1s.448 1 1 1 1-.448 1-1-.448-1-1-1zm-1 7c-.552 0-1 .448-1 1s.448 1 1 1 1-.448 1-1-.448-1-1-1zm4-5c-.552 0-1 .448-1 1s.448 1 1 1 1-.448 1-1-.448-1-1-1zm-3 1c-.552 0-1 .448-1 1s.448 1 1 1 1-.448 1-1-.448-1-1-1zm-2.27-1.27c-.033.445-.381.799-.819.83-.017.001-.281.02-.66.02-.21 0-.457-.006-.716-.024-.404-.027-.76-.079-1.072-.154-.091.304-.22.634-.388.992-.31.657-.646 1.183-.66 1.205-.168.261-.45.407-.739.407-.124 0-.249-.027-.368-.082-.027-.013-.669-.315-1.318-.752-1.072-.724-1.594-1.436-1.594-2.178 0-2.528.558-4.479.93-5.502-.728-.377-1.542-.695-2.679-.695-2.431 0-3.882 2.653-3.882 7.097 0 3.175.234 5.689.538 7.618.056-.342.121-.695.2-1.06.193-.89.684-1.692 1.383-2.262.698-.568 1.574-.882 2.467-.882h2.735c1.472 0 2.777 1.007 3.175 2.45.331 1.203.257 1.957.185 2.686-.073.731-.147 1.486.19 2.972.062.267 0 .547-.168.762-.167.214-.422.34-.69.34-1.1 0-1.832-1.04-2.073-1.38-.467-.663-.892-1.501-1.342-2.389-.75-1.48-1.778-3.509-2.674-3.509-.024 0-.049 0-.073-.003-.687.253-1.228.85-1.391 1.602-.262 1.207-.367 2.284-.4 3.212.237-.357.484-.715.741-1.073.287-.4.84-.489 1.233-.196.393.293.48.855.192 1.256-.846 1.18-1.577 2.353-2.17 3.486-.16.303-.464.476-.78.476H3l-.032-.002-.055.002c-.314 0-.618-.17-.777-.471C2.049 22.365 0 18.401 0 8.894c0-2.68.476-4.825 1.416-6.377C2.412.87 3.876 0 5.647 0c1.712 0 2.877.556 3.812 1.068C10.287.66 12.105 0 15.223 0c.74 0 1.414.522 2.062 1.596.387.64.64 1.275.65 1.302.147.369.038.792-.268 1.04-.02.016-.495.399-1.1.754-.36.21-.694.37-1.003.478.081.333.136.717.164 1.155.048.737.003 1.377.001 1.404zM9 14c.494.786.92 1.77 1.331 2.723.195.45.383.886.569 1.277.006-.36.032-.668.056-.95.054-.642.094-1.106-.106-1.952-.152-.646-.652-1.098-1.215-1.098H9zm6.22-12c-1.38.004-2.44.193-3.22.42l.192.106c1.227.685 1.91 1.133 2.311 1.446.064 0 .13.007.194.026.073.015.402-.042 1.026-.488.097-.07.19-.141.277-.21-.043-.102-.091-.209-.142-.317-.316-.666-.552-.923-.638-.983zm-4.224 5.553c-.007-.024-.012-.05-.016-.074-.32-.398-.787-1.103-1.528-2.443L9.432 5c-.234.832-.427 1.883-.432 3.09.043.065.256.33 1.1.767.098.05.194.099.287.143.058-.09.117-.186.174-.285.505-.865.436-1.159.435-1.162zM14 7c-.003-.106-.007-.218-.015-.332-.065-1.018-.273-1.26-.275-1.262C13.468 5.17 12.329 4.599 11 4l.07.153c.962 2.124 1.297 2.512 1.338 2.555.013.011.268.21 1.26.277.114.007.226.012.332.015z"/>
    </defs>
    <g fill="none" fill-rule="evenodd" transform="translate(.611 .32)">
        <mask id="prefix__b" fill="#fff">
            <use xlink:href="#prefix__a"/>
        </mask>
        <use fill="#fff" fill-rule="nonzero" xlink:href="#prefix__a"/>
        <g fill="#fff" mask="url(#prefix__b)">
            <path d="M0 0H36V36H0z" transform="translate(-8 -7)"/>
        </g>
    </g>
</svg>
