<svg xmlns="http://www.w3.org/2000/svg" xmlns:xlink="http://www.w3.org/1999/xlink" width="40" height="40" viewBox="0 0 40 40">
    <defs>
        <path id="prefix__a" d="M13.276 13.704c1.06 0 2.076.403 2.846 1.124l.14.139 2.047 2.107c.495.51 1.135.852 1.83.981l.192.03 2.684.343c1.545.197 2.816 1.314 3.21 2.82.303 1.159-.39 2.343-1.549 2.646-.134.036-.271.058-.41.066l-.138.005h-.29l-.006.053c-.183 1.196-1.132 2.133-2.318 2.263l-.143.012-.14.003c-1.262 0-2.32-.91-2.576-2.139l-.025-.138-.007-.055H8.749l-.006.054c-.184 1.196-1.132 2.133-2.318 2.263l-.144.012-.14.003c-1.261 0-2.32-.91-2.575-2.139l-.025-.138-.008-.056-.079-.002C1.841 23.884.537 22.628.385 21.036l-.01-.155-.005-.157v-1.568c0-.885.688-1.61 1.56-1.67l.114-.003c.676 0 1.326-.253 1.823-.705l.122-.117 1.644-1.694c.738-.76 1.736-1.208 2.789-1.259l.198-.004h4.656zm0 .74H8.62c-.864 0-1.693.327-2.324.91l-.132.129-1.644 1.694c-.65.669-1.543 1.047-2.476 1.047-.483 0-.88.367-.928.837l-.005.095v1.568c0 1.335 1.046 2.425 2.363 2.496l.137.004h.627l.013.483c.056 1.037.887 1.849 1.89 1.849s1.828-.81 1.89-1.837l.003-.124v-.37h11.294l.013.482c.056 1.037.887 1.849 1.89 1.849s1.827-.81 1.89-1.837l.003-.124v-.37h1.004c.121 0 .243-.016.36-.047.763-.2 1.22-.98 1.02-1.742-.304-1.164-1.257-2.039-2.432-2.25l-.155-.023-2.684-.343c-.869-.111-1.679-.493-2.316-1.089l-.144-.14-2.046-2.108c-.601-.62-1.413-.987-2.27-1.034l-.185-.005zM14.16.37c1.626 0 3.095.876 3.929 2.253l.093.161.085.161.168-.059c.181-.057.367-.098.557-.122l.192-.017.193-.006c1.78 0 3.216 1.495 3.216 3.333s-1.437 3.333-3.216 3.333c-.64 0-1.25-.194-1.767-.547l-.152-.11-.098-.08-.024.024c-.75.732-1.715 1.19-2.756 1.286l-.21.015-.21.005c-.987 0-1.925-.321-2.702-.9l-.164-.129-.081-.07-.03.02c-.39.249-.83.407-1.292.464l-.2.017-.179.005c-1.78 0-3.216-1.495-3.216-3.333s1.437-3.333 3.216-3.333c.126 0 .252.007.376.022l.185.028.057.012.03-.058c.76-1.341 2.106-2.232 3.624-2.359l.191-.012.185-.004zm0 .741c-1.443 0-2.746.827-3.421 2.122l-.078.158-.137.292-.308-.095c-.227-.07-.463-.107-.704-.107-1.363 0-2.475 1.158-2.475 2.593s1.112 2.593 2.475 2.593c.494 0 .966-.152 1.366-.431l.13-.098.256-.205.235.229c.718.701 1.66 1.097 2.66 1.097 1.057 0 2.044-.44 2.77-1.207l.132-.147.269-.313.282.3c.463.493 1.093.775 1.765.775 1.363 0 2.475-1.158 2.475-2.593s-1.112-2.593-2.475-2.593c-.339 0-.667.071-.97.207l-.148.073-.361.193-.156-.379c-.612-1.484-2.012-2.464-3.582-2.464z"/>
    </defs>
    <g fill="none" fill-rule="evenodd" transform="translate(6.667 6.667)">
        <mask id="prefix__b" fill="#fff">
            <use xlink:href="#prefix__a"/>
        </mask>
        <use fill="#473838" fill-rule="nonzero" xlink:href="#prefix__a"/>
        <g fill="#54BAD3" mask="url(#prefix__b)">
            <path d="M0 0H40V40H0z" transform="translate(-6.667 -6.667)"/>
        </g>
    </g>
</svg>
