<svg width="20" height="20" viewBox="0 0 20 20" fill="none" xmlns="http://www.w3.org/2000/svg">
<path d="M13.3334 1.66669V5.00002M6.66669 1.66669V5.00002" stroke="white" stroke-width="1.25" stroke-linecap="round" stroke-linejoin="round"/>
<path d="M10.8333 3.33331H9.16667C6.02397 3.33331 4.45262 3.33331 3.47631 4.30962C2.5 5.28594 2.5 6.85728 2.5 9.99998V11.6666C2.5 14.8093 2.5 16.3807 3.47631 17.357C4.45262 18.3333 6.02397 18.3333 9.16667 18.3333H10.8333C13.976 18.3333 15.5474 18.3333 16.5237 17.357C17.5 16.3807 17.5 14.8093 17.5 11.6666V9.99998C17.5 6.85728 17.5 5.28594 16.5237 4.30962C15.5474 3.33331 13.976 3.33331 10.8333 3.33331Z" stroke="white" stroke-width="1.25" stroke-linecap="round" stroke-linejoin="round"/>
<path d="M2.5 8.33331H17.5" stroke="white" stroke-width="1.25" stroke-linecap="round" stroke-linejoin="round"/>
</svg>
