<svg xmlns="http://www.w3.org/2000/svg" xmlns:xlink="http://www.w3.org/1999/xlink" width="36" height="36" viewBox="0 0 36 36">
    <defs>
        <path id="prefix__a" d="M12 0c6.627 0 12 5.373 12 12s-5.373 12-12 12S0 18.627 0 12 5.373 0 12 0zm-.04 15.08c-.468 0-.867.165-1.197.495-.33.33-.495.726-.495 1.189 0 .469.165.868.495 1.198.33.33.73.495 1.198.495.463 0 .86-.165 1.19-.495.329-.33.494-.73.494-1.198 0-.463-.165-.86-.495-1.19-.33-.33-.726-.494-1.19-.494zm.044-9.839c-.567 0-1.015.209-1.345.625-.318.394-.478.851-.478 1.372 0 .324.034.622.1.894.067.272.23.775.49 1.51.22.625.4 1.21.539 1.754.087.335.142.583.165.742.023.16.052.433.087.82.011.191.053.329.126.413.072.084.183.126.334.126.173 0 .3-.05.377-.148.078-.098.123-.266.135-.504.023-.462.088-.936.195-1.419.107-.483.294-1.13.56-1.94.185-.573.31-1 .373-1.28.064-.28.096-.551.096-.812 0-.625-.165-1.14-.495-1.545-.33-.405-.75-.608-1.259-.608z"/>
    </defs>
    <g fill="none" fill-rule="evenodd" transform="translate(6 6)">
        <mask id="prefix__b" fill="#fff">
            <use xlink:href="#prefix__a"/>
        </mask>
        <use fill="#fff" xlink:href="#prefix__a"/>
        <path fill="#fff" d="M0 0H24V24H0z" mask="url(#prefix__b)"/>
    </g>
</svg>
