<svg xmlns="http://www.w3.org/2000/svg" width="26" height="23" viewBox="0 0 26 23">
    <path fill="#FFFFFF" fill-rule="evenodd" d="M24.751 1.55h-6.206v9.96h6.206V1.55zM9.971 13.206c-.149.89-.21 1.684-.421 2.436-.527 1.88-.141 3.615.707 5.3.235.466.795.664 1.389.544.576-.117.699-.467.653-1-.048-.558.013-1.126-.037-1.684-.079-.877.199-1.627.664-2.347.618-.962 1.23-1.93 1.801-2.92.574-.995 1.29-1.838 2.311-2.386.401-.215.511-.52.506-.963-.022-1.998-.028-3.997.001-5.994.01-.665.028-1.236-.861-1.273-.166-.005-.316-.198-.489-.26-.406-.144-.82-.368-1.233-.372-3.184-.032-6.369-.021-9.554-.014-.756.002-1.4.257-1.738.988-.328.712.087 1.176.51 1.482-.405.483-.903.886-1.139 1.408-.318.7.229 1.129.825 1.442-1.737 1.02-1.819 1.925-.477 2.878-.185.09-.343.169-.499.247-.653.326-1.023 1.038-.883 1.7.111.534.526.777 1.386.785.936.008 1.873.003 2.81.003h3.768zM.887 11.645c.382-.582.719-1.12.553-1.925-.104-.505.234-1.097.36-1.654.06-.263.159-.545.118-.798-.115-.71-.01-1.351.336-1.984.134-.245.189-.585.149-.865-.243-1.743.711-3.083 2.455-3.127 3.432-.09 6.868-.095 10.301-.061.65.007 1.296.356 1.989.56.026-.098.078-.251.106-.408.098-.547.415-.865.972-.867 2.207-.011 4.414-.013 6.621.002.596.005 1.021.43 1.023 1.038.014 3.33.015 6.662 0 9.993-.003.613-.464 1.08-1.072 1.079-2.558-.01-5.115-.052-7.673-.064-.177-.001-.43.1-.518.237-1.082 1.67-2.181 3.334-3.172 5.059-.228.395-.072 1.016-.08 1.533-.006.333.009.666.014.999.026 1.664-1.179 2.554-2.806 2.068-.63-.188-1.111-.54-1.324-1.204-.314-.986-.826-1.947-.929-2.952-.111-1.07.155-2.177.261-3.267.022-.226.061-.45.106-.771h-.83c-1.478 0-2.958-.045-4.434.014-1.265.05-2.132-.398-2.526-1.635v-1z"/>
</svg>
