<svg
   xmlns:dc="http://purl.org/dc/elements/1.1/"
   xmlns:cc="http://creativecommons.org/ns#"
   xmlns:rdf="http://www.w3.org/1999/02/22-rdf-syntax-ns#"
   xmlns:svg="http://www.w3.org/2000/svg"
   xmlns="http://www.w3.org/2000/svg"
   version="1.1"
   x="0px"
   y="0px"
   viewBox="0 0 1000 1000"
   enable-background="new 0 0 1000 1000"
   xml:space="preserve"
   id="svg16">
<path
   d="M 984.1,122.3 C 946.5,84.5 911.4,42.1 867.8,11 c -40,-8.3 -59.2,34.9 -86.7,55.1 46.4,53.9 100.5,101.5 150.4,152.5 22.6,-26.9 76.2,-54.5 52.6,-96.3 z m -24.8,203.6 c -31.7,31.8 -64.5,62.8 -95.1,95.8 -0.8,127.5 0.3,255 -0.4,382.6 -0.6,47 -41.8,88.7 -88.8,90.3 -193.4,0.8 -387,0.8 -580.4,0.1 -52.2,-1.4 -94,-51.4 -89.9,-102.7 -0.1,-184.6 -0.1,-369.1 0,-553.5 -4,-51.1 38,-100.3 89.6,-102.1 128.1,-1.7 256.3,0.1 384.3,-0.9 33.2,-30 63.9,-62.9 95.7,-94.5 -170.6,0 -341,-0.9 -511.6,0.5 -79.6,1.4 -151,71 -152.4,151 -0.2,215.2 -0.8,430.3 0.4,645.5 0.3,77.5 66.1,144.7 142.4,152 h 670.2 c 72.3,-12.7 134.3,-75.8 135.2,-150.9 2.2,-171 0.5,-342.2 0.8,-513.2 z M 908.2,242.2 C 858,191.7 807.4,141.5 756.6,91.5 645.4,201.9 534,312 423.4,423 473.5,473.4 523.8,523.6 574.7,573.3 686,463.1 797.2,352.6 908.2,242.2 Z m -567,412.4 c 68.1,-18.5 104.4,-30.2 172.5,-48.5 18.2,-5.8 30.3,-9.3 39.7,-13 C 505.2,547.2 449.8,490.6 401.7,444.3 381.4,514.4 361.4,584.5 341.2,654.6 Z"
   id="path12"
   style="stroke:none;stroke-opacity:1;stroke-width:1;stroke-miterlimit:4;stroke-dasharray:none;fill:#122334;fill-opacity:1" />
</svg>
