<svg xmlns="http://www.w3.org/2000/svg" width="22" height="22" viewBox="0 0 22 22">
    <g fill="none" fill-rule="evenodd">
        <circle cx="11" cy="11" r="11" fill="#004FB7"/>
        <g fill="#FFDB2C">
            <g>
                <path d="M2 15.059L0.824 15.641 1.049 14.408 0.098 13.536 1.412 13.356 2 12.235 2.588 13.356 3.902 13.536 2.951 14.408 3.176 15.641z" transform="translate(3 3) translate(6) matrix(1 0 0 -1 0 28.235)"/>
                <path d="M2 2.824L0.824 3.405 1.049 2.173 0.098 1.301 1.412 1.121 2 0 2.588 1.121 3.902 1.301 2.951 2.173 3.176 3.405z" transform="translate(3 3) translate(6)"/>
            </g>
            <g>
                <path d="M1.889 15.059L0.779 15.641 0.991 14.408 0.092 13.536 1.334 13.356 1.889 12.235 2.444 13.356 3.685 13.536 2.787 14.408 2.999 15.641z" transform="translate(3 3) rotate(135 4.694 9.162) matrix(1 0 0 -1 0 28.235)"/>
                <path d="M1.889 2.824L0.779 3.405 0.991 2.173 0.092 1.301 1.334 1.121 1.889 0 2.444 1.121 3.685 1.301 2.787 2.173 2.999 3.405z" transform="translate(3 3) rotate(135 4.694 9.162)"/>
            </g>
            <g>
                <path d="M1.889 15.059L0.779 15.641 0.991 14.408 0.092 13.536 1.334 13.356 1.889 12.235 2.444 13.356 3.685 13.536 2.787 14.408 2.999 15.641z" transform="translate(3 3) scale(1 -1) rotate(-45 -14.62 -6.773) matrix(1 0 0 -1 0 28.235)"/>
                <path d="M1.889 2.824L0.779 3.405 0.991 2.173 0.092 1.301 1.334 1.121 1.889 0 2.444 1.121 3.685 1.301 2.787 2.173 2.999 3.405z" transform="translate(3 3) scale(1 -1) rotate(-45 -14.62 -6.773)"/>
            </g>
            <g>
                <path d="M2 15.059L0.824 15.641 1.049 14.408 0.098 13.536 1.412 13.356 2 12.235 2.588 13.356 3.902 13.536 2.951 14.408 3.176 15.641z" transform="translate(3 3) rotate(-90 5 5) matrix(1 0 0 -1 0 28.235)"/>
                <path d="M2 2.824L0.824 3.405 1.049 2.173 0.098 1.301 1.412 1.121 2 0 2.588 1.121 3.902 1.301 2.951 2.173 3.176 3.405z" transform="translate(3 3) rotate(-90 5 5)"/>
            </g>
        </g>
    </g>
</svg>
