<svg xmlns="http://www.w3.org/2000/svg" width="22" height="22" viewBox="0 0 22 22">
    <g fill="none" fill-rule="evenodd">
        <circle cx="11" cy="11" r="11" fill="#004FB7"/>
        <g fill="#FFF">
            <path d="M18.363 2.595c-.586-.503-1.225-.947-1.907-1.324l-.166-.08c.134.083.275.154.41.235-.135-.069-.265-.147-.398-.22l.083.054-.082-.028.07.056C15.16.77 15.16.77 14.903.722c.063.06.063.06.266.164l-.089.002.073.06c-.06-.022-.14-.054-.2-.078.04.027.04.027.264.167-.424-.102-.77-.381-1.185-.504.055.035.129.08.187.11-.065.006-.065.006-.553-.106l-.03.08c-.741-.47-.741-.47-1.108-.51l.084.031C12.437.093 12.266.03 12.087 0c.22.09.22.09.46.206l-.09-.015c-.004.18.051.211.2.293l-.042.076-.087.013c.053.07.135.154.198.216.052.017.118.055.156.094-.122-.026-.229-.1-.355-.113.077.056.12.143.187.207l-.087.018c-.11-.095-.18-.23-.307-.309l.879.98c-.134-.093-.134-.093-.258-.24l-.099.005c.06.138.203.46-.076.495-.146-.645-.146-.645-.334-.953l-.08-.047c-.036-.175-.059-.211-.237-.24-.02.202-.02.202-.066.272.055.105.055.105.331.435-.257.01-.67-.24-.674-.242.043.115.154.2.152.335-.253-.09-.331.012-.365.055-.153-.123-.153-.123-.664.273l-.055-.076c.023-.052.04-.129.04-.186-.037-.034-.105-.064-.156-.065 0 .144.043.287.016.433l-.072.047-.083-.049c-.07.029-.156.08-.213.127.011.061.012.15-.01.208-.109-.01-.109-.01-.233-.127l-.065.079.071.067-.043.084c-.138-.038-.138-.038-.21-.217l.056-.1c-.034-.097-.094-.184-.122-.284.292.163.485.27.68.017C9.85.2 7.468 2.159 6.99 3.119c-.034.068-.062.167-.08.242l.052.076c.11-.007.11-.007.387-.187 0 .003.066.325-.035.594l.05.072c.13-.028.218-.14.345-.172l.203-.427c.28-.084.241-.293.236-.317-.057-.246-.024-.27.53-.662.115-.244.168-.287.289-.347l.011-.001h.001l.085.025c.012.455-.743.469-.596.994.194.09.388-.036.582-.002l.04.088c-.628.214-.628.214-.63.224.04.036.084.096.11.144-.017.05-.054.114-.088.155l-.054.018h-.001l-.002-.09-.08-.041c-.149.06-.149.06-.243.412-.052.03-.115.084-.153.13-.054-.002-.127-.028-.173-.058-.304.139-.304.139-.722.13l-.043-.086c.06-.17.152-.327.22-.494-.07.019-.16.063-.217.109-.031.025-.067.066-.092.097-.096.118.031.272-.063.39-.151.19-.433.202-.572.409-.26.386-.853.207-1.092.63.52.66.043.763.038.764-.681.117-.681.117-.814.593-.05.05-.102.131-.127.197l.078.026-.053.204c.164.006.186.031.237.171.088-.033.088-.033 1.134-.901.025-.08.044-.153.063-.225.683-.16.683-.16.692-.166.469.935.469.935.133.987l.265.236c.006-.039.006-.039.308-.43-.02-.05-.035-.121-.033-.174.052 0 .124.027.162.062-.017-.148-.019-.16-.186-.243v-.103l-.082.027c-.089-.067-.153-.115-.225-.453.073-.103.073-.103.246-.1.032.18.052.288.381.515.01.63.308.854.31.856l.097-.045.02-.1c.119.017.131.019.238.005-.072-.046-.182-.116-.266-.328.054-.01.125-.038.173-.065l-.001-.098c.374.066.455.963.774.621.17.119.257.178.565.008.21.219-.085.886-.583.865-.055-.002-.128-.023-.179-.045l-.013-.001h-.001c-.386-.018-.727-.255-1.122-.22-.176.016-.098.228-.163.335-.357.022-1.093-.462-1.099-.467.14-.378.14-.378.153-.436-.02-.025-.048-.057-.07-.082-.567-.027-1.054.558-1.665.217l-.23.225-.027.024c-.007.003-.94 1.024-1.272 1.848.133.259.111.436.025.672-.083.224-.301.819.762 1.748.048.042.151.045.212.024.162-.057.938-.244.94-.244.309 0 .55.234.856.243.07.274-.112.539-.028.813.108.352.48.547.559.917.107.506.107.506.004.794-.063.176.035.713.17.926.182.29.225.654.486.904.261.251.246.683.588.882.007.003.763.245 1.223-.454.642-.978.613-1.029.392-1.42.143-.422.938-.45.764-1.025-.28-.927-.28-.927-.171-1.157.161-.339.477-.588.876-.904.279-.22.931-.736.716-1.372-.409.185-.621.217-.977.24-.033-.063-.079-.145-.116-.205.524-.451 1.324-.263 1.825-.768.88-.888.193-1.003-.032-1.04l-.049-.259c-.1.27-.326.29-.611.313-.136-.265-.485-.414-.435-.78.064-.029.155-.054.224-.062l.039-.001h.006c.362.727.673.533.79.415.482.413 1.32-.152 1.68.597.056.013.139.008.193-.013l.02.09-.081.05.013.1c.162.117.216.13.333-.027.217.976.217.976.655 1.89l.093.032c.065-.049.142-.129.184-.198.158-.257.074-.554.14-.827.106-.435.651-.448.813-.829.304-.035.304-.035.395-.114.548.561.513.652.444.833l.077.07c.116-.018.123-.019.229-.138l.08.037c.092.263.09.407.082.833-.006.317.29 1.257.59 1.28.021-.568-.59-.99-.376-1.604.174.066.174.066.275.306.163.05.262.079.215.35.234-.162.335-.27.415-.447.224-.497-.463-.728-.356-1.191.053-.228.119-.237.484-.288.2-.027.554-.171.696-.822.04-.184.04-.184-.362-1.267.043-.043.108-.094.163-.122-.036-.13-.048-.16-.171-.218l-.073.057c-.062-.026-.14-.075-.185-.124.033-.16.034-.169.126-.373.095.094.095.094.131.29.033-.06.091-.132.143-.176l.085.04c.06.276.242.503.315.774l.093.013c.34-.469-.256-.825-.156-1.265l.088.006c.202-.546-.075-1.02-.344-1.48-.14-.28-.259-.392-.36-.475l-.075.049c-.134-.075-.134-.075-.535-.987.054.02.127.043.182.06l.059-.064c.052.02.119.058.164.091-.002-.022-.002-.022-.342-.5.076.035.076.035.237.186-.051-.09-.051-.09-.19-.25.671.583.952 1.47 1.625 2.053-.01-.024-.24-.58-.831-1.25l-.03-.027c-.32-.317-.36-.403-.398-.487l.085.055c-.146-.162-.663-.571-.463-.462M9.007 8.398c-.18-.362-.289-.471-.354-.522.07.046.183.152.365.543l-.01-.021m1.24 2.146c-.208-.27-.388-.355-.507-.411.019-.302-.196-.421-.3-.478.064-.216.064-.216-.423-1.233.19-.271.464.408.465.418.001.016-.006.038-.008.054.217.113.227.359.232.477.313.204.318.223.59 1.237l-.048-.064"/>
            <path d="M5.935 4.341c-.163.317-.163.317-.155.396.016.043-.023.066-.114.07-.385.014-.582.14-.666.193.154-.175.251-.278.289-.306-.004-.065-.045-.124-.02-.193.017-.049.06-.018.088-.036.062-.038.045-.127.078-.184.04-.068.138-.045.157-.145.042-.21.046-.232-.088-.202 0-.143.108-.233.122-.37-.013-.016-.036-.012-.047-.032-.007-.015-.005-.041 0-.058.005-.019.121-.223.154-.275.095-.147.162-.169.256-.199-.006.066-.051.144-.143.246-.045.05-.046.055-.047.072.073.029.125-.051.192-.056l.009.01c-.013.041-.022.056-.13.203-.113.154-.12.172-.105.201.021.005.027.006.066-.008-.032.238-.032.238.001.325.041.107-.013.283-.03.34h.137l-.004.008"/>
            <path d="M5.96 4.227c-.053.06-.137.093-.19.152-.034.038-.039.085-.062.127-.083.148-.16.222-.21.257-.011.008-.027.019-.04.026-.066.035-.148.04-.213.076-.07.037-.097.11-.18.135-.023.006-.06-.063-.064-.093-.005-.035.021-.057.074-.099.215-.174.302-.288.306-.297l-.004-.006c-.012.003-.014.003-.039.013-.073.031-.101.036-.115.02-.014-.014.007-.106.047-.15.053-.06.153-.07.226-.077.088-.009.114-.012.13-.04.047-.079.044-.176.138-.236.045-.03.081-.033.11-.035.109.006.172.126.085.227M5.869 2.394c-.065.094-.158.213-.183.237-.02.019-.044.015-.064.032-.083.068-.156.155-.24.221-.049.039-.084.067-.14.097-.056.03-.08.018-.103.007-.038-.019-.02-.088-.05-.115-.028-.026-.06.01-.088-.011L5 2.853c.056-.101.23-.144.168-.304.038-.027.081-.034.116-.068.001 0 .084-.086.086-.129-.033-.046-.069.007-.102-.007l-.003-.01c.015-.042.153-.2.193-.124.041-.09.093-.203.17-.211-.017.077-.026.097-.103.203-.056.076-.054.123.004.083.516-.355.471-.143.47-.133-.016.067-.089.18-.13.24M16.122 11.085c-.014.185-.156.173-.205.11-.07-.09-.047-.363.059-.432.159.143.15.268.146.322M17.978 12.84c-.038.32-.237.07-.262.025-.076-.134-.24-.556-.298-.969-.042-.307-.38-.837-.418-.896.2.067.723.687.76 1.005.01.088.03.27.24.485-.005.117-.011.263-.022.35M18.998 13.135c-.03.016-.186.05-.221.048-.013 0-.031 0-.044-.004-.083-.016-.157-.056-.24-.073-.077-.016-.159-.006-.236-.025-.229-.057-.257-.193-.257-.194.001-.01.013-.063.14-.07.021 0 .061.001.08.027.016.021.042.056.107.08.084.031.17.001.256.007.067.005.114.038.152.065.148.105.24.13.265.135l-.002.004"/>
            <path d="M18.998 12.522c-.003.014-.038.062-.129.028-.032.177-.112.215-.151.234-.047.247-.189.235-.25.19-.03-.02-.186-.124-.366-.078.037-.146-.023-.199-.052-.224-.088-.078-.036-.155-.024-.17.013-.017.034-.04.056-.053.004-.003.05-.03.12.003.03.015.052.013.098-.035.034-.035.053-.075.097-.105.026-.017.065-.01.093-.022.024-.01.023-.032.021-.056-.001-.02-.001-.02.04-.054.006-.004.026-.005.042-.004.015 0 .05.001.108-.067.026-.03.038-.065.065-.095.007-.009.014-.013.031-.014.103.01.116.091.201.115.006.029-.027.054-.051.073.01.032.024.034.033.036-.146.052-.146.052-.15.102-.001.038.057.161.136.168.022.002.04.003.032.028M19.99 12.08c0 .002-.1.173-.411.14-.093-.01-.173-.019-.223.015-.063.042-.105.172-.08.187.016-.005.017-.005.052-.03.051-.035.051-.035.244-.072.085-.016.13.006.151.016-.07.058-.131.076-.176.088-.056.016-.072.039-.076.046-.003.005-.08.143.063.197.01.042-.04.083-.008.125.132.029-.004.18-.007.18-.02.01-.076.007-.148-.215-.021-.065-.036-.087-.066-.1-.06-.027-.083.096-.106.227-.015.086-.018.107-.092.116-.005-.001-.018-.006-.022-.02l-.005-.017c-.009-.033.003-.095.015-.16.011-.062.016-.09.006-.104-.018-.027-.11-.013-.1-.048.018-.06.111-.094.145-.149.03-.048.024-.1.038-.149.002-.004.003-.01.006-.014.006-.008.02-.011.026-.019.06-.075-.018-.184.167-.228.117-.027.198.052.31.037.144-.02.193-.035.24-.103.012-.017.022-.025.036-.026.053.013.022.08.021.08"/>
            <path d="M19.143 12.989c-.005.01-.014.015-.02.017-.027.008-.056.009-.083.018-.027.01-.054.02-.081.027l-.037.007c-.015.002-.05.002-.063-.033-.003-.008-.003-.014-.003-.016.048-.05.07-.065.103-.068.027.001.053.012.08.012.02 0 .037-.007.056-.006.007 0 .015.001.021.003.024.006.032.024.027.039M19.072 14.041c-.006.016-.056.052-.063.038-.003-.004-.003-.015-.003-.023 0-.013-.002-.038-.008-.047-.013-.019-.036-.01-.052-.022-.016-.01-.019-.03-.02-.04 0-.004.01-.03.017-.028.009.002.017.007.026.007.017 0 .033-.008.05-.008.007 0 .009 0 .012.007l.034.072c.008.018.01.032.007.044M20.179 13.871c-.006.016-.025.045-.085.05-.013.002-.032.004-.044.015-.019.017-.026.041-.04.062-.037.06-.09.087-.105.09-.02.005-.022.007-.033.017-.009.007-.029.03-.054.068.03-.056.057-.11.086-.148.02-.027.055-.034.075-.06.027-.032.042-.074.071-.105.015-.017.035-.033.09-.033.023.002.053.005.039.044M20.996 14c-.015.003-.089-.01-.09-.01-.02-.004-.03-.054-.04-.097-.024-.12-.062-.242-.145-.124-.027.039-.028.087-.074.12-.012.009-.04.029-.097.003-.005-.028-.001-.055-.009-.083-.014-.053-.038-.05-.082-.027-.06.031-.089.034-.09-.035 0-.036.018-.03.045-.018.1.04.06-.178.032-.222-.03-.049-.059-.054-.08-.058-.077-.014-.105-.038-.166-.122l-.054.068c-.012-.035.01-.071-.005-.107l-.01-.02c-.004-.01-.023-.017-.028-.027-.005-.009-.006-.022-.006-.032.003-.055-.003-.066-.057-.106-.014-.01-.043-.025-.04-.04.01-.058.17-.063.219-.063.079.003.08.006.06.15-.019.128.017.156.062.108.11-.118.11-.118.132-.122.015-.003.022-.004.04.002l.152.06c.008.004.013.015.016.022.09.035.185.071.212.137.03.075.008.151.017.226.014.127.067.248.088.374.004.03 0 .036-.002.042"/>
            <path d="M19.167 12.978c-.06.012-.108.027-.145.04-.085.027-.096.028-.107.028-.066-.004-.112-.073-.099-.086.013-.012.11-.006.144.03.067-.026.104-.034.152-.036.02.001.052.002.074.02-.006 0-.013.003-.02.004M20.035 13.01c-.007.036-.031.058-.051.031-.01-.014-.018-.043-.02-.063.013-.006.023-.012.029-.025.002-.005.003-.006.005-.006.024.001.045.022.037.062"/>
            <path d="M20.108 13.032c-.004.007-.02.029-.072.001-.016-.01-.04-.019-.071-.009-.008.002-.017.007-.024.01l-.01.008c-.012.008-.02.02-.035.024-.007-.006-.019-.015.005-.132.085.012.243.035.207.098M20.053 12.08c0 .001-.065.156-.076.165l-.005-.003c-.003-.014-.007-.04.01-.162.002-.013.006-.036-.002-.058-.01-.024-.041-.034-.045-.062v-.009c.01-.045.11-.171.13-.196-.048.087-.052.128-.025.229.01.038.02.07.013.096"/>
            <path d="M20.06 12.945c-.004.015-.01.029-.016.044-.009.026-.013.053-.022.078-.006.018-.01.025-.016.032-.02.027-.053.021-.064.004-.006-.008-.003-.015.008-.019.006-.002.022-.007.049-.07.02-.045.037-.104.044-.131.017.033.02.046.017.062"/>
            <path d="M20.035 13.01c-.02.088-.071.076-.074.073-.002-.003-.005-.01.003-.026l.003-.007c.003-.006.02-.034.023-.036.004-.002.012-.008.02-.02.015-.024.02-.054.021-.067.001-.004.002-.011.005-.012.006.003.008.053-.001.095M20.617 16.597c-.229.453-.554.839-.815 1.27-.05-.038-.113-.003-.232.13h-.026c-.017-.043-.017-.043 0-.116-.076.084-.1.103-.12.119-.174-.134.055-.312.07-.47-.013-.003-.028-.005-.04-.005.057-.133.057-.133.057-.144l-.019.013c.132-.24.132-.24.13-.262-.21.195-.237.249-.26.296-.077-.16.198-.346.02-.47-.015-.01-.06-.042-.51.13-.09.035-.138.131-.23.162-.122.04-.196.023-.224.016-.152-.035-.16.166-.277.19-.001 0-.145.021-.14-.082.006-.156.151-.24.186-.381.058-.237.003-.484.064-.72l.17-.526c.036-.062.148-.166.15-.167.258-.232.457-.292.53-.308.08-.016.084-.02.122-.053.116-.103.082-.29.2-.39.012-.01.032-.02.047-.02.014.029.014.029.012.103.308-.568.445-.498.46-.409.004.032-.018.071-.027.088.005.005.01.014.017.017.051.026.105-.097.131-.157.187-.424.521-.273.525-.272.07.037 0 .166-.058.259-.166.265.02.57.113.52.012-.007.047-.026.213-.586.083-.28.106-.355.131-.372.036.142-.013.393-.036.495-.01.044-.012.053.031.069.007.02.008.05.007.072-.007.176-.07.343-.08.518-.003.068.046.125.04.194-.01.094-.034.19-.069.305.002 0 .102.22-.263.944"/>
            <path d="M19.066 17.983c-.003.003-.22.253-.228.2-.003-.019.014-.049.02-.061.029-.052.07-.095.1-.147v-.002c.003-.02.019-.06.037-.09.018-.032.025-.041.048-.073.013.083.092.046.12.027-.005.012-.048.084-.097.146M20.103 8.009c.007.037.006.072-.004.106-.033.115-.05.107-.057.103-.024-.01-.073-.118-.082-.152-.016-.059-.007-.111-.003-.136.003-.018.004-.02.003-.024l-.003-.001c-.03.019-.04.024-.065.004.004-.046.018-.125.061-.13.07.013.139.175.15.23"/>
            <path d="M20.733 7.271c.018.04-.019.078.001.117.034.063.107.12.154.18.204.26.072.24.044.234-.006-.001-.037-.01-.077-.063.006.098 0 .167-.137.105-.08-.036-.08-.036-.106-.044.071.174.022.193.004.2l-.016-.002c-.155-.024-.049-.13-.212-.151-.15-.019-.213.045-.224.057-.024.029-.031.037-.164.003l.008-.021c.024-.057.057-.095.096-.111.069-.03.162-.016.239-.031.174-.035.067-.127.16-.179.018-.01.053-.006.068-.019.018-.016.024-.04.023-.06-.004-.053-.041-.162-.116-.283-.122-.198-.122-.198-.084-.203.132.017.313.215.339.271M20.17 6.64l.014.075c-.044-.004-.05.016-.053.038-.008.066.025.116.026.178.001.042-.003.126-.061.01-.058-.114-.077-.134-.112-.12-.004.018-.01.046.059.153-.025-.022-.09-.078-.12-.214-.006-.02-.019-.088.007-.107.011-.008.018-.013.017-.055 0-.05 0-.05-.061-.259-.016-.054-.057-.21-.065-.268-.003-.027-.008-.06-.002-.071.08.203.132.267.233.38.032.035.08.09.118.26M19.771 4.669c-.083-.048-.103-.042-.115-.039-.003.01-.006.07.207.24.096.078.105.086.137.13-.078-.072-.104-.078-.122-.082l-.014.008c-.002.012-.003.025.034.071-.196-.22-.365-.45-.587-.66C19.04 4.076 19 4 19 4c.04.025.185.16.301.268.107.1.285.267.474.403l-.004-.002M20.019 5.966c.002.039-.001.092-.012.084-.01-.008-.04-.095-.019-.1l.003-.001c.007 0 .014.005.028.017"/>
            <path d="M20.006 5.938c.023.05.037.132-.007.147-.033-.07-.033-.167-.012-.17.004 0 .01.002.02.023M20.07 7.958c.01.042-.003.036-.02.03-.025-.01-.051-.022-.058-.003-.002.007 0 .014.002.029.005.03.017.117.015.138h-.002c-.008-.022-.015-.045-.024-.067-.016-.037-.037-.072-.051-.11-.004-.008-.004-.02-.004-.03-.005-.045.02-.093.05-.097.014 0 .074.037.091.11M19.074 8.851c.002.025-.002.047-.004.058-.01.046-.026.09-.035.135-.011.05-.005.086.006.138.003.016.007.033.005.044-.002.02-.024.017-.031.013-.05-.027-.09-.268-.09-.27.001-.015.04-.193.093-.21h.007c.038.003.049.091.049.092M18.116 9.856c0 .001-.001.195-.047.262-.053.076-.134.03-.148.018-.098-.085.024-.238.082-.25h.007c.01.003.028.005.049-.005.01-.005.018-.01.037-.03.01-.01.01-.01.015-.012.002.001.004.002.005.017M21.108 12.958c-.001.005-.153.352-.193.28-.014-.025-.02-.1-.026-.189.013.025.048.08.085.055.01-.007.091-.173.091-.175.01-.032 0-.077-.037-.177.054.014.07.056.071.058.02.051.01.147.009.148M11.997 14.34c-.017.23-.333 1.303-.4 1.436-.125.244-.338.27-.42.168-.149-.185-.177-.493-.177-.496-.001-.015.011-.035.041-.084.055-.089.11-.18.105-.284-.01-.153-.123-.291-.062-.455.021-.058.123-.072.24-.087.09-.012.259-.033.385-.209.068-.094.048-.233.149-.311.02-.015.027-.016.042-.018.108.02.104.245.097.34M12.206.05c.053.06-.03.11-.057.124-.076.04-.149.473-.147.509.008.185.142.29.182.317-.175-.013-.175-.013-.193-.025-.042-.027-.039-.084-.073-.115-.03-.027-.075-.016-.105-.042L11.805.81c-.021-.024-.034-.062-.025-.074.002-.003.006-.004.009-.005.055-.008.068-.055.065-.068-.08-.03.055-.121.001-.183-.006-.007-.014-.017-.019-.026.015-.033.07-.006.075-.049.008-.06.008-.06.02-.09-.014-.027-.02-.037-.019-.049.002-.02.021-.029.027-.046.009-.025.008-.053.017-.078l.005-.005c.011-.01.028.002.04-.008.01-.01 0-.022.006-.032.001-.004.008-.016.028-.009.02.007.044.015.08-.025-.041-.044-.037-.052-.032-.06L12.096 0c.028.002.07.006.11.05M20.173 11.04c-.004.07-.011.079-.014.082-.004-.002-.006-.004-.021-.074-.008-.038-.014-.06-.025-.056 0 0-.05.034-.026.159.014.072.014.072.01.08-.006.015-.04-.006-.041-.007-.087-.055-.062-.172-.052-.207.005-.018.006-.042-.02-.047-.019-.004-.086.015-.11.045-.036.05-.032.11-.048.165 0-.002-.005-.224.05-.297.013-.018.025-.023.035-.028.025-.011.057-.002.088.007.078.022.08-.083.14-.098.046.023.034.273.034.275M19.1 10.395c-.002.034-.01.042-.022.054-.02.018-.043.041-.054.201-.01.13.008.146.018.156.038.038.026.14.021.165 0 .004-.018.08-.076-.03-.005-.01-.012-.024-.015-.036-.01-.035.013-.065.008-.099-.012-.073-.075-.103-.08-.182-.002-.026.01-.043.024-.064.026-.037.03-.06.029-.107-.004-.137-.043-.269-.039-.408.001-.014.004-.031.007-.044l.012-.001c.103.008.118.122.13.204.04.003.037.19.037.191"/>
            <path d="M20.155 10.536c-.007.123-.044.146-.062.157-.016.01-.039.021-.051.04-.028.04-.041.094-.068.135-.001.001-.109.15-.12.13-.007-.01.003-.053.017-.112.007-.03.01-.044.01-.057.001-.118-.04-.226-.037-.344 0-.034.004-.049.023-.046.07.01.085.079.095.124.006.03.006.03.013.036.033-.018.098-.225.08-.251-.022-.032-.05.067-.063.027-.004-.016-.009-.055-.01-.066-.006-.055-.02-.182-.097-.295.008-.01.013-.013.026-.014.017.003.045.007.078.055.025.037.012.093.033.132.028.053.079.068.105.126.02.045.033.141.028.223M19.058 11.01c0 .042-.01.086-.015.094h-.001c0-.002-.002-.004-.001-.014 0-.01.002-.035-.017-.072-.027-.052-.066-.093-.082-.108.013-.012.032-.013.038-.014.023.001.078.015.078.114"/>
            <path d="M19.11 10.851c-.003.073-.039.177-.058.21-.001.002-.125.183-.152.153-.013-.015-.012-.038.002-.07.009-.018.034-.061.108-.134.017-.017.019-.019.024-.03.017-.03.031-.09.039-.12.008-.034.014-.062.018-.07l.006-.007c.01.006.013.048.012.068M1.781 13.797c-.008-.083-.054-.325-.078-.36-.166-.242-.468-.279-.634-.518l-.04-.064c-.19-.303-.19-.303-.224-.474-.026-.134-.14-.401-.299-.441-.082-.2-.128-.416-.214-.615-.022.011-.05.03-.07.048-.037-.068-.061-.12-.092-.321-.076.095-.076.095-.105.549-.008-.13-.008-.13-.014-.2-.005.031-.009.074-.01.106v.119l.005.144c0-.058.001-.115.003-.173.08.578.051 1.167.138 1.745.058.389.216 1.012.322 1.329.342 1.025.932 2.497 1.798 3.686-.05-.083-.108-.16-.156-.244C3.288 19.775 3.85 19.999 3.855 20c-.008-.026-.03-.056-.051-.07-.716-.483-1.377-1.534-1.384-1.545-.028-.15-.158-.216-.224-.335.023.017.052.042.073.062-.034-.102-.102-.183-.146-.279.02-.037.02-.037-.239-.614l.07.05c.044-.152-.165-.942-.197-1.017-.067-.157-.12-.282-.06-.427.033-.078.143-.081.147-.186.001-.022.002-.05.001-.072-.01-.312-.096-.61-.135-.915-.036-.291.097-.565.071-.855m.23-8.084c.046-.074.063-.123.071-.146l-.027-.014-.052.028c.004-.052.535-.928.54-.935-.025-.117-.025-.117.544-.9-.122.052-.177.189-.278.267.016-.045.016-.045.366-.457.05-.098.146-.155.191-.259-.134.091-.556.462-1.586 1.938.077-.137.09-.156.438-.647-.115.154-.223.31-.328.468-.297.45-.564.924-.797 1.422C.86 6.976.661 7.496.5 8.035c-.059.196-.113.395-.162.595v.002l-.044.185-.027.122-.005.027c-.03.144-.043.207-.057.295.231-1.048.231-1.048.538-1.843.161-.418.443-.759.623-1.165l-.003.007.002-.002.076-.09c-.095.174-.13.24-.153.302.003-.002.265-.205.35-.447-.026.02-.026.02-.106.135l-.023-.023c.028-.157.028-.157.11-.287-.028-.145.123-.173.151-.282-.027.006-.069.014-.3.358.002-.005.324-.505.416-.56.027.014.042.042.066.06.076-.037.11-.125.177-.173l-.386.615c.199-.039.199-.039.269-.153M4.4 2.407c.126-.092.298-.218.6-.407-.266.166-.524.345-.774.536l.003-.002.17-.127"/>
            <path d="M10.954 0c-1.212.02-2.112.37-2.36.478-1.043.45-1.043.45-1.554.783l-.036.023c-.012.008-.03.015-.043.021-.251.112-.538.134-.781.266-.257.139-.494.308-.765.426-.547.237-.864.748-1.397 1.003L4 2.964c.023-.057.023-.057.1-.135-.022-.003-.052-.003-.074 0 0-.004.273-.652 2.244-1.71-.013.016-.033.038-.05.052.196-.03.327-.166.493-.246-.049.017-.049.017-.237.099C7.056.672 7.745.566 8.37.318c-.032.003-.075.011-.106.019C8.619.24 9.593.014 10.977 0H11h-.046M19.826 17.217c-.245.267-.737.729-.826.783.002-.011.012-.019.017-.029l-.006-.003c.033-.054.033-.054.496-.456.182-.158.323-.345.493-.512 0 .001-.124.163-.174.217M20 18l.446-.413c.071-.066.26-.246.475-.499.028-.034.069-.08.079-.088-.063.11-.18.2-.265.301l.002-.001c-.231.24-.477.474-.737.7"/>
        </g>
    </g>
</svg>
