<svg xmlns="http://www.w3.org/2000/svg" width="23" height="23" viewBox="0 0 23 23">
    <g fill="none" fill-rule="evenodd" opacity=".645">
        <g fill="#122334">
            <g>
                <g>
                    <path d="M11.5 0c3.05 0 5.975 1.212 8.132 3.368C21.788 5.525 23 8.45 23 11.5 23 17.851 17.851 23 11.5 23S0 17.851 0 11.5 5.149 0 11.5 0zM8.075 6.347c-.462-.463-1.212-.463-1.674 0-.462.463-.462 1.213 0 1.676L9.832 11.5 6.36 14.935c-.23.219-.359.521-.359.838 0 .317.13.62.359.838.218.23.52.36.837.36.316 0 .619-.13.837-.36l3.473-3.435 3.432 3.477c.462.463 1.211.463 1.673 0 .463-.463.463-1.213 0-1.676l-3.43-3.477 3.472-3.435c.463-.463.463-1.213 0-1.676-.462-.463-1.211-.463-1.674 0l-3.473 3.435z" transform="translate(-53 -626) translate(53 541) translate(0 85)"/>
                </g>
            </g>
        </g>
    </g>
</svg>
