<svg width="40" height="40" version="1.1" viewBox="0 0 40 40" xmlns="http://www.w3.org/2000/svg" xmlns:xlink="http://www.w3.org/1999/xlink">
 <defs>
  <path id="prefix__a" d="M5.77 10.74v8.185l4.265-4.38h3.668v2.51l2.444-2.51h3.587v2.51l2.444-2.51h3.378v12.492H.37V10.741h5.4zm-.74.741H1.11v14.815h23.704V15.284H22.49l-3.497 3.595v-3.595H16.46l-3.497 3.595v-3.595h-2.616L5.03 20.75V11.48zM14.16.371c1.626 0 3.095.875 3.929 2.252l.093.161.085.161.168-.059c.181-.057.367-.098.557-.122l.192-.017.193-.006c1.78 0 3.216 1.495 3.216 3.333s-1.437 3.333-3.216 3.333c-.64 0-1.25-.194-1.767-.547l-.152-.11-.098-.08-.024.024c-.75.732-1.715 1.19-2.756 1.286l-.21.015-.21.005c-.987 0-1.925-.321-2.702-.9l-.164-.129-.081-.07-.03.02c-.39.249-.83.407-1.292.464l-.2.017-.179.005c-1.78 0-3.216-1.495-3.216-3.333s1.437-3.333 3.216-3.333c.126 0 .252.007.376.022l.185.028.057.012.03-.058c.76-1.341 2.106-2.232 3.624-2.359l.191-.012.185-.004zm0 .74c-1.443 0-2.746.827-3.421 2.122l-.078.158-.137.292-.308-.095c-.227-.07-.463-.107-.704-.107-1.363 0-2.475 1.158-2.475 2.593s1.112 2.593 2.475 2.593c.494 0 .966-.152 1.366-.431l.13-.098.256-.205.235.229c.718.701 1.66 1.097 2.66 1.097 1.057 0 2.044-.44 2.77-1.207l.132-.147.269-.313.282.3c.463.493 1.093.775 1.765.775 1.363 0 2.475-1.158 2.475-2.593s-1.112-2.593-2.475-2.593c-.339 0-.667.071-.97.207l-.148.073-.361.193-.156-.379c-.612-1.484-2.012-2.464-3.582-2.464z"/>
 </defs>
 <g transform="matrix(1.5 0 0 1.5 .5555 -.55525)" fill-rule="evenodd" style="fill:#29cdf7;stroke-width:2.6667">
  <mask id="prefix__b" fill="#ffffff">
   <use width="100%" height="100%" xlink:href="#prefix__a"/>
  </mask>
  <use width="100%" height="100%" fill="#473838" fill-rule="nonzero" style="fill:#29cdf7" xlink:href="#prefix__a"/>
  <g fill="#54bad3" mask="url(#prefix__b)" style="fill:#29cdf7">
   <path transform="translate(-7.407,-6.667)" d="m0 0h40v40h-40z" style="fill:#29cdf7"/>
  </g>
 </g>
</svg>
