<svg width="40" height="40" version="1.1" viewBox="0 0 40 40" xmlns="http://www.w3.org/2000/svg">
 <path d="m1.8082 36.004h9.932v-15.94h-9.932zm23.654-18.654c0.23846-1.4243 0.33608-2.6951 0.67376-3.8986 0.84341-3.0087 0.22566-5.7854-1.1315-8.4821-0.37609-0.74578-1.2723-1.0627-2.2229-0.87061-0.92182 0.18725-1.1187 0.74738-1.0451 1.6004 0.07682 0.89302-0.02081 1.802 0.05921 2.6951 0.12643 1.4035-0.31848 2.6038-1.0627 3.7561-0.98904 1.5396-1.9685 3.0888-2.8823 4.6731-0.91862 1.5924-2.0645 2.9415-3.6985 3.8185-0.64176 0.34408-0.8178 0.8322-0.8098 1.5412 0.03521 3.1976 0.04481 6.3968-0.0016 9.5927-0.016 1.0643-0.04481 1.9781 1.3779 2.0373 0.26566 8e-3 0.50572 0.31688 0.78259 0.4161 0.64976 0.23046 1.3123 0.58894 1.9733 0.59535 5.0956 0.05121 10.193 0.03361 15.29 0.02241 1.2099-0.0032 2.2405-0.4113 2.7815-1.5812 0.52493-1.1395-0.13923-1.8821-0.8162-2.3718 0.64816-0.77299 1.4452-1.4179 1.8228-2.2534 0.50892-1.1203-0.36649-1.8068-1.3203-2.3078 2.7799-1.6324 2.9111-3.0808 0.76339-4.6059 0.29607-0.14404 0.54894-0.27047 0.7986-0.3953 1.0451-0.52173 1.6372-1.6612 1.4131-2.7207-0.17764-0.85461-0.84181-1.2435-2.2181-1.2563-1.498-0.0128-2.9975-0.0048-4.4971-0.0048zm14.538 2.4982c-0.61135 0.93143-1.1507 1.7924-0.88502 3.0808 0.16644 0.8082-0.37449 1.7556-0.57614 2.647-0.09602 0.4209-0.25446 0.87221-0.18885 1.2771 0.18404 1.1363 0.016 2.1621-0.53773 3.1752-0.21445 0.3921-0.30247 0.93623-0.23846 1.3843 0.3889 2.7895-1.1379 4.934-3.929 5.0044-5.4925 0.14404-10.991 0.15204-16.486 0.09762-1.0403-0.0112-2.0741-0.56974-3.1832-0.89622-0.04161 0.15684-0.12483 0.4017-0.16964 0.65296-0.15684 0.87542-0.66416 1.3843-1.5556 1.3875-3.5321 0.0176-7.0641 0.0208-10.596-0.0032-0.95383-8e-3 -1.634-0.68817-1.6372-1.6612-0.022406-5.3293-0.024006-10.662 0-15.993 0.004801-0.98104 0.74258-1.7284 1.7156-1.7268 4.0938 0.016 8.186 0.08322 12.28 0.10242 0.28327 0.0016 0.68817-0.16004 0.829-0.37929 1.7316-2.6727 3.4905-5.3357 5.0764-8.0964 0.36489-0.63215 0.11523-1.626 0.12803-2.4534 0.0096-0.53293-0.0144-1.0659-0.02241-1.5988-0.04161-2.6631 1.8869-4.0874 4.4907-3.3096 1.0082 0.30087 1.778 0.86421 2.1189 1.9269 0.50252 1.578 1.3219 3.116 1.4868 4.7244 0.17764 1.7124-0.24806 3.4841-0.4177 5.2285-0.03521 0.36169-0.09762 0.72018-0.16964 1.2339h1.3283c2.3654 0 4.734 0.07202 7.0961-0.02241 2.0245-0.08002 3.412 0.63696 4.0426 2.6166z" style="fill:#29cdf7;stroke-width:1.6004"/>
</svg>
