<svg width="20" height="20" viewBox="0 0 20 20" fill="none" xmlns="http://www.w3.org/2000/svg">
<path d="M5.83325 15C4.30914 15.3431 3.33325 15.8703 3.33325 16.4614C3.33325 17.4953 6.31802 18.3333 9.99992 18.3333C13.6818 18.3333 16.6666 17.4953 16.6666 16.4614C16.6666 15.8703 15.6907 15.3431 14.1666 15" stroke="#122334" stroke-width="1.25" stroke-linecap="round"/>
<path d="M12.0834 7.50002C12.0834 8.6506 11.1507 9.58335 10.0001 9.58335C8.8495 9.58335 7.91675 8.6506 7.91675 7.50002C7.91675 6.34943 8.8495 5.41669 10.0001 5.41669C11.1507 5.41669 12.0834 6.34943 12.0834 7.50002Z" stroke="#122334" stroke-width="1.25"/>
<path d="M11.0479 14.578C10.7668 14.8487 10.3912 15 10.0002 15C9.60925 15 9.23358 14.8487 8.9525 14.578C6.37866 12.084 2.92941 9.29794 4.61151 5.25313C5.521 3.06612 7.7042 1.66669 10.0002 1.66669C12.2962 1.66669 14.4794 3.06613 15.3889 5.25313C17.0689 9.29285 13.6281 12.0926 11.0479 14.578Z" stroke="#122334" stroke-width="1.25"/>
</svg>
