<svg width="20" height="20" viewBox="0 0 20 20" fill="none" xmlns="http://www.w3.org/2000/svg">
<path d="M5.83331 15C4.3092 15.3431 3.33331 15.8703 3.33331 16.4614C3.33331 17.4953 6.31808 18.3333 9.99998 18.3333C13.6819 18.3333 16.6666 17.4953 16.6666 16.4614C16.6666 15.8703 15.6907 15.3431 14.1666 15" stroke="white" stroke-width="1.25" stroke-linecap="round"/>
<path d="M12.0834 7.5C12.0834 8.65058 11.1506 9.58333 10 9.58333C8.84944 9.58333 7.91669 8.65058 7.91669 7.5C7.91669 6.34941 8.84944 5.41667 10 5.41667C11.1506 5.41667 12.0834 6.34941 12.0834 7.5Z" stroke="white" stroke-width="1.25"/>
<path d="M11.0479 14.578C10.7668 14.8487 10.3911 15 10.0002 15C9.60919 15 9.23352 14.8487 8.95244 14.578C6.3786 12.084 2.92935 9.29792 4.61145 5.25311C5.52094 3.0661 7.70414 1.66667 10.0002 1.66667C12.2962 1.66667 14.4794 3.06611 15.3889 5.25311C17.0689 9.29283 13.628 12.0926 11.0479 14.578Z" stroke="white" stroke-width="1.25"/>
</svg>
