<svg xmlns="http://www.w3.org/2000/svg" width="28" height="19" viewBox="0 0 28 19">
    <g fill="none" fill-rule="evenodd" stroke="#FFF" stroke-linecap="round" stroke-linejoin="round" stroke-width="1.05">
        <path d="M16.335 14.957c.076.196.152.392.226.589.233.625.918.967 1.504.733.441-.175.46-.549.458-.954-.008-3.731-.005-7.463-.005-11.194 0-1.03-.01-2.062.005-3.093.007-.416-.023-.756-.53-.892-.456-.122-.893-.12-1.194.239-.308.365-.572.797-.313 1.316.119.237.073.49.073.736.003 3.78 0 7.561.007 11.342 0 .39-.04.758-.23 1.104M16.26 1.333c-.445-.068-.75.236-1.045.453-1.931 1.421-4.128 2.196-6.483 2.556-1.492.227-3.008.185-4.515.15-.858-.02-1.532.27-2.12.88-.25.259-.295.505-.292.821.01 1.277.006 2.553.002 3.83-.001.27-.024.54-.035.775-.323.184-.63.193-.942.183-.49-.015-.757-.232-.755-.737.006-1.326.007-2.651 0-3.977-.002-.555.317-.767.83-.813.294-.025.562.05.828.15M5.27 12.085c.062.924.47 1.763.695 2.647.28 1.097.682 2.165 1.038 3.244.317.96.322.96 1.279.957.93-.003 1.86.038 2.785-.11"/>
        <path d="M1.809 10.833c.683.819 1.566 1.032 2.633 1.064 1.279.038 2.565-.114 3.84.111 2.497.44 4.985.876 7.017 2.56.23.19.551.48.961.389"/>
        <path d="M9.335 12.38c-.245.328-.165.723-.057 1.024.526 1.459.951 2.947 1.412 4.425.09.29.25.573.076.884M26.497 1.254l-4.592 3.461M26.497 15.173l-4.592-3.462M21.511 8.213L27.927 8.213"/>
    </g>
</svg>
