<svg width="20" height="20" viewBox="0 0 20 20" fill="none" xmlns="http://www.w3.org/2000/svg">
<path d="M12.9166 5.41667C12.9166 7.0275 11.6108 8.33333 9.99998 8.33333C8.38915 8.33333 7.08331 7.0275 7.08331 5.41667C7.08331 3.80583 8.38915 2.5 9.99998 2.5C11.6108 2.5 12.9166 3.80583 12.9166 5.41667Z" stroke="white" stroke-width="1.25"/>
<path d="M18.3333 14.5834C18.3333 16.1942 17.0275 17.5 15.4167 17.5C13.8058 17.5 12.5 16.1942 12.5 14.5834C12.5 12.9725 13.8058 11.6667 15.4167 11.6667C17.0275 11.6667 18.3333 12.9725 18.3333 14.5834Z" stroke="white" stroke-width="1.25"/>
<path d="M7.50002 14.5834C7.50002 16.1942 6.19419 17.5 4.58335 17.5C2.97252 17.5 1.66669 16.1942 1.66669 14.5834C1.66669 12.9725 2.97252 11.6667 4.58335 11.6667C6.19419 11.6667 7.50002 12.9725 7.50002 14.5834Z" stroke="white" stroke-width="1.25"/>
</svg>
