<svg xmlns="http://www.w3.org/2000/svg" width="24" height="24" viewBox="0 0 24 24">
    <g fill="none" fill-rule="evenodd">
        <circle cx="12" cy="12" r="12" fill="#A2A2A2" opacity=".5"/>
        <path fill="#FFF" fill-rule="nonzero" d="M12.155 15.428c.437 0 .583-.127.583-.583 0-.765.51-1.184 1.148-1.585 1.185-.729 2.989-1.421 2.989-4.155 0-2.077-1.64-3.772-4.483-3.772-2.642 0-4.064 1.221-4.756 3.007-.182.437-.055.638.383.784l.874.31c.438.163.583.072.784-.383.474-1.057 1.166-1.713 2.66-1.713 1.513 0 2.278.783 2.278 1.858 0 1.495-1.039 1.987-2.023 2.606-.892.602-1.749 1.312-1.749 3.043 0 .456.146.583.583.583h.73zm-.273 3.5c.874 0 1.166-.274 1.166-1.167v-.164c0-.875-.292-1.166-1.166-1.166h-.146c-.875 0-1.166.291-1.166 1.166v.164c0 .893.291 1.166 1.166 1.166h.146z"/>
    </g>
</svg>
