<svg xmlns="http://www.w3.org/2000/svg" xmlns:xlink="http://www.w3.org/1999/xlink" width="19" height="23" viewBox="0 0 19 23">
    <defs>
        <path id="prefix__a" d="M17.91 10.871c-.327.036-.655.054-.98.054-1.6 0-3.154-.432-4.494-1.242l-1.029 3.905c-.03.114-.072.222-.123.325 2.613 1.896 4.386 4.621 5 7.698.126.635-.312 1.248-.98 1.368-.078.014-.155.021-.231.021-.58 0-1.096-.391-1.208-.953-.507-2.537-1.98-4.781-4.152-6.328l-.009.011c-1.985 2.482-5.118 3.956-8.394 3.956h-.09c-.68-.006-1.226-.553-1.22-1.2.006-.643.556-1.18 1.23-1.18h.012c.022 0 .045.02.068.02 2.512 0 4.913-1.121 6.435-3.023l.249-.307c-.214-.373-.286-.818-.17-1.263L8.882 8.72c-1.545.558-2.928 1.503-3.973 2.727-.243.285-.598.433-.956.433-.273 0-.547-.086-.775-.262-.528-.407-.609-1.145-.18-1.647 1.624-1.902 3.897-3.27 6.4-3.85l1.306-.303.016-.002c.023-.005.047-.01.07-.013l.054-.008c.019-.003.038-.004.057-.005.022-.002.044-.004.067-.004h.042c.026 0 .052 0 .078.003.012 0 .024.002.036.004.028.002.055.005.082.01l.04.008.074.016c.018.004.035.01.053.016.02.006.039.011.058.018.02.007.04.016.06.025.017.006.033.012.048.02.02.009.04.02.059.03l.047.025.049.032.052.035.038.03c.02.016.039.031.057.048l.011.01.945.87c1.289 1.186 3.049 1.755 4.83 1.558.677-.074 1.287.386 1.366 1.028.078.642-.406 1.224-1.081 1.298zm-6.202-5.76c1.484 0 2.687-1.145 2.687-2.556S13.192 0 11.708 0c-1.483 0-2.686 1.144-2.686 2.555 0 1.411 1.203 2.555 2.686 2.555z"/>
    </defs>
    <g fill="none" fill-rule="evenodd" transform="translate(-.264 .32)">
        <mask id="prefix__b" fill="#fff">
            <use xlink:href="#prefix__a"/>
        </mask>
        <use fill="#fff" fill-rule="nonzero" xlink:href="#prefix__a"/>
        <g fill="#fff" mask="url(#prefix__b)">
            <path d="M0 0H36V36H0z" transform="translate(-8 -7)"/>
        </g>
    </g>
</svg>
