<svg width="20" height="20" viewBox="0 0 20 20" fill="none" xmlns="http://www.w3.org/2000/svg">
<path d="M2.48376 11.074C1.88264 12.1592 1.71462 13.5023 1.66765 14.1684C1.65146 14.3979 1.8362 14.5833 2.06659 14.5833H3.3181M2.48376 11.074C2.48376 8.45333 3.24661 5.29087 4.77231 3.92602C4.90679 3.80572 5.08436 3.75 5.26489 3.75H9.25983C9.74258 3.75 10.2245 3.84758 10.6294 4.11018C11.6282 4.75794 13.1377 6.06642 14.4198 8.07445C14.5259 8.24049 14.6842 8.3665 14.8696 8.43367C15.6077 8.70125 16.4294 9.0725 16.9552 9.31992C17.3102 9.487 17.593 9.77842 17.7275 10.1467C18.0978 11.1608 18.3068 12.2923 18.3333 14.1662C18.3365 14.3962 18.1494 14.5833 17.919 14.5833H16.6675M2.48376 11.074C2.78445 10.5311 3.19351 10.0528 3.74999 9.75608M13.3302 14.5833H6.65544" stroke="white" stroke-width="1.25" stroke-linecap="round" stroke-linejoin="round"/>
<path d="M6.66667 14.5833C6.66667 15.5038 5.92048 16.25 5 16.25C4.07953 16.25 3.33334 15.5038 3.33334 14.5833C3.33334 13.6628 4.07953 12.9167 5 12.9167C5.92048 12.9167 6.66667 13.6628 6.66667 14.5833Z" stroke="white" stroke-width="1.25"/>
<path d="M16.6667 14.5833C16.6667 15.5038 15.9205 16.25 15 16.25C14.0795 16.25 13.3333 15.5038 13.3333 14.5833C13.3333 13.6628 14.0795 12.9167 15 12.9167C15.9205 12.9167 16.6667 13.6628 16.6667 14.5833Z" stroke="white" stroke-width="1.25"/>
<path d="M14.5833 8.33333C12.0833 7.5 9.16667 7.08333 5.83334 7.5C5.83334 5.83333 6.66667 4.16667 7.08334 3.75" stroke="white" stroke-width="1.25" stroke-linecap="round" stroke-linejoin="round"/>
<path d="M6.66666 9.16666H7.5" stroke="white" stroke-width="1.25" stroke-linecap="round" stroke-linejoin="round"/>
</svg>
