<svg xmlns="http://www.w3.org/2000/svg" xmlns:xlink="http://www.w3.org/1999/xlink" width="36" height="36" viewBox="0 0 36 36">
    <defs>
        <path id="prefix__a" d="M17.5 0C23.299 0 28 4.701 28 10.5c0 4.68-3.063 8.646-7.293 10.001L26.5 20.5c.552 0 1 .448 1 1 0 .513-.386.936-.883.993l-.117.007h-24c-.552 0-1-.448-1-1 0-.513.386-.936.883-.993L2.5 20.5l11.793.001c-2.407-.771-4.436-2.387-5.738-4.5L6 16c-.552 0-1-.448-1-1 0-.513.386-.936.883-.993L6 14h1.598C7.21 12.905 7 11.727 7 10.5c0-2.017.569-3.9 1.554-5.5H4c-.552 0-1-.448-1-1 0-.513.386-.936.883-.993L4 3h6.151c1.894-1.856 4.488-3 7.349-3zm0 4C13.91 4 11 6.91 11 10.5s2.91 6.5 6.5 6.5 6.5-2.91 6.5-6.5S21.09 4 17.5 4zm0 3c1.933 0 3.5 1.567 3.5 3.5S19.433 14 17.5 14 14 12.433 14 10.5 15.567 7 17.5 7zm0 2c-.828 0-1.5.672-1.5 1.5s.672 1.5 1.5 1.5 1.5-.672 1.5-1.5S18.328 9 17.5 9zM5 8c.552 0 1 .448 1 1 0 .513-.386.936-.883.993L5 10H1c-.552 0-1-.448-1-1 0-.513.386-.936.883-.993L1 8h4z"/>
    </defs>
    <g fill="none" fill-rule="evenodd" transform="translate(4 8)">
        <mask id="prefix__b" fill="#fff">
            <use xlink:href="#prefix__a"/>
        </mask>
        <use fill="#fff" fill-rule="nonzero" xlink:href="#prefix__a"/>
        <g fill="#fff" mask="url(#prefix__b)">
            <path d="M0 0H36V36H0z" transform="translate(-4 -8)"/>
        </g>
    </g>
</svg>
