<svg width="40" height="40" version="1.1" viewBox="0 0 40 40" xmlns="http://www.w3.org/2000/svg" xmlns:xlink="http://www.w3.org/1999/xlink">
 <defs>
  <path id="prefix__a" d="M14.015 7.428c-1.776 0-3.215 1.439-3.215 3.214 0 1.776 1.44 3.215 3.215 3.215s3.215-1.44 3.215-3.215-1.44-3.214-3.215-3.214zm0 .74c1.366 0 2.474 1.108 2.474 2.474 0 1.367-1.108 2.475-2.474 2.475-1.367 0-2.474-1.108-2.474-2.475 0-1.366 1.107-2.474 2.474-2.474zm.79-7.583l-.048.11c-.24.586-.925 2.51-.868 2.357l-.17.444c-.39.988-.736 1.642-1.082 1.989-.378.38-.672.313-1.153-.455-.131-.21-.429-.234-.592-.047-1.372 1.567-2.178 4.142-2.178 5.66 0 2.927 2.373 5.3 5.3 5.3 2.928 0 5.302-2.373 5.302-5.3 0-3.081-1.463-7.097-3.886-10.133-.171-.216-.51-.175-.625.075zm.44.9l.044.06c2.057 2.827 3.286 6.376 3.286 9.097 0 2.519-2.042 4.56-4.56 4.56-2.519 0-4.56-2.041-4.56-4.56l.004-.181c.056-1.25.672-3.23 1.677-4.599l.019-.026.027.032c.638.733 1.345.778 1.98.14.465-.468.869-1.253 1.328-2.452l.718-1.972.036-.098zM5.248 16.549l-.04.123c-.269.906.095 1.865.856 2.375l.131.08-3.98.7c-1.16.206-1.934 1.312-1.729 2.471l.026.123c.259 1.092 1.328 1.806 2.447 1.609l3.816-.672.044.074c.529.824 1.574 1.2 2.528.853l5.486-1.99 4.739 1.719c1.108.402 2.333-.169 2.739-1.28l.04-.123c.306-1.032-.209-2.133-1.196-2.56l-.069-.027 1.313-.475c1.105-.403 1.674-1.627 1.27-2.732-.404-1.108-1.628-1.679-2.736-1.277l-5.362 1.946-1.005.17-6.58-2.387c-1.067-.387-2.242.128-2.688 1.156l-.05.124zm2.486-.584l6.766 2.455 1.261-.221 5.424-1.962c.724-.263 1.525.11 1.789.834.25.685-.072 1.44-.724 1.739l-.108.044-3.224 1.17 1.864.676c.685.249 1.056.98.866 1.675l-.035.109c-.264.723-1.064 1.096-1.788.834l-4.992-1.812-5.738 2.083c-.705.256-1.486-.091-1.77-.783l-.112-.276-4.382.77c-.758.134-1.481-.373-1.615-1.13-.134-.757.37-1.479 1.129-1.613l6.65-1.17-2.218-.804c-.686-.249-1.056-.98-.866-1.675l.034-.109c.265-.723 1.065-1.096 1.79-.834z"/>
 </defs>
 <g transform="matrix(1.6636 0 0 1.6636 -.17316 -.61563)" fill-rule="evenodd" style="fill:#29cdf7">
  <mask id="prefix__b" fill="#ffffff">
   <use width="100%" height="100%" xlink:href="#prefix__a"/>
  </mask>
  <use width="100%" height="100%" fill="#473838" fill-rule="nonzero" style="fill:#29cdf7" xlink:href="#prefix__a"/>
  <g fill="#54bad3" mask="url(#prefix__b)" style="fill:#29cdf7">
   <path transform="translate(-6.667,-8.148)" d="m0 0h40v40h-40z" style="fill:#29cdf7"/>
  </g>
 </g>
</svg>
