<svg width="20" height="20" viewBox="0 0 20 20" fill="none" xmlns="http://www.w3.org/2000/svg">
<path d="M14.7257 13.3333C15.4278 12.3492 15.8333 11.1746 15.8333 9.99999C15.8333 6.66666 14.5833 5.83332 14.5833 5.83332C14.1346 7.08332 12.9167 7.49999 12.9167 7.49999C12.9167 2.91666 10 1.66666 10 1.66666C10 1.66666 7.08333 2.91666 7.08333 7.49999C7.08333 7.49999 5.86538 7.08332 5.41666 5.83332C5.41666 5.83332 4.16666 6.66666 4.16666 9.99999C4.16666 11.1746 4.57213 12.3492 5.27421 13.3333" stroke="white" stroke-width="1.25" stroke-linecap="round" stroke-linejoin="round"/>
<path d="M15.8333 15.8333H4.16667C3.70644 15.8333 3.33334 16.2064 3.33334 16.6667V17.5C3.33334 17.9603 3.70644 18.3333 4.16667 18.3333H15.8333C16.2936 18.3333 16.6667 17.9603 16.6667 17.5V16.6667C16.6667 16.2064 16.2936 15.8333 15.8333 15.8333Z" stroke="white" stroke-width="1.25" stroke-linejoin="round"/>
<path d="M12.0833 13.3333C12.0833 11.25 10 9.16666 10 9.16666C10 9.16666 7.91666 11.25 7.91666 13.3333" stroke="white" stroke-width="1.25" stroke-linecap="round" stroke-linejoin="round"/>
</svg>
