<?xml version="1.0" encoding="UTF-8"?>
<!DOCTYPE svg PUBLIC "-//W3C//DTD SVG 1.1//EN" "http://www.w3.org/Graphics/SVG/1.1/DTD/svg11.dtd">
<svg version="1.1" id="Layer_1" xmlns="http://www.w3.org/2000/svg" xmlns:xlink="http://www.w3.org/1999/xlink" x="0px" y="0px"	 width="410px" height="40px" viewBox="0 0 414 40" enable-background="new 0 0 410 40" xml:space="preserve">
  <rect x="5" y="20" fill="#0000FF" width="40" height="15"/>
  <rect x="45" y="20" fill="#0099FF" width="40" height="15"/>
  <rect x="85" y="20" fill="#009900" width="40" height="15"/>
  <rect x="125" y="20" fill="#00FF00" width="40" height="15"/>
  <rect x="165" y="20" fill="#FFFF00" width="40" height="15"/>
  <rect x="205" y="20" fill="#FFBB00" width="40" height="15"/>
  <rect x="245" y="20" fill="#FF6600" width="40" height="15"/>
  <rect x="285" y="20" fill="#FF0000" width="40" height="15"/>
  <rect x="325" y="20" fill="#990000" width="40" height="15"/>
  <rect x="365" y="20" fill="#660000" width="40" height="15"/>
  <text transform="matrix(1 0 0 1 5 15)" fill="#231F20" font-family="Open Sans, sans-serif" font-size="1em">0</text>
  <text transform="matrix(1 0 0 1 28 15)" fill="#231F20" font-family="Open Sans, sans-serif" font-size="1em">0,50</text>
  <text transform="matrix(1 0 0 1 68 15)" fill="#231F20" font-family="Open Sans, sans-serif" font-size="1em">1,00</text>
  <text transform="matrix(1 0 0 1 108 15)" fill="#231F20" font-family="Open Sans, sans-serif" font-size="1em">1,25</text>
  <text transform="matrix(1 0 0 1 148 15)" fill="#231F20" font-family="Open Sans, sans-serif" font-size="1em">1,50</text>
  <text transform="matrix(1 0 0 1 188 15)" fill="#231F20" font-family="Open Sans, sans-serif" font-size="1em">1,75</text>
  <text transform="matrix(1 0 0 1 228 15)" fill="#231F20" font-family="Open Sans, sans-serif" font-size="1em">2,00</text>
  <text transform="matrix(1 0 0 1 268 15)" fill="#231F20" font-family="Open Sans, sans-serif" font-size="1em">2,50</text>
  <text transform="matrix(1 0 0 1 308 15)" fill="#231F20" font-family="Open Sans, sans-serif" font-size="1em">3,00</text>
  <text transform="matrix(1 0 0 1 348 15)" fill="#231F20" font-family="Open Sans, sans-serif" font-size="1em">3,50</text>
  <path
      style="fill:#231f20;"
      d="m 409,5 c -1.153,0 -2.237,0.449 -3.036,1.246 l -1.396,1.34 -1.375,-1.32 c -0.815,-0.817 -1.901,-1.266 -3.055,-1.266 -1.154,0 -2.239,0.451 -3.053,1.266 -0.817,0.816 -1.267,1.8999998 -1.267,3.0549998 0,1.152 0.449,2.238 1.266,3.053 0.814,0.816 1.899,1.266 3.054,1.266 1.153,0 2.239,-0.449 3.036,-1.248 l 1.395,-1.338 1.376,1.32 c 0.815,0.816 1.901,1.266 3.055,1.266 1.154,0 2.238,-0.449 3.053,-1.266 0.817,-0.814 1.267,-1.9 1.267,-3.055 0,-1.155 -0.449,-2.2379998 -1.266,-3.0549998 -0.817,-0.815 -1.901,-1.264 -3.054,-1.264 z m -7.576,5.6049998 c -0.687,0.688 -1.884,0.688 -2.572,0 -0.344,-0.344 -0.533,-0.801 -0.533,-1.285 0,-0.486 0.189,-0.941 0.535,-1.287 0.342,-0.3439998 0.799,-0.5329998 1.284,-0.5329998 0.485,0 0.942,0.189 1.305,0.5509998 l 1.321,1.27 z m 8.861,0 c -0.687,0.689 -1.866,0.705 -2.59,-0.018 l -1.321,-1.27 1.339,-1.285 c 0.688,-0.6879998 1.886,-0.6879998 2.573,-0.002 0.344,0.346 0.533,0.801 0.533,1.287 0,0.486 -0.19,0.944 -0.534,1.288 z"
      id="path945" />
</svg>
