<?xml version="1.0" encoding="UTF-8"?>
<!DOCTYPE svg PUBLIC "-//W3C//DTD SVG 1.1//EN" "http://www.w3.org/Graphics/SVG/1.1/DTD/svg11.dtd">
<svg version="1.1" id="Layer_1" xmlns="http://www.w3.org/2000/svg" xmlns:xlink="http://www.w3.org/1999/xlink" x="0px" y="0px"	 width="420px" height="40px" viewBox="0 0 420 40" enable-background="new 0 0 420 40" xml:space="preserve">
  <rect x="6" y="20" fill="#0000FF" width="40" height="15"/>
  <rect x="46" y="20" fill="#0099FF" width="40" height="15"/>
  <rect x="86" y="20" fill="#009900" width="40" height="15"/>
  <rect x="126" y="20" fill="#00FF00" width="40" height="15"/>
  <rect x="166" y="20" fill="#FFFF00" width="40" height="15"/>
  <rect x="206" y="20" fill="#FFBB00" width="40" height="15"/>
  <rect x="246" y="20" fill="#FF6600" width="40" height="15"/>
  <rect x="286" y="20" fill="#FF0000" width="40" height="15"/>
  <rect x="326" y="20" fill="#990000" width="40" height="15"/>
  <rect x="366" y="20" fill="#660000" width="40" height="15"/>
  <text transform="matrix(1 0 0 1 20 15)" fill="#231F20" font-family="Open Sans" font-size="12">1</text>
  <text transform="matrix(1 0 0 1 180 15)" fill="#231F20" font-family="Open Sans" font-size="12">5</text>
  <text transform="matrix(1 0 0 1 378 15)" fill="#231F20" font-family="Open Sans" font-size="12">10</text>
</svg>
