<svg xmlns="http://www.w3.org/2000/svg" width="55" height="54" viewBox="0 0 55 54">
    <g fill="none" fill-rule="evenodd">
        <path fill="#FFF" d="M27 0h27v54H27C12.088 54 0 41.912 0 27S12.088 0 27 0z"/>
        <path fill="#473838" fill-rule="nonzero" stroke="#473838" d="M32.283 19.077c.37 0 .705-.163 1.003-.49.298-.328.447-.706.447-1.136 0-.312-.098-.569-.293-.769-.195-.2-.444-.3-.747-.3-.39 0-.728.154-1.01.461-.284.308-.426.681-.426 1.12 0 .333.098.601.293.807.196.205.44.307.733.307zM28.328 35.41c.39 0 .893-.176 1.508-.527.616-.352 1.592-1.157 2.93-2.417h0l-.571-.557c-1.29 1.211-2.09 1.817-2.403 1.817-.078 0-.15-.047-.22-.14-.068-.092-.102-.207-.102-.344 0-.713.518-2.803 1.553-6.27.635-2.118.952-3.32.952-3.603 0-.234-.083-.42-.249-.556-.166-.137-.405-.206-.718-.206-.566 0-1.252.227-2.058.682-.805.454-1.697 1.218-2.673 2.292h0l.644.498c.86-.84 1.414-1.338 1.663-1.494.249-.156.471-.234.666-.234.176 0 .264.097.264.293 0 .175-.034.376-.102.6-1.465 4.746-2.198 7.73-2.198 8.95 0 .381.1.679.3.894.2.215.472.322.814.322z"/>
    </g>
</svg>
