<?xml version="1.0" encoding="UTF-8"?>
<!DOCTYPE svg PUBLIC "-//W3C//DTD SVG 1.1//EN" "http://www.w3.org/Graphics/SVG/1.1/DTD/svg11.dtd">
<svg version="1.1" id="Layer_1" xmlns="http://www.w3.org/2000/svg" xmlns:xlink="http://www.w3.org/1999/xlink" x="0px" y="0px"	 width="410px" height="40px" viewBox="0 0 414 40" enable-background="new 0 0 410 40" xml:space="preserve">
  <rect x="5" y="20" fill="#0000FF" width="40" height="15"/>
  <rect x="45" y="20" fill="#0099FF" width="40" height="15"/>
  <rect x="85" y="20" fill="#009900" width="40" height="15"/>
  <rect x="125" y="20" fill="#00FF00" width="40" height="15"/>
  <rect x="165" y="20" fill="#FFFF00" width="40" height="15"/>
  <rect x="205" y="20" fill="#FFBB00" width="40" height="15"/>
  <rect x="245" y="20" fill="#FF6600" width="40" height="15"/>
  <rect x="285" y="20" fill="#FF0000" width="40" height="15"/>
  <rect x="325" y="20" fill="#990000" width="40" height="15"/>
  <rect x="365" y="20" fill="#660000" width="40" height="15"/>
  <text transform="matrix(1 0 0 1 5 15)" fill="#231F20" font-family="Open Sans, sans-serif" font-size="1em">0</text>
  <text transform="matrix(1 0 0 1 36 15)" fill="#231F20" font-family="Open Sans, sans-serif" font-size="1em">25</text>
  <text transform="matrix(1 0 0 1 76 15)" fill="#231F20" font-family="Open Sans, sans-serif" font-size="1em">50</text>
  <text transform="matrix(1 0 0 1 116 15)" fill="#231F20" font-family="Open Sans, sans-serif" font-size="1em">70</text>
  <text transform="matrix(1 0 0 1 152 15)" fill="#231F20" font-family="Open Sans, sans-serif" font-size="1em">120</text>
  <text transform="matrix(1 0 0 1 192 15)" fill="#231F20" font-family="Open Sans, sans-serif" font-size="1em">160</text>
  <text transform="matrix(1 0 0 1 232 15)" fill="#231F20" font-family="Open Sans, sans-serif" font-size="1em">180</text>
  <text transform="matrix(1 0 0 1 272 15)" fill="#231F20" font-family="Open Sans, sans-serif" font-size="1em">240</text>
  <text transform="matrix(1 0 0 1 312 15)" fill="#231F20" font-family="Open Sans, sans-serif" font-size="1em">280</text>
  <text transform="matrix(1 0 0 1 352 15)" fill="#231F20" font-family="Open Sans, sans-serif" font-size="1em">320</text>
  <text transform="matrix(1 0 0 1 398 18)" fill="#231F20" font-family="Open Sans, sans-serif" font-size="1.4em">∞</text>
</svg>
