<svg xmlns="http://www.w3.org/2000/svg" width="212" height="81" viewBox="0 0 212 81">
    <defs>
        <linearGradient id="prefix__a" x1="-14.802%" x2="108.74%" y1="50%" y2="50%">
            <stop offset="0%" stop-color="#FFF"/>
            <stop offset="0%" stop-color="#4FC3E1"/>
            <stop offset="100%" stop-color="#C6EBF5"/>
        </linearGradient>
    </defs>
    <path fill="url(#prefix__a)" fill-opacity=".8" d="M268.621 443c8.48 0 15.379 6.953 15.379 15.5s-6.899 15.5-15.379 15.5-15.378-6.954-15.378-15.5c0-.316.042-.621.113-.915.408-1.687 1.913-2.94 3.712-2.94 2.112 0 3.825 1.725 3.825 3.855 0 4.295 3.466 7.79 7.728 7.79s7.729-3.495 7.729-7.79-3.467-7.79-7.729-7.79H129.825c-2.113 0-3.825-1.725-3.825-3.855s1.712-3.855 3.825-3.855zm5.592-47c11.462 0 20.787 9.42 20.787 21s-9.325 21-20.787 21H86.857c-2.13 0-3.857-1.745-3.857-3.897 0-2.152 1.727-3.897 3.857-3.897h187.356c7.208 0 13.072-5.925 13.072-13.206 0-7.282-5.864-13.206-13.072-13.206-7.208 0-13.072 5.924-13.072 13.206 0 2.152-1.727 3.897-3.858 3.897-2.13 0-3.857-1.745-3.857-3.897 0-11.58 9.325-21 20.787-21zm-40.591-3c8.48 0 15.378 6.954 15.378 15.5 0 8.547-6.899 15.5-15.378 15.5h-58.797c-2.113 0-3.825-1.726-3.825-3.855 0-2.13 1.712-3.855 3.825-3.855h58.797c4.261 0 7.728-3.495 7.728-7.79s-3.467-7.79-7.728-7.79c-4.262 0-7.729 3.495-7.729 7.79 0 2.13-1.712 3.855-3.825 3.855-1.8 0-3.304-1.253-3.712-2.94-.071-.294-.113-.6-.113-.915 0-8.547 6.899-15.5 15.379-15.5z" opacity=".458" transform="translate(-83 -393)"/>
</svg>
